<?xml version="1.0" standalone="no"?>
<!DOCTYPE svg PUBLIC "-//W3C//DTD SVG 1.1//EN" "http://www.w3.org/Graphics/SVG/1.1/DTD/svg11.dtd" >
<svg xmlns="http://www.w3.org/2000/svg" xmlns:xlink="http://www.w3.org/1999/xlink" version="1.1">
<metadata>
Created by FontForge 20190801 at Fri Dec 21 19:45:41 2018
 By www-data
Copyright \(c\) 2017 by Matt Bailey. All rights reserved.
</metadata>
<defs>
<font id="SpartanMB-ExtraBold" horiz-adv-x="683" >
  <font-face 
    font-family="Spartan MB ExtraBold"
    font-weight="800"
    font-stretch="normal"
    units-per-em="1100"
    panose-1="0 0 5 3 8 0 0 2 0 3"
    ascent="880"
    descent="-220"
    x-height="512"
    cap-height="825"
    bbox="-167 -380 1446 1187"
    underline-thickness="50"
    underline-position="-100"
    stemh="188"
    stemv="860"
    unicode-range="U+000D-FB04"
  />
<missing-glyph horiz-adv-x="342" 
 />
    <glyph glyph-name="ff" unicode="ff" horiz-adv-x="750" 
d="M36 512h74v110c1 150 73 253 201 253c90 0 146 -46 146 -46l-62 -125s-24 14 -53 14c-45 0 -55 -30 -55 -101v-105h178v110c1 150 73 253 201 253c90 0 146 -46 146 -46l-62 -125s-24 14 -53 14c-45 0 -55 -30 -55 -101v-105h118v-135h-118v-377h-177v377h-178v-377h-177
v377h-74v135z" />
    <glyph glyph-name="fi" unicode="fi" horiz-adv-x="672" 
d="M16 512h74v110c1 150 71 253 211 253c138 0 231 -83 231 -83l-62 -125s-64 52 -117 52c-70 0 -86 -31 -86 -102v-105h345v-512h-177v377h-168v-377h-177v377h-74v135z" />
    <glyph glyph-name="fl" unicode="fl" horiz-adv-x="672" 
d="M16 512h74v110c1 150 73 253 201 253c58 0 101 -18 125 -32l-41 -139s-24 14 -53 14c-45 0 -55 -30 -55 -101v-105h118v-135h-118v-377h-177v377h-74v135zM435 860h177v-860h-177v860z" />
    <glyph glyph-name="ffi" unicode="ffi" horiz-adv-x="1047" 
d="M36 512h74v110c1 150 73 253 201 253c90 0 146 -46 146 -46l-62 -125s-24 14 -53 14c-45 0 -55 -30 -55 -101v-105h178v110c1 150 71 253 211 253c138 0 231 -83 231 -83l-62 -125s-64 52 -117 52c-70 0 -86 -31 -86 -102v-105h345v-512h-177v377h-168v-377h-177v377
h-178v-377h-177v377h-74v135z" />
    <glyph glyph-name="ffl" unicode="ffl" horiz-adv-x="1047" 
d="M36 512h74v110c1 150 73 253 201 253c90 0 146 -46 146 -46l-62 -125s-24 14 -53 14c-45 0 -55 -30 -55 -101v-105h178v110c1 150 73 253 201 253c58 0 101 -18 125 -32l-41 -139s-24 14 -53 14c-45 0 -55 -30 -55 -101v-105h118v-135h-118v-377h-177v377h-178v-377h-177
v377h-74v135zM810 860h177v-860h-177v860z" />
    <glyph glyph-name="ft" unicode="ft" horiz-adv-x="740" 
d="M16 512h74v110c1 150 73 253 201 253c90 0 146 -46 146 -46l-62 -125s-24 14 -53 14c-45 0 -55 -30 -55 -101v-105h168v192h177v-192h108v-135h-108v-162c0 -48 12 -71 40 -71c23 0 44 16 44 16l44 -143s-57 -32 -130 -32c-141 0 -175 105 -175 196v196h-168v-377h-177
v377h-74v135z" />
    <glyph glyph-name="fj" unicode="fj" horiz-adv-x="672" 
d="M16 512h74v110c1 150 71 253 211 253c138 0 231 -83 231 -83l-62 -125s-64 52 -117 52c-70 0 -86 -31 -86 -102v-105h345v-591c0 -91 -44 -196 -185 -196c-84 0 -116 21 -141 32l55 143s23 -15 45 -15c30 0 49 22 49 70v422h-168v-377h-177v377h-74v135z" />
    <glyph glyph-name="fft" unicode="fft" horiz-adv-x="1115" 
d="M36 512h74v110c1 150 73 253 201 253c90 0 146 -46 146 -46l-62 -125s-24 14 -53 14c-45 0 -55 -30 -55 -101v-105h178v110c1 150 73 253 201 253c90 0 146 -46 146 -46l-62 -125s-24 14 -53 14c-45 0 -55 -30 -55 -101v-105h168v192h177v-192h108v-135h-108v-162
c0 -48 12 -71 40 -71c23 0 44 16 44 16l44 -143s-57 -32 -130 -32c-141 0 -175 105 -175 196v196h-168v-377h-177v377h-178v-377h-177v377h-74v135z" />
    <glyph glyph-name="ffj" unicode="ffj" horiz-adv-x="1047" 
d="M36 512h74v110c1 150 73 253 201 253c90 0 146 -46 146 -46l-62 -125s-24 14 -53 14c-45 0 -55 -30 -55 -101v-105h178v110c1 150 71 253 211 253c138 0 231 -83 231 -83l-62 -125s-64 52 -117 52c-70 0 -86 -31 -86 -102v-105h345v-591c0 -91 -44 -196 -185 -196
c-84 0 -116 21 -141 32l55 143s23 -15 45 -15c30 0 49 22 49 70v422h-168v-377h-177v377h-178v-377h-177v377h-74v135z" />
    <glyph glyph-name=".notdef" horiz-adv-x="342" 
 />
    <glyph glyph-name="NULL" horiz-adv-x="0" 
 />
    <glyph glyph-name="NULL" horiz-adv-x="0" 
 />
    <glyph glyph-name="CR" unicode="&#xd;" horiz-adv-x="273" 
 />
    <glyph glyph-name="space" unicode=" " horiz-adv-x="273" 
 />
    <glyph glyph-name="numbersign" unicode="#" horiz-adv-x="833" 
d="M68 607h147l27 218h121l-27 -218h171l27 218h121l-27 -218h102v-121h-116l-18 -146h134v-121h-149l-26 -219h-121l26 219h-171l-26 -219h-121l26 219h-100v121h115l18 146h-133v121zM322 486l-18 -146h171l18 146h-171z" />
    <glyph glyph-name="dollar" unicode="$" horiz-adv-x="672" 
d="M23 94l94 158s110 -93 202 -93c41 0 119 4 119 81c0 60 -88 87 -186 136c-99 49 -157 126 -157 212c0 132 100 223 212 247v128h108v-125c122 -15 205 -76 205 -76l-76 -150s-82 58 -167 58c-64 0 -98 -30 -98 -75c0 -46 78 -79 172 -119c92 -39 193 -117 193 -225
c0 -163 -103 -239 -229 -259v-130h-108v124c-178 9 -284 108 -284 108z" />
    <glyph glyph-name="percent" unicode="%" horiz-adv-x="981" 
d="M23 643c0 116 97 197 223 197c122 0 219 -81 219 -197c0 -114 -91 -197 -219 -197c-135 0 -223 83 -223 197zM193 0l480 825h118l-480 -825h-118zM152 643c0 -54 38 -91 92 -91c51 0 90 37 90 91s-40 93 -90 93c-51 0 -92 -39 -92 -93zM516 182c0 114 88 197 223 197
c128 0 219 -83 219 -197c0 -116 -97 -197 -219 -197c-126 0 -223 81 -223 197zM645 182c0 -54 41 -93 92 -93c50 0 90 39 90 93s-39 91 -90 91c-54 0 -92 -37 -92 -91z" />
    <glyph glyph-name="ampersand" unicode="&#x26;" horiz-adv-x="833" 
d="M29 217c0 103 104 174 201 225c-48 60 -83 118 -83 183c0 128 92 215 263 215c165 0 245 -112 245 -215c0 -124 -163 -203 -163 -203l110 -114s36 16 121 104l116 -114s-56 -64 -117 -113l178 -185h-237l-82 85c-72 -51 -138 -101 -265 -101c-122 0 -287 50 -287 233z
M338 625c0 -48 60 -101 60 -101c42 23 92 57 92 101s-19 82 -80 82c-51 0 -72 -38 -72 -82zM242 232c0 -48 49 -69 93 -69c68 0 124 47 124 47l-131 129s-86 -31 -86 -107z" />
    <glyph glyph-name="quotesingle" unicode="'" horiz-adv-x="290" 
d="M60 840h170l-32 -365h-106z" />
    <glyph glyph-name="quotedbl" unicode="&#x22;" horiz-adv-x="513" 
d="M60 840h170l-32 -366h-106zM283 840h170l-32 -366h-106z" />
    <glyph glyph-name="parenleft" unicode="(" horiz-adv-x="403" 
d="M55 307c0 351 175 568 175 568l115 -49s-127 -171 -127 -519s127 -518 127 -518l-115 -49s-175 216 -175 567z" />
    <glyph glyph-name="parenright" unicode=")" horiz-adv-x="403" 
d="M348 307c0 -351 -175 -567 -175 -567l-115 49s127 170 127 518s-127 519 -127 519l115 49s175 -217 175 -568z" />
    <glyph glyph-name="asterisk" unicode="*" horiz-adv-x="488" 
d="M200 860h88v-117l114 35l26 -80l-114 -41l66 -99l-66 -45l-70 91l-70 -91l-66 45l66 99l-114 41l26 80l114 -35v117z" />
    <glyph glyph-name="plus" unicode="+" horiz-adv-x="632" 
d="M240 671h152v-180h180v-152h-180v-180h-152v180h-180v152h180v180z" />
    <glyph glyph-name="minus" unicode="&#x2212;" horiz-adv-x="632" 
d="M60 491h512v-153h-512v153z" />
    <glyph glyph-name="multiply" unicode="&#xd7;" horiz-adv-x="632" 
d="M468 675l108 -107l-152 -153l152 -152l-108 -109l-152 153l-152 -153l-108 109l152 152l-152 153l108 107l152 -152z" />
    <glyph glyph-name="divide" unicode="&#xf7;" horiz-adv-x="632" 
d="M315 720c45 0 82 -37 82 -82s-37 -80 -82 -80s-80 35 -80 80s35 82 80 82zM60 491h512v-153h-512v153zM315 271c45 0 82 -37 82 -82s-37 -80 -82 -80s-80 35 -80 80s35 82 80 82z" />
    <glyph glyph-name="less" unicode="&#x3c;" horiz-adv-x="662" 
d="M60 475l547 222v-142l-358 -139l358 -139v-142l-547 222v118z" />
    <glyph glyph-name="equal" unicode="=" horiz-adv-x="632" 
d="M60 611h512v-153h-512v153zM60 371h512v-153h-512v153z" />
    <glyph glyph-name="greater" unicode="&#x3e;" horiz-adv-x="662" 
d="M55 697l547 -222v-118l-547 -222v142l358 139l-358 139v142z" />
    <glyph glyph-name="plusminus" unicode="&#xb1;" horiz-adv-x="632" 
d="M240 670h152v-155h180v-152h-180v-155h-152v155h-180v152h180v155zM60 153h512v-153h-512v153z" />
    <glyph glyph-name="notequal" unicode="&#x2260;" horiz-adv-x="633" 
d="M60 611h289l84 144h118l-84 -144h105v-153h-194l-50 -87h244v-153h-333l-86 -148h-118l86 148h-61v153h150l50 87h-200v153z" />
    <glyph glyph-name="lessequal" unicode="&#x2264;" horiz-adv-x="667" 
d="M60 153h547v-153h-547v153zM60 603l547 222v-142l-358 -139l358 -139v-142l-547 222v118z" />
    <glyph glyph-name="greaterequal" unicode="&#x2265;" horiz-adv-x="667" 
d="M60 153h547v-153h-547v153zM60 825l547 -222v-118l-547 -222v142l358 139l-358 139v142z" />
    <glyph glyph-name="fraction" unicode="&#x2044;" horiz-adv-x="264" 
d="M-167 0l480 825h118l-480 -825h-118z" />
    <glyph glyph-name="comma" unicode="," horiz-adv-x="349" 
d="M174 214c64 0 115 -51 115 -115c0 -121 -86 -219 -168 -287l-51 42s60 57 76 140c-49 12 -86 52 -86 105c0 64 51 115 114 115z" />
    <glyph glyph-name="hyphen" unicode="-" horiz-adv-x="442" 
d="M60 366h322v-153h-322v153z" />
    <glyph glyph-name="period" unicode="." horiz-adv-x="349" 
d="M174 213c64 0 115 -51 115 -115c0 -63 -51 -114 -115 -114c-63 0 -114 51 -114 114c0 64 51 115 114 115z" />
    <glyph glyph-name="slash" unicode="/" horiz-adv-x="611" 
d="M23 -120l412 980h153l-412 -980h-153z" />
    <glyph glyph-name="zero" unicode="0" horiz-adv-x="726" 
d="M698 412c0 -286 -158 -428 -335 -428s-335 142 -335 428s158 428 335 428s335 -142 335 -428zM508 412c0 166 -55 263 -145 263s-145 -97 -145 -263s55 -263 145 -263s145 97 145 263z" />
    <glyph glyph-name="one" unicode="1" horiz-adv-x="383" 
d="M-1 825h324v-825h-188v640h-136v185z" />
    <glyph glyph-name="two" unicode="2" horiz-adv-x="753" 
d="M59 600c0 0 80 241 304 241c283 0 320 -187 320 -291c0 -193 -291 -385 -291 -385h306v-165h-643v107s425 291 425 443c0 83 -41 132 -117 132c-90 0 -147 -158 -147 -158z" />
    <glyph glyph-name="three" unicode="3" horiz-adv-x="665" 
d="M57 659c0 0 42 182 273 182c157 0 271 -101 271 -241c0 -68 -28 -120 -73 -155c64 -39 105 -102 105 -189c0 -158 -129 -271 -306 -271c-254 0 -310 203 -310 203l174 85s11 -126 135 -126c69 0 119 39 119 109c0 71 -53 121 -119 121c-20 0 -36 -6 -36 -6v123h41
c50 0 99 44 99 104c0 53 -49 92 -102 92c-104 0 -123 -103 -123 -103z" />
    <glyph glyph-name="four" unicode="4" horiz-adv-x="666" 
d="M-25 174v56l396 595h186v-486h96v-165h-96v-174h-176v174h-406zM232 339h149v235z" />
    <glyph glyph-name="five" unicode="5" horiz-adv-x="641" 
d="M144 825h421v-165h-260l-18 -115c7 0 15 1 23 1c156 -1 308 -61 308 -290c0 -158 -129 -272 -306 -272c-176 0 -263 95 -294 179l149 72c15 -51 59 -94 145 -94c68 0 118 51 118 121c0 109 -107 145 -214 145c-69 0 -116 -15 -141 -26z" />
    <glyph glyph-name="six" unicode="6" horiz-adv-x="689" 
d="M27 264c0 145 44 212 130 329l194 232h232l-243 -284s21 12 59 12c113 0 263 -97 263 -289c0 -195 -157 -280 -306 -280c-185 0 -329 122 -329 280zM222 264c0 -72 52 -125 125 -125s127 53 127 125c0 74 -56 128 -127 128c-69 0 -125 -54 -125 -128z" />
    <glyph glyph-name="seven" unicode="7" horiz-adv-x="688" 
d="M80 825h633v-55l-436 -770h-222l380 660h-355v165z" />
    <glyph glyph-name="eight" unicode="8" horiz-adv-x="686" 
d="M343 -16c-160 0 -308 99 -308 238c0 113 61 185 144 223c-63 36 -109 96 -109 187c0 122 137 208 273 208s273 -86 273 -208c0 -91 -46 -151 -109 -187c83 -38 144 -110 144 -223c0 -139 -148 -238 -308 -238zM343 146c62 0 104 45 104 106c0 62 -45 105 -104 105
s-104 -43 -104 -105c0 -61 42 -106 104 -106zM250 605c0 -55 42 -92 93 -92s93 37 93 92c0 53 -40 93 -93 93s-93 -40 -93 -93z" />
    <glyph glyph-name="nine" unicode="9" horiz-adv-x="689" 
d="M27 560c0 195 157 281 306 281c185 0 329 -123 329 -281c0 -145 -44 -212 -130 -329l-194 -231h-232l243 283s-21 -12 -59 -12c-113 0 -263 97 -263 289zM215 560c0 -74 56 -128 127 -128c69 0 125 54 125 128c0 72 -52 125 -125 125s-127 -53 -127 -125z" />
    <glyph glyph-name="colon" unicode=":" horiz-adv-x="349" 
d="M174 554c64 0 115 -51 115 -115c0 -63 -51 -114 -115 -114c-63 0 -114 51 -114 114c0 64 51 115 114 115zM174 213c64 0 115 -51 115 -115c0 -63 -51 -114 -115 -114c-63 0 -114 51 -114 114c0 64 51 115 114 115z" />
    <glyph glyph-name="semicolon" unicode=";" horiz-adv-x="349" 
d="M174 554c64 0 115 -51 115 -115c0 -63 -51 -114 -115 -114c-63 0 -114 51 -114 114c0 64 51 115 114 115zM174 214c64 0 115 -51 115 -115c0 -121 -86 -219 -168 -287l-51 42s60 57 76 140c-49 12 -86 52 -86 105c0 64 51 115 114 115z" />
    <glyph glyph-name="exclam" unicode="!" horiz-adv-x="349" 
d="M86 860h177l-24 -590h-129zM174 213c64 0 115 -51 115 -115c0 -63 -51 -114 -115 -114c-63 0 -114 51 -114 114c0 64 51 115 114 115z" />
    <glyph glyph-name="question" unicode="?" horiz-adv-x="596" 
d="M291 213c64 0 115 -51 115 -115c0 -63 -51 -114 -115 -114c-63 0 -114 51 -114 114c0 64 51 115 114 115zM23 632c18 94 97 208 272 208c201 0 276 -152 276 -250c0 -83 -55 -206 -197 -240v-80h-165v236c25 -6 45 -8 86 -8c87 0 109 62 109 92c0 31 -22 93 -109 93
c-88 0 -114 -45 -126 -83z" />
    <glyph glyph-name="at" unicode="@" horiz-adv-x="921" 
d="M23 413c0 254 206 427 450 427c234 0 426 -162 426 -398c0 -156 -105 -219 -203 -219c-54 0 -106 18 -139 46l-9 -13c-28 -31 -73 -54 -126 -54c-110 0 -189 89 -189 201c0 113 79 203 189 203c52 0 95 -18 126 -48v37h119v-209s3 -42 51 -42c43 0 62 24 62 98
c0 157 -133 267 -307 267c-170 0 -304 -133 -304 -296s137 -287 304 -287c132 0 187 68 187 68l116 -77s-87 -133 -303 -133c-244 0 -450 175 -450 429zM388 405c0 -46 33 -80 81 -80c45 0 79 34 79 80c0 47 -36 82 -79 82c-45 0 -81 -35 -81 -82z" />
    <glyph glyph-name="A" unicode="A" horiz-adv-x="784" 
d="M305 825h174l333 -825h-202l-61 165h-314l-61 -165h-202zM392 570l-93 -240h186z" />
    <glyph glyph-name="B" unicode="B" horiz-adv-x="666" 
d="M60 825h256c142 0 254 -53 254 -210c0 -76 -33 -141 -103 -177c103 -18 176 -75 176 -208c0 -136 -99 -230 -270 -230h-313v825zM248 680v-178h15c81 0 125 25 125 94c0 59 -43 84 -125 84h-15zM248 340v-195h59c89 0 138 27 138 92c0 76 -49 103 -138 103h-59z" />
    <glyph glyph-name="C" unicode="C" horiz-adv-x="753" 
d="M23 412c0 237 213 428 447 428c179 0 271 -76 271 -76l-80 -160s-66 51 -162 51c-189 0 -272 -133 -272 -243c0 -111 83 -243 272 -243c96 0 162 51 162 51l80 -160s-92 -76 -271 -76c-233 0 -447 192 -447 428z" />
    <glyph glyph-name="D" unicode="D" horiz-adv-x="738" 
d="M60 825h239c226 0 416 -173 416 -413c0 -241 -189 -412 -416 -412h-239v825zM248 657v-489h29c139 0 234 106 235 244c0 138 -95 245 -235 245h-29z" />
    <glyph glyph-name="E" unicode="E" horiz-adv-x="580" 
d="M60 825h472v-165h-284v-164h272v-165h-272v-166h284v-165h-472v825z" />
    <glyph glyph-name="F" unicode="F" horiz-adv-x="585" 
d="M60 825h477v-165h-289v-164h267v-165h-267v-331h-188v825z" />
    <glyph glyph-name="G" unicode="G" horiz-adv-x="829" 
d="M23 412c0 237 170 428 402 428c145 0 246 -54 318 -141l-123 -135c-48 77 -111 106 -184 106c-116 0 -210 -115 -210 -258c0 -140 94 -255 210 -255c85 0 179 54 179 155v4h-190v145h381v-145c0 -151 -140 -332 -381 -332c-222 0 -402 192 -402 428z" />
    <glyph glyph-name="H" unicode="H" horiz-adv-x="762" 
d="M60 825h188v-329h266v329h188v-825h-188v331h-266v-331h-188v825z" />
    <glyph glyph-name="I" unicode="I" horiz-adv-x="308" 
d="M60 825h188v-825h-188v825z" />
    <glyph glyph-name="J" unicode="J" horiz-adv-x="469" 
d="M231 825h188v-593c0 -162 -92 -248 -257 -248c-118 0 -193 79 -193 79l60 157s59 -56 107 -56c54 0 95 33 95 116v545z" />
    <glyph glyph-name="K" unicode="K" horiz-adv-x="787" 
d="M60 825h188v-337l283 337h228l-332 -391l384 -434h-259l-304 350v-350h-188v825z" />
    <glyph glyph-name="L" unicode="L" horiz-adv-x="565" 
d="M60 825h188v-660h284v-165h-472v825z" />
    <glyph glyph-name="M" unicode="M" horiz-adv-x="946" 
d="M90 825h200l183 -476l183 476h200l74 -825h-188l-39 489l-174 -484h-112l-174 484l-39 -489h-188z" />
    <glyph glyph-name="M.1" horiz-adv-x="956" 
d="M60 825h215l203 -476l203 476h215v-825h-188v429l-174 -424h-112l-174 424v-429h-188v825z" />
    <glyph glyph-name="N" unicode="N" horiz-adv-x="826" 
d="M60 825h188l330 -512v512h188v-825h-188l-330 512v-512h-188v825z" />
    <glyph glyph-name="O" unicode="O" horiz-adv-x="878" 
d="M23 412c0 241 188 428 416 428s416 -187 416 -428s-188 -428 -416 -428s-416 187 -416 428zM226 412c0 -123 68 -247 213 -247s213 124 213 247s-68 247 -213 247s-213 -124 -213 -247z" />
    <glyph glyph-name="P" unicode="P" horiz-adv-x="666" 
d="M60 825h301c161 0 282 -83 282 -254c0 -170 -121 -265 -282 -265h-113v-306h-188v825zM248 675v-219h53c74 0 144 25 144 109c0 85 -70 110 -144 110h-53z" />
    <glyph glyph-name="Q" unicode="Q" horiz-adv-x="867" 
d="M23 412c0 241 184 428 411 428c229 0 410 -187 410 -428c0 -86 -22 -165 -61 -231c27 -13 64 -27 113 -40l-83 -168c-61 23 -114 53 -151 79c-64 -44 -142 -68 -228 -68c-244 0 -411 187 -411 428zM226 412c0 -123 54 -238 208 -238c21 0 41 2 59 7
c-47 44 -84 89 -102 112l80 100s56 -62 140 -119c21 40 30 88 30 138c0 123 -61 239 -207 239c-145 0 -208 -116 -208 -239z" />
    <glyph glyph-name="Q.1" horiz-adv-x="867" 
d="M23 412c0 241 184 428 411 428c229 0 410 -187 410 -428c0 -197 -116 -358 -287 -414c19 0 79 -18 128 -18c85 0 124 54 124 54l59 -127s-53 -112 -184 -112c-123 0 -174 78 -301 78c-78 0 -122 -46 -122 -46l-45 68s72 93 132 93c-196 42 -325 212 -325 424zM226 412
c0 -123 54 -238 208 -238c150 0 207 115 207 238s-61 239 -207 239c-145 0 -208 -116 -208 -239z" />
    <glyph glyph-name="R" unicode="R" horiz-adv-x="716" 
d="M60 825h301c161 0 282 -83 282 -254c0 -129 -69 -215 -173 -249l269 -322h-239l-237 306h-15v-306h-188v825zM248 675v-219h53c74 0 144 25 144 109c0 85 -70 110 -144 110h-53z" />
    <glyph glyph-name="R.1" horiz-adv-x="720" 
d="M60 825h301c161 0 282 -83 282 -254c0 -129 -69 -215 -173 -249l108 -130c27 -33 46 -39 65 -39c27 0 46 15 46 15l54 -136s-46 -48 -136 -48c-105 0 -163 88 -163 88l-181 234h-15v-306h-188v825zM248 675v-219h53c74 0 144 25 144 109c0 85 -70 110 -144 110h-53z" />
    <glyph glyph-name="S" unicode="S" horiz-adv-x="672" 
d="M95 587c0 154 136 253 269 253c150 0 256 -79 256 -79l-76 -150s-82 58 -167 58c-64 0 -98 -30 -98 -75c0 -46 78 -79 172 -119c92 -39 193 -117 193 -225c0 -197 -150 -266 -311 -266c-193 0 -310 109 -310 109l94 158s110 -93 202 -93c41 0 119 4 119 81
c0 60 -88 87 -186 136c-99 49 -157 126 -157 212z" />
    <glyph glyph-name="T" unicode="T" horiz-adv-x="596" 
d="M8 825h580v-165h-196v-660h-188v660h-196v165z" />
    <glyph glyph-name="U" unicode="U" horiz-adv-x="744" 
d="M50 825h188v-478c0 -138 42 -178 134 -178s134 40 134 178v478h188v-533c0 -204 -112 -308 -322 -308s-322 104 -322 308v533z" />
    <glyph glyph-name="V" unicode="V" horiz-adv-x="784" 
d="M-28 825h212l208 -542l208 542h212l-346 -825h-148z" />
    <glyph glyph-name="W" unicode="W" horiz-adv-x="1096" 
d="M915 825h209l-235 -825h-209l-132 463l-132 -463h-209l-235 825h209l141 -566l155 566h142l155 -566z" />
    <glyph glyph-name="X" unicode="X" horiz-adv-x="800" 
d="M552 825h224l-260 -381l312 -444h-233l-195 281l-195 -281h-233l312 444l-260 381h224l152 -225z" />
    <glyph glyph-name="Y" unicode="Y" horiz-adv-x="740" 
d="M-28 825h226l172 -264l172 264h226l-304 -455v-370h-188v370z" />
    <glyph glyph-name="Z" unicode="Z" horiz-adv-x="769" 
d="M74 825h679l-409 -660h382v-165h-710l408 660h-350v165z" />
    <glyph glyph-name="bracketleft" unicode="[" horiz-adv-x="442" 
d="M60 860h322v-117h-169v-886h169v-117h-322v1120z" />
    <glyph glyph-name="backslash" unicode="\" horiz-adv-x="611" 
d="M23 860h153l412 -860h-153z" />
    <glyph glyph-name="bracketright" unicode="]" horiz-adv-x="442" 
d="M60 860h322v-1120h-322v117h169v886h-169v117z" />
    <glyph glyph-name="asciicircum" unicode="^" horiz-adv-x="496" 
d="M-5 605l207 236h92l207 -236h-161l-92 109l-92 -109h-161z" />
    <glyph glyph-name="underscore" unicode="_" horiz-adv-x="513" 
d="M0 -16h513v-85h-513v85z" />
    <glyph glyph-name="grave" unicode="`" horiz-adv-x="388" 
d="M47 725l91 115l203 -176l-56 -77z" />
    <glyph glyph-name="a" unicode="a" 
d="M24 256c0 150 104 272 254 272c69 0 126 -24 168 -65v49h180v-512h-180v55c-40 -41 -99 -71 -168 -71c-150 0 -254 122 -254 272zM212 256c0 -70 47 -121 119 -121c69 0 119 51 119 121c0 71 -53 121 -119 121c-67 0 -119 -50 -119 -121z" />
    <glyph glyph-name="a.1" horiz-adv-x="630" 
d="M226 151c0 -36 38 -60 85 -60s85 30 85 60s-38 56 -85 56s-85 -20 -85 -56zM50 136c0 92 67 165 183 165c85 0 134 -23 157 -39v37c0 56 -61 88 -112 88c-92 0 -139 -30 -139 -30l-56 121s64 50 195 50c128 0 292 -58 292 -234v-294h-180v21c-34 -19 -83 -37 -150 -37
c-107 0 -190 59 -190 152z" />
    <glyph glyph-name="b" unicode="b" 
d="M57 860h180v-397c42 41 99 65 168 65c150 0 254 -122 254 -272s-104 -272 -254 -272c-69 0 -128 30 -168 71v-55h-180v860zM233 256c0 -70 50 -121 119 -121c72 0 119 51 119 121c0 71 -52 121 -119 121c-66 0 -119 -50 -119 -121z" />
    <glyph glyph-name="c" unicode="c" horiz-adv-x="491" 
d="M23 256c0 151 135 272 284 272c114 0 172 -48 172 -48l-60 -121s-33 24 -86 24c-67 0 -122 -57 -122 -127c0 -71 55 -127 122 -127c53 0 86 24 86 24l60 -123s-58 -46 -172 -46c-148 0 -284 122 -284 272z" />
    <glyph glyph-name="d" unicode="d" 
d="M24 256c0 150 104 272 254 272c69 0 126 -24 168 -65v397h180v-860h-180v55c-40 -41 -99 -71 -168 -71c-150 0 -254 122 -254 272zM212 256c0 -70 47 -121 119 -121c69 0 119 51 119 121c0 71 -53 121 -119 121c-67 0 -119 -50 -119 -121z" />
    <glyph glyph-name="e" unicode="e" horiz-adv-x="603" 
d="M23 257c0 150 127 271 282 271c156 0 275 -92 275 -272c0 -7 0 -18 -1 -24h-372c0 -79 66 -107 111 -107c57 0 82 11 125 57l128 -64c-58 -97 -152 -134 -266 -134c-155 0 -282 124 -282 273zM212 330h195c-8 54 -45 83 -97 83c-61 0 -95 -36 -98 -83z" />
    <glyph glyph-name="f" unicode="f" horiz-adv-x="375" 
d="M16 512h74v110c1 150 73 253 201 253c90 0 146 -46 146 -46l-62 -125s-24 14 -53 14c-45 0 -55 -30 -55 -101v-105h118v-135h-118v-377h-177v377h-74v135z" />
    <glyph glyph-name="g" unicode="g" 
d="M212 256c0 -70 47 -121 119 -121c69 0 119 51 119 121c0 71 -53 121 -119 121c-67 0 -119 -50 -119 -121zM446 -1v56c-40 -41 -99 -71 -168 -71c-150 0 -254 122 -254 272s104 272 254 272c69 0 126 -24 168 -65v49h180v-526c0 -172 -128 -261 -303 -261
c-107 0 -230 24 -284 149l145 71c19 -31 62 -66 139 -66c48 0 123 29 123 120z" />
    <glyph glyph-name="h" unicode="h" horiz-adv-x="661" 
d="M60 860h177v-401c42 40 93 69 149 69c94 0 225 -47 225 -190v-338h-177v290c0 51 -35 100 -92 100c-53 0 -105 -49 -105 -100v-290h-177v860z" />
    <glyph glyph-name="i" unicode="i" horiz-adv-x="296" 
d="M148 830c58 0 105 -47 105 -105s-47 -105 -105 -105s-105 47 -105 105s47 105 105 105zM60 512h176v-512h-176v512z" />
    <glyph glyph-name="j" unicode="j" horiz-adv-x="297" 
d="M151 830c58 0 105 -47 105 -105s-47 -105 -105 -105s-105 47 -105 105s47 105 105 105zM60 512h177v-591c0 -91 -44 -196 -185 -196c-84 0 -116 21 -141 32l55 143s23 -15 45 -15c30 0 49 22 49 70v557z" />
    <glyph glyph-name="j.1" horiz-adv-x="297" 
d="M151 830c58 0 105 -47 105 -105s-47 -105 -105 -105s-105 47 -105 105s47 105 105 105zM60 512h177v-772h-177v772z" />
    <glyph glyph-name="k" unicode="k" horiz-adv-x="646" 
d="M60 860h177v-527l179 179h230l-244 -245l268 -267h-228l-205 204v-204h-177v860z" />
    <glyph glyph-name="l" unicode="l" horiz-adv-x="298" 
d="M60 860h178v-860h-178v860z" />
    <glyph glyph-name="m" unicode="m" horiz-adv-x="985" 
d="M60 512h177v-53c42 40 93 69 149 69c68 0 143 -25 179 -94c54 65 114 94 170 94c94 0 200 -47 200 -190v-338h-177v290c0 51 -27 96 -90 96c-56 0 -82 -41 -82 -80v-306h-177v290c0 51 -27 96 -90 96c-59 0 -82 -45 -82 -86v-300h-177v512z" />
    <glyph glyph-name="n" unicode="n" horiz-adv-x="661" 
d="M60 512h177v-53c42 40 93 69 149 69c94 0 225 -47 225 -190v-338h-177v290c0 51 -35 100 -92 100c-53 0 -105 -49 -105 -100v-290h-177v512z" />
    <glyph glyph-name="o" unicode="o" horiz-adv-x="658" 
d="M23 256c0 160 133 272 306 272s306 -112 306 -272s-133 -272 -306 -272s-306 112 -306 272zM209 256c0 -71 53 -121 120 -121s120 50 120 121s-53 121 -120 121s-120 -50 -120 -121z" />
    <glyph glyph-name="p" unicode="p" 
d="M659 256c0 -150 -104 -272 -254 -272c-69 0 -128 30 -168 71v-315h-180v772h180v-49c42 41 99 65 168 65c150 0 254 -122 254 -272zM471 256c0 71 -52 121 -119 121c-66 0 -119 -50 -119 -121c0 -70 50 -121 119 -121c72 0 119 51 119 121z" />
    <glyph glyph-name="q" unicode="q" 
d="M24 256c0 150 104 272 254 272c69 0 126 -24 168 -65v49h180v-772h-180v315c-40 -41 -99 -71 -168 -71c-150 0 -254 122 -254 272zM212 256c0 -70 47 -121 119 -121c69 0 119 51 119 121c0 71 -53 121 -119 121c-67 0 -119 -50 -119 -121z" />
    <glyph glyph-name="r" unicode="r" horiz-adv-x="498" 
d="M61 512h176v-73s58 89 159 89c66 0 112 -32 112 -32l-74 -150s-33 28 -92 28c-92 0 -105 -91 -105 -104v-270h-176v512z" />
    <glyph glyph-name="s" unicode="s" horiz-adv-x="492" 
d="M283 528c99 0 172 -40 172 -40l-58 -116s-60 32 -114 32c-39 0 -55 -7 -55 -31c0 -25 31 -34 80 -49c68 -21 156 -60 156 -165c0 -151 -138 -175 -243 -175c-124 0 -198 69 -198 69l72 121s70 -59 127 -59c25 0 55 3 55 37c0 37 -56 41 -114 71c-52 27 -104 63 -104 140
c0 105 89 165 224 165z" />
    <glyph glyph-name="t" unicode="t" horiz-adv-x="395" 
d="M16 512h74v192h177v-192h108v-135h-108v-163c0 -48 12 -71 40 -71c23 0 44 16 44 16l44 -143s-57 -32 -130 -32c-141 0 -175 105 -175 196v197h-74v135z" />
    <glyph glyph-name="t.1" horiz-adv-x="297" 
d="M60 704h177v-192h108v-135h-108v-377h-177v377h-74v135h74v192z" />
    <glyph glyph-name="u" unicode="u" horiz-adv-x="656" 
d="M50 512h177v-245c0 -101 27 -139 101 -139s101 38 101 139v245h177v-288c0 -172 -86 -240 -278 -240s-278 68 -278 240v288z" />
    <glyph glyph-name="u.1" horiz-adv-x="661" 
d="M50 512h177v-290c0 -51 35 -100 92 -100c53 0 105 49 105 100v290h177v-512h-177v53c-42 -40 -93 -69 -149 -69c-94 0 -225 47 -225 190v338z" />
    <glyph glyph-name="v" unicode="v" horiz-adv-x="630" 
d="M-20 512h210l125 -279l125 279h210l-275 -512h-120z" />
    <glyph glyph-name="w" unicode="w" horiz-adv-x="986" 
d="M-20 512h204l125 -277l123 277h122l123 -277l125 277h204l-275 -512h-120l-118 264l-118 -264h-120z" />
    <glyph glyph-name="x" unicode="x" horiz-adv-x="634" 
d="M21 512h207l89 -119l89 119h207l-188 -243l219 -269h-214l-113 145l-113 -145h-214l219 269z" />
    <glyph glyph-name="y" unicode="y" horiz-adv-x="633" 
d="M-20 512h204l143 -262l122 262h204l-403 -772h-204l177 340z" />
    <glyph glyph-name="z" unicode="z" horiz-adv-x="561" 
d="M47 512h509l-254 -377h234v-135h-531l254 377h-212v135z" />
    <glyph glyph-name="braceleft" unicode="{" horiz-adv-x="446" 
d="M60 347c43 0 70 19 70 65v267c0 83 31 181 159 181h97v-128h-40c-35 0 -63 -28 -63 -68v-257c0 -57 -27 -89 -61 -107c34 -18 61 -51 61 -107v-257c0 -40 28 -68 63 -68h40v-128h-97c-128 0 -159 98 -159 181v267c0 46 -27 65 -70 65v94z" />
    <glyph glyph-name="bar" unicode="|" horiz-adv-x="273" 
d="M60 860h153v-860h-153v860z" />
    <glyph glyph-name="braceright" unicode="}" horiz-adv-x="446" 
d="M60 860h97c128 0 159 -98 159 -181v-267c0 -46 27 -65 70 -65v-94c-43 0 -70 -19 -70 -65v-267c0 -83 -31 -181 -159 -181h-97v128h40c35 0 63 28 63 68v257c0 56 27 89 61 107c-34 18 -61 50 -61 107v257c0 40 -28 68 -63 68h-40v128z" />
    <glyph glyph-name="asciitilde" unicode="~" horiz-adv-x="694" 
d="M60 391c0 0 65 137 177 137c64 0 105 -26 149 -54c24 -16 49 -31 71 -31c58 0 84 78 84 78l93 -82s-65 -137 -177 -137c-64 0 -106 26 -147 53c-24 16 -49 32 -73 32c-58 0 -84 -78 -84 -78z" />
    <glyph glyph-name="exclamdown" unicode="&#xa1;" horiz-adv-x="349" 
d="M263 -260h-177l24 590h129zM174 387c-63 0 -114 51 -114 115c0 63 51 114 114 114c64 0 115 -51 115 -114c0 -64 -51 -115 -115 -115z" />
    <glyph glyph-name="cent" unicode="&#xa2;" horiz-adv-x="491" 
d="M218 636h108v-108c101 -5 153 -48 153 -48l-60 -121s-33 24 -86 24c-67 0 -122 -56 -122 -126c0 -71 55 -127 122 -127c53 0 86 24 86 24l60 -123s-43 -32 -123 -43v-117h-108v121c-123 26 -225 133 -225 263c0 120 85 222 195 258v123z" />
    <glyph glyph-name="sterling" unicode="&#xa3;" horiz-adv-x="749" 
d="M55 387h102c-28 44 -52 96 -52 171c0 156 96 283 281 283c234 0 274 -190 274 -190l-158 -77s-19 115 -116 115c-62 0 -95 -55 -95 -131c0 -82 26 -122 48 -171h173v-98h-137c2 -14 3 -29 3 -46c0 -47 -28 -81 -28 -81c16 0 83 -33 157 -33c57 0 67 72 67 72l137 -68
s-23 -148 -183 -148c-124 0 -217 58 -311 58c-41 0 -47 -43 -47 -43h-115c0 54 56 178 146 178c13 19 16 35 16 58c0 19 -5 36 -12 53h-150v98z" />
    <glyph glyph-name="yen" unicode="&#xa5;" horiz-adv-x="764" 
d="M-16 825h226l172 -264l172 264h226l-260 -389h168v-133h-212v-60h212v-133h-212v-110h-188v110h-213v133h213v60h-213v133h169z" />
    <glyph glyph-name="brokenbar" unicode="&#xa6;" horiz-adv-x="273" 
d="M60 860h153v-332h-153v332zM60 332h153v-332h-153v332z" />
    <glyph glyph-name="section" unicode="&#xa7;" horiz-adv-x="640" 
d="M23 276c4 75 51 143 134 180c-60 43 -89 93 -89 175c0 108 78 209 258 209c213 0 241 -179 241 -179l-160 -34s-5 65 -81 65c-42 0 -63 -24 -63 -55c0 -40 65 -70 152 -110c121 -57 197 -124 197 -238c-4 -75 -51 -143 -134 -180c59 -44 89 -94 89 -175
c0 -86 -59 -209 -279 -209c-233 0 -265 191 -265 191l160 34s23 -77 105 -77c61 0 82 26 82 55c0 41 -63 70 -150 110c-121 57 -197 124 -197 238zM187 305c3 -49 72 -82 132 -110c6 -3 12 -5 17 -8l23 -11c43 11 86 35 89 84c-3 49 -72 82 -132 110c-6 3 -12 5 -17 8
l-24 11c-42 -12 -85 -36 -88 -84z" />
    <glyph glyph-name="dieresis" unicode="&#xa8;" horiz-adv-x="562" 
d="M162 791c51 0 92 -41 92 -92s-41 -92 -92 -92s-92 41 -92 92s41 92 92 92zM400 791c51 0 92 -41 92 -92s-41 -92 -92 -92s-92 41 -92 92s41 92 92 92z" />
    <glyph glyph-name="copyright" unicode="&#xa9;" horiz-adv-x="901" 
d="M23 412c0 236 192 428 427 428c236 0 428 -192 428 -428c0 -235 -192 -427 -428 -427c-235 0 -427 192 -427 427zM137 412c0 -172 141 -313 313 -313c173 0 314 141 314 313c0 173 -141 314 -314 314c-172 0 -313 -141 -313 -314zM251 413c0 117 105 211 218 211
c85 0 128 -32 131 -35l-43 -89s-34 16 -67 16c-54 0 -98 -45 -98 -101c0 -58 44 -102 98 -102c38 0 61 13 66 16c15 -32 29 -58 44 -90c0 0 -54 -33 -131 -33c-113 0 -218 92 -218 207z" />
    <glyph glyph-name="ordfeminine" unicode="&#xaa;" horiz-adv-x="512" 
d="M70 672c0 93 65 168 158 168c43 0 78 -15 104 -40v30h111v-316h-111v34c-25 -25 -61 -44 -104 -44c-93 0 -158 75 -158 168zM187 672c0 -43 29 -75 74 -75c42 0 73 32 73 75c0 44 -32 75 -73 75c-42 0 -74 -31 -74 -75z" />
    <glyph glyph-name="guillemotleft" unicode="&#xab;" horiz-adv-x="625" 
d="M228 528l93 -73l-138 -177l138 -177l-93 -73l-195 250zM478 528l93 -73l-138 -177l138 -177l-93 -73l-195 250z" />
    <glyph glyph-name="registered" unicode="&#xae;" horiz-adv-x="494" 
d="M23 615c0 124 101 225 223 225c125 0 225 -101 225 -225c0 -123 -100 -223 -225 -223c-122 0 -223 100 -223 223zM83 615c0 -90 74 -163 163 -163c92 0 165 73 165 163c0 91 -73 165 -165 165c-89 0 -163 -74 -163 -165zM178 722h77c41 0 72 -21 72 -65
c0 -32 -18 -54 -44 -63l68 -82h-61l-60 78h-4v-78h-48v210zM226 684v-56h14c19 0 36 6 36 28c0 21 -17 28 -36 28h-14z" />
    <glyph glyph-name="macron" unicode="&#xaf;" horiz-adv-x="548" 
d="M70 754h408v-120h-408v120z" />
    <glyph glyph-name="degree" unicode="&#xb0;" horiz-adv-x="372" 
d="M70 772c0 61 51 103 116 103s116 -42 116 -103c0 -60 -48 -103 -116 -103c-69 0 -116 43 -116 103zM143 772c0 -25 17 -46 43 -46c25 0 44 21 44 46c0 26 -19 45 -44 45c-24 0 -43 -19 -43 -45z" />
    <glyph glyph-name="onesuperior" unicode="&#xb9;" horiz-adv-x="140" 
d="M9 825h122v-312h-71v241h-51v71z" />
    <glyph glyph-name="twosuperior" unicode="&#xb2;" horiz-adv-x="267" 
d="M34 747c0 0 31 94 119 94c110 0 125 -73 125 -113c0 -76 -114 -151 -114 -151h119v-64h-251v42s166 113 166 173c0 11 -2 51 -45 51c-35 0 -58 -62 -58 -62z" />
    <glyph glyph-name="threesuperior" unicode="&#xb3;" horiz-adv-x="253" 
d="M25 771c0 0 16 69 104 69c61 0 104 -38 104 -92c0 -26 -10 -46 -28 -59c25 -15 41 -39 41 -72c0 -61 -50 -104 -118 -104c-97 0 -118 78 -118 78l66 32s4 -48 52 -48c26 0 45 15 45 42s-20 46 -45 46c-8 0 -14 -2 -14 -2v47h16c19 0 38 17 38 39c0 21 -19 36 -39 36
c-40 0 -47 -40 -47 -40z" />
    <glyph glyph-name="acute" unicode="&#xb4;" horiz-adv-x="566" 
d="M136 664l203 176l91 -115l-238 -138z" />
    <glyph glyph-name="mu" unicode="&#xb5;" horiz-adv-x="691" 
d="M80 512h177v-290c0 -51 35 -100 92 -100c53 0 105 49 105 100v290h177v-512h-177v53c-42 -40 -93 -69 -149 -69c-15 0 -32 2 -48 4v-148h-207c0 113 30 201 30 369v303z" />
    <glyph glyph-name="paragraph" unicode="&#xb6;" horiz-adv-x="708" 
d="M23 571c0 141 101 254 262 254h363v-825h-103v721h-61v-721h-103v306h-96c-161 0 -262 125 -262 265z" />
    <glyph glyph-name="periodcentered" unicode="&#xb7;" horiz-adv-x="349" 
d="M174 384c64 0 115 -51 115 -115c0 -63 -51 -114 -115 -114c-63 0 -114 51 -114 114c0 64 51 115 114 115z" />
    <glyph glyph-name="cedilla" unicode="&#xb8;" horiz-adv-x="446" 
d="M199 26l70 -22l-22 -67c55 0 129 -33 129 -102c0 -63 -41 -129 -152 -129c-90 0 -154 83 -154 83l72 54s36 -47 82 -47c37 0 50 20 50 39c0 31 -34 45 -62 45c-36 0 -51 -9 -51 -9l-10 8z" />
    <glyph glyph-name="ordmasculine" unicode="&#xba;" horiz-adv-x="521" 
d="M73 671c0 99 82 169 189 169c105 0 189 -70 189 -169c0 -97 -80 -169 -189 -169c-115 0 -189 72 -189 169zM190 671c0 -43 27 -75 72 -75c43 0 74 32 74 75c0 44 -33 75 -74 75s-72 -31 -72 -75z" />
    <glyph glyph-name="guillemotright" unicode="&#xbb;" horiz-adv-x="625" 
d="M54 455l93 73l195 -250l-195 -250l-93 73l138 177zM304 455l93 73l195 -250l-195 -250l-93 73l138 177z" />
    <glyph glyph-name="onequarter" unicode="&#xbc;" horiz-adv-x="876" 
d="M101 0l480 825h118l-480 -825h-118zM60 825h188v-480h-109v372h-79v108zM447 101v33l231 346h109v-283h55v-96h-55v-101h-103v101h-237zM597 197h87v137z" />
    <glyph glyph-name="onehalf" unicode="&#xbd;" horiz-adv-x="945" 
d="M101 0l480 825h118l-480 -825h-118zM60 825h188v-480h-109v372h-79v108zM537 344c0 0 46 138 174 138c162 0 183 -107 183 -167c0 -110 -167 -220 -167 -220h175v-95h-368v61s244 167 244 254c0 17 -4 76 -67 76c-52 0 -84 -91 -84 -91z" />
    <glyph glyph-name="threequarters" unicode="&#xbe;" horiz-adv-x="977" 
d="M202 0l480 825h118l-480 -825h-118zM548 101v33l231 346h109v-283h55v-96h-55v-101h-103v101h-237zM698 197h87v137zM49 725c0 0 24 103 155 103c89 0 154 -57 154 -136c0 -39 -16 -68 -42 -88c36 -22 60 -58 60 -108c0 -89 -73 -154 -174 -154c-144 0 -175 116 -175 116
l98 48s6 -72 77 -72c39 0 67 23 67 62c0 41 -30 69 -67 69c-12 0 -21 -3 -21 -3v69h24c28 0 56 25 56 60c0 30 -28 52 -58 52c-59 0 -70 -59 -70 -59z" />
    <glyph glyph-name="questiondown" unicode="&#xbf;" horiz-adv-x="596" 
d="M571 -67c-18 -94 -97 -208 -272 -208c-201 0 -276 152 -276 250c0 83 55 206 197 240v80h165v-236c-25 6 -45 8 -86 8c-87 0 -109 -62 -109 -92c0 -31 22 -93 109 -93c88 0 114 45 126 83zM303 581c64 0 115 -51 115 -115c0 -63 -51 -114 -115 -114
c-63 0 -114 51 -114 114c0 64 51 115 114 115z" />
    <glyph glyph-name="Agrave" unicode="&#xc0;" horiz-adv-x="784" 
d="M305 825h174l333 -825h-202l-61 165h-314l-61 -165h-202zM392 570l-93 -240h186zM154 1037l91 115l203 -176l-56 -77z" />
    <glyph glyph-name="Aacute" unicode="&#xc1;" horiz-adv-x="784" 
d="M305 825h174l333 -825h-202l-61 165h-314l-61 -165h-202zM392 570l-93 -240h186zM336 976l203 176l91 -115l-238 -138z" />
    <glyph glyph-name="Acircumflex" unicode="&#xc2;" horiz-adv-x="784" 
d="M305 825h174l333 -825h-202l-61 165h-314l-61 -165h-202zM392 570l-93 -240h186zM171 990l221 162l221 -162l-68 -91l-153 112l-153 -112z" />
    <glyph glyph-name="Atilde" unicode="&#xc3;" horiz-adv-x="784" 
d="M305 825h174l333 -825h-202l-61 165h-314l-61 -165h-202zM392 570l-93 -240h186zM105 1003c0 0 65 137 177 137c64 0 105 -26 149 -54c24 -16 49 -31 71 -31c58 0 84 78 84 78l93 -82s-65 -137 -177 -137c-64 0 -106 26 -147 53c-24 16 -49 32 -73 32
c-58 0 -84 -78 -84 -78z" />
    <glyph glyph-name="Adieresis" unicode="&#xc4;" horiz-adv-x="784" 
d="M305 825h174l333 -825h-202l-61 165h-314l-61 -165h-202zM392 570l-93 -240h186zM273 1103c51 0 92 -41 92 -92s-41 -92 -92 -92s-92 41 -92 92s41 92 92 92zM511 1103c51 0 92 -41 92 -92s-41 -92 -92 -92s-92 41 -92 92s41 92 92 92z" />
    <glyph glyph-name="Aring" unicode="&#xc5;" horiz-adv-x="784" 
d="M305 825h174l333 -825h-202l-61 165h-314l-61 -165h-202zM392 570l-93 -240h186zM231 1045c0 83 71 142 161 142c91 0 161 -59 161 -142c0 -84 -67 -143 -161 -143c-96 0 -161 59 -161 143zM331 1045c0 -35 25 -64 61 -64c35 0 61 29 61 64c0 34 -27 62 -61 62
c-33 0 -61 -28 -61 -62z" />
    <glyph glyph-name="AE" unicode="&#xc6;" horiz-adv-x="953" 
d="M345 825h560v-165h-284v-164h272v-165h-272v-166h284v-165h-472v165h-193l-70 -165h-202zM306 330h127v302z" />
    <glyph glyph-name="Ccedilla" unicode="&#xc7;" horiz-adv-x="754" 
d="M24 412c0 237 213 428 447 428c179 0 271 -76 271 -76l-80 -160s-66 51 -162 51c-189 0 -272 -133 -272 -243c0 -111 83 -243 272 -243c96 0 162 51 162 51l80 -160s-92 -76 -271 -76c-20 0 -40 1 -60 4l-17 -51c55 0 129 -33 129 -102c0 -63 -41 -129 -152 -129
c-90 0 -154 83 -154 83l72 54s36 -47 82 -47c37 0 50 20 50 39c0 31 -34 45 -62 45c-36 0 -51 -9 -51 -9l-10 8l41 126c-176 55 -315 217 -315 407z" />
    <glyph glyph-name="Egrave" unicode="&#xc8;" horiz-adv-x="580" 
d="M60 825h472v-165h-284v-164h272v-165h-272v-166h284v-165h-472v825zM119 1037l91 115l203 -176l-56 -77z" />
    <glyph glyph-name="Eacute" unicode="&#xc9;" horiz-adv-x="580" 
d="M60 825h472v-165h-284v-164h272v-165h-272v-166h284v-165h-472v825zM179 976l203 176l91 -115l-238 -138z" />
    <glyph glyph-name="Ecircumflex" unicode="&#xca;" horiz-adv-x="580" 
d="M60 825h472v-165h-284v-164h272v-165h-272v-166h284v-165h-472v825zM75 990l221 162l221 -162l-68 -91l-153 112l-153 -112z" />
    <glyph glyph-name="Edieresis" unicode="&#xcb;" horiz-adv-x="580" 
d="M60 825h472v-165h-284v-164h272v-165h-272v-166h284v-165h-472v825zM179 1103c51 0 92 -41 92 -92s-41 -92 -92 -92s-92 41 -92 92s41 92 92 92zM417 1103c51 0 92 -41 92 -92s-41 -92 -92 -92s-92 41 -92 92s41 92 92 92z" />
    <glyph glyph-name="Igrave" unicode="&#xcc;" horiz-adv-x="308" 
d="M60 825h188v-825h-188v825zM-84 1037l91 115l203 -176l-56 -77z" />
    <glyph glyph-name="Iacute" unicode="&#xcd;" horiz-adv-x="308" 
d="M60 825h188v-825h-188v825zM98 976l203 176l91 -115l-238 -138z" />
    <glyph glyph-name="Icircumflex" unicode="&#xce;" horiz-adv-x="308" 
d="M60 825h188v-825h-188v825zM-67 990l221 162l221 -162l-68 -91l-153 112l-153 -112z" />
    <glyph glyph-name="Idieresis" unicode="&#xcf;" horiz-adv-x="308" 
d="M60 825h188v-825h-188v825zM35 1103c51 0 92 -41 92 -92s-41 -92 -92 -92s-92 41 -92 92s41 92 92 92zM273 1103c51 0 92 -41 92 -92s-41 -92 -92 -92s-92 41 -92 92s41 92 92 92z" />
    <glyph glyph-name="Eth" unicode="&#xd0;" horiz-adv-x="738" 
d="M16 336v153h44v336h239c226 0 416 -173 416 -413c0 -241 -189 -412 -416 -412h-239v336h-44zM248 657v-168h147v-153h-147v-168h29c139 0 234 106 235 244c0 138 -95 245 -235 245h-29z" />
    <glyph glyph-name="Ntilde" unicode="&#xd1;" horiz-adv-x="826" 
d="M60 825h188l330 -512v512h188v-825h-188l-330 512v-512h-188v825zM126 1007c0 0 65 137 177 137c64 0 105 -26 149 -54c24 -16 49 -31 71 -31c58 0 84 78 84 78l93 -82s-65 -137 -177 -137c-64 0 -106 26 -147 53c-24 16 -49 32 -73 32c-58 0 -84 -78 -84 -78z" />
    <glyph glyph-name="Ograve" unicode="&#xd2;" horiz-adv-x="878" 
d="M262 1037l91 115l203 -176l-56 -77zM23 412c0 241 188 428 416 428s416 -187 416 -428s-188 -428 -416 -428s-416 187 -416 428zM226 412c0 -123 68 -247 213 -247s213 124 213 247s-68 247 -213 247s-213 -124 -213 -247z" />
    <glyph glyph-name="Oacute" unicode="&#xd3;" horiz-adv-x="878" 
d="M322 976l203 176l91 -115l-238 -138zM23 412c0 241 188 428 416 428s416 -187 416 -428s-188 -428 -416 -428s-416 187 -416 428zM226 412c0 -123 68 -247 213 -247s213 124 213 247s-68 247 -213 247s-213 -124 -213 -247z" />
    <glyph glyph-name="Ocircumflex" unicode="&#xd4;" horiz-adv-x="878" 
d="M218 990l221 162l221 -162l-68 -91l-153 112l-153 -112zM23 412c0 241 188 428 416 428s416 -187 416 -428s-188 -428 -416 -428s-416 187 -416 428zM226 412c0 -123 68 -247 213 -247s213 124 213 247s-68 247 -213 247s-213 -124 -213 -247z" />
    <glyph glyph-name="Otilde" unicode="&#xd5;" horiz-adv-x="878" 
d="M152 992c0 0 65 137 177 137c64 0 105 -26 149 -54c24 -16 49 -31 71 -31c58 0 84 78 84 78l93 -82s-65 -137 -177 -137c-64 0 -106 26 -147 53c-24 16 -49 32 -73 32c-58 0 -84 -78 -84 -78zM23 412c0 241 188 428 416 428s416 -187 416 -428s-188 -428 -416 -428
s-416 187 -416 428zM226 412c0 -123 68 -247 213 -247s213 124 213 247s-68 247 -213 247s-213 -124 -213 -247z" />
    <glyph glyph-name="Odieresis" unicode="&#xd6;" horiz-adv-x="878" 
d="M320 1103c51 0 92 -41 92 -92s-41 -92 -92 -92s-92 41 -92 92s41 92 92 92zM558 1103c51 0 92 -41 92 -92s-41 -92 -92 -92s-92 41 -92 92s41 92 92 92zM23 412c0 241 188 428 416 428s416 -187 416 -428s-188 -428 -416 -428s-416 187 -416 428zM226 412
c0 -123 68 -247 213 -247s213 124 213 247s-68 247 -213 247s-213 -124 -213 -247z" />
    <glyph glyph-name="Oslash" unicode="&#xd8;" horiz-adv-x="966" 
d="M111 412c0 241 188 428 416 428c74 0 144 -20 205 -55l54 68l112 -86l-58 -73c64 -74 103 -173 103 -282c0 -241 -188 -428 -416 -428c-75 0 -146 20 -207 56l-53 -67l-112 86l57 72c-63 74 -101 172 -101 281zM740 412c0 43 -9 86 -26 124l-279 -351
c26 -13 57 -20 92 -20c145 0 213 124 213 247zM314 412c0 -43 8 -85 24 -122l278 350c-25 12 -55 19 -89 19c-145 0 -213 -124 -213 -247z" />
    <glyph glyph-name="Ugrave" unicode="&#xd9;" horiz-adv-x="744" 
d="M50 825h188v-478c0 -138 42 -178 134 -178s134 40 134 178v478h188v-533c0 -204 -112 -308 -322 -308s-322 104 -322 308v533zM195 1037l91 115l203 -176l-56 -77z" />
    <glyph glyph-name="Uacute" unicode="&#xda;" horiz-adv-x="744" 
d="M50 825h188v-478c0 -138 42 -178 134 -178s134 40 134 178v478h188v-533c0 -204 -112 -308 -322 -308s-322 104 -322 308v533zM255 976l203 176l91 -115l-238 -138z" />
    <glyph glyph-name="Ucircumflex" unicode="&#xdb;" horiz-adv-x="744" 
d="M50 825h188v-478c0 -138 42 -178 134 -178s134 40 134 178v478h188v-533c0 -204 -112 -308 -322 -308s-322 104 -322 308v533zM151 990l221 162l221 -162l-68 -91l-153 112l-153 -112z" />
    <glyph glyph-name="Udieresis" unicode="&#xdc;" horiz-adv-x="744" 
d="M50 825h188v-478c0 -138 42 -178 134 -178s134 40 134 178v478h188v-533c0 -204 -112 -308 -322 -308s-322 104 -322 308v533zM253 1103c51 0 92 -41 92 -92s-41 -92 -92 -92s-92 41 -92 92s41 92 92 92zM491 1103c51 0 92 -41 92 -92s-41 -92 -92 -92s-92 41 -92 92
s41 92 92 92z" />
    <glyph glyph-name="Yacute" unicode="&#xdd;" horiz-adv-x="740" 
d="M-28 825h226l172 -264l172 264h226l-304 -455v-370h-188v370zM243 976l203 176l91 -115l-238 -138z" />
    <glyph glyph-name="Ydieresis" unicode="&#x178;" horiz-adv-x="740" 
d="M-28 825h226l172 -264l172 264h226l-304 -455v-370h-188v370zM251 1103c51 0 92 -41 92 -92s-41 -92 -92 -92s-92 41 -92 92s41 92 92 92zM489 1103c51 0 92 -41 92 -92s-41 -92 -92 -92s-92 41 -92 92s41 92 92 92z" />
    <glyph glyph-name="Thorn" unicode="&#xde;" horiz-adv-x="666" 
d="M60 825h188v-153h113c161 0 282 -83 282 -254c0 -170 -121 -265 -282 -265h-113v-153h-188v825zM248 522v-219h53c74 0 139 26 139 109c0 84 -65 110 -139 110h-53z" />
    <glyph glyph-name="germandbls" unicode="&#xdf;" horiz-adv-x="656" 
d="M90 622c0 150 119 253 253 253c154 0 258 -107 258 -245c0 -79 -39 -136 -100 -170c80 -37 132 -104 132 -205c0 -158 -129 -271 -307 -271v162c69 0 119 48 119 118c0 74 -43 125 -119 125v135c58 0 108 43 108 106c0 60 -33 96 -91 96c-34 0 -76 -31 -76 -90v-636h-177
v325h-66v135h66v162z" />
    <glyph glyph-name="agrave" unicode="&#xe0;" 
d="M24 256c0 150 104 272 254 272c69 0 126 -24 168 -65v49h180v-512h-180v55c-40 -41 -99 -71 -168 -71c-150 0 -254 122 -254 272zM212 256c0 -70 47 -121 119 -121c69 0 119 51 119 121c0 71 -53 121 -119 121c-67 0 -119 -50 -119 -121zM158 725l91 115l203 -176
l-56 -77z" />
    <glyph glyph-name="aacute" unicode="&#xe1;" 
d="M24 256c0 150 104 272 254 272c69 0 126 -24 168 -65v49h180v-512h-180v55c-40 -41 -99 -71 -168 -71c-150 0 -254 122 -254 272zM212 256c0 -70 47 -121 119 -121c69 0 119 51 119 121c0 71 -53 121 -119 121c-67 0 -119 -50 -119 -121zM198 664l203 176l91 -115
l-238 -138z" />
    <glyph glyph-name="acircumflex" unicode="&#xe2;" 
d="M24 256c0 150 104 272 254 272c69 0 126 -24 168 -65v49h180v-512h-180v55c-40 -41 -99 -71 -168 -71c-150 0 -254 122 -254 272zM212 256c0 -70 47 -121 119 -121c69 0 119 51 119 121c0 71 -53 121 -119 121c-67 0 -119 -50 -119 -121zM104 678l221 162l221 -162
l-68 -91l-153 112l-153 -112z" />
    <glyph glyph-name="atilde" unicode="&#xe3;" 
d="M24 256c0 150 104 272 254 272c69 0 126 -24 168 -65v49h180v-512h-180v55c-40 -41 -99 -71 -168 -71c-150 0 -254 122 -254 272zM212 256c0 -70 47 -121 119 -121c69 0 119 51 119 121c0 71 -53 121 -119 121c-67 0 -119 -50 -119 -121zM38 695c0 0 65 137 177 137
c64 0 105 -26 149 -54c24 -16 49 -31 71 -31c58 0 84 78 84 78l93 -82s-65 -137 -177 -137c-64 0 -106 26 -147 53c-24 16 -49 32 -73 32c-58 0 -84 -78 -84 -78z" />
    <glyph glyph-name="adieresis" unicode="&#xe4;" 
d="M24 256c0 150 104 272 254 272c69 0 126 -24 168 -65v49h180v-512h-180v55c-40 -41 -99 -71 -168 -71c-150 0 -254 122 -254 272zM212 256c0 -70 47 -121 119 -121c69 0 119 51 119 121c0 71 -53 121 -119 121c-67 0 -119 -50 -119 -121zM206 791c51 0 92 -41 92 -92
s-41 -92 -92 -92s-92 41 -92 92s41 92 92 92zM444 791c51 0 92 -41 92 -92s-41 -92 -92 -92s-92 41 -92 92s41 92 92 92z" />
    <glyph glyph-name="aring" unicode="&#xe5;" 
d="M24 256c0 150 104 272 254 272c69 0 126 -24 168 -65v49h180v-512h-180v55c-40 -41 -99 -71 -168 -71c-150 0 -254 122 -254 272zM212 256c0 -70 47 -121 119 -121c69 0 119 51 119 121c0 71 -53 121 -119 121c-67 0 -119 -50 -119 -121zM164 733c0 83 71 142 161 142
c91 0 161 -59 161 -142c0 -84 -67 -143 -161 -143c-96 0 -161 59 -161 143zM264 733c0 -35 25 -64 61 -64c35 0 61 29 61 64c0 34 -27 62 -61 62c-33 0 -61 -28 -61 -62z" />
    <glyph glyph-name="ae" unicode="&#xe6;" horiz-adv-x="966" 
d="M50 136c0 92 67 165 183 165c85 0 134 -23 157 -39v37c0 56 -61 88 -112 88c-92 0 -139 -30 -139 -30l-56 121s64 50 195 50c70 0 151 -18 210 -63c49 39 112 63 180 63c156 0 275 -92 275 -272c0 -7 0 -18 -1 -24h-372c0 -79 66 -107 111 -107c57 0 82 11 125 57
l128 -64c-58 -97 -152 -134 -266 -134c-76 0 -145 29 -196 77c-87 -51 -153 -77 -232 -77c-107 0 -190 59 -190 152zM226 151c0 -36 38 -60 85 -60s85 30 85 60s-38 56 -85 56s-85 -20 -85 -56zM575 330h195c-8 54 -45 83 -97 83c-61 0 -95 -36 -98 -83z" />
    <glyph glyph-name="ccedilla" unicode="&#xe7;" horiz-adv-x="490" 
d="M22 256c0 151 135 272 284 272c114 0 172 -48 172 -48l-60 -121s-33 24 -86 24c-67 0 -122 -57 -122 -127c0 -71 55 -127 122 -127c53 0 86 24 86 24l60 -123s-58 -46 -172 -46c-6 0 -13 0 -19 1l-15 -48c55 0 129 -33 129 -102c0 -63 -41 -129 -152 -129
c-90 0 -154 83 -154 83l72 54s36 -47 82 -47c37 0 50 20 50 39c0 31 -34 45 -62 45c-36 0 -51 -9 -51 -9l-10 8l39 121c-108 36 -193 137 -193 256z" />
    <glyph glyph-name="egrave" unicode="&#xe8;" horiz-adv-x="603" 
d="M23 257c0 150 127 271 282 271c156 0 275 -92 275 -272c0 -7 0 -18 -1 -24h-372c0 -79 66 -107 111 -107c57 0 82 11 125 57l128 -64c-58 -97 -152 -134 -266 -134c-155 0 -282 124 -282 273zM212 330h195c-8 54 -45 83 -97 83c-61 0 -95 -36 -98 -83zM138 725l91 115
l203 -176l-56 -77z" />
    <glyph glyph-name="eacute" unicode="&#xe9;" horiz-adv-x="603" 
d="M23 257c0 150 127 271 282 271c156 0 275 -92 275 -272c0 -7 0 -18 -1 -24h-372c0 -79 66 -107 111 -107c57 0 82 11 125 57l128 -64c-58 -97 -152 -134 -266 -134c-155 0 -282 124 -282 273zM212 330h195c-8 54 -45 83 -97 83c-61 0 -95 -36 -98 -83zM178 664l203 176
l91 -115l-238 -138z" />
    <glyph glyph-name="ecircumflex" unicode="&#xea;" horiz-adv-x="603" 
d="M23 257c0 150 127 271 282 271c156 0 275 -92 275 -272c0 -7 0 -18 -1 -24h-372c0 -79 66 -107 111 -107c57 0 82 11 125 57l128 -64c-58 -97 -152 -134 -266 -134c-155 0 -282 124 -282 273zM212 330h195c-8 54 -45 83 -97 83c-61 0 -95 -36 -98 -83zM84 678l221 162
l221 -162l-68 -91l-153 112l-153 -112z" />
    <glyph glyph-name="edieresis" unicode="&#xeb;" horiz-adv-x="603" 
d="M23 257c0 150 127 271 282 271c156 0 275 -92 275 -272c0 -7 0 -18 -1 -24h-372c0 -79 66 -107 111 -107c57 0 82 11 125 57l128 -64c-58 -97 -152 -134 -266 -134c-155 0 -282 124 -282 273zM212 330h195c-8 54 -45 83 -97 83c-61 0 -95 -36 -98 -83zM186 791
c51 0 92 -41 92 -92s-41 -92 -92 -92s-92 41 -92 92s41 92 92 92zM424 791c51 0 92 -41 92 -92s-41 -92 -92 -92s-92 41 -92 92s41 92 92 92z" />
    <glyph glyph-name="igrave" unicode="&#xec;" horiz-adv-x="296" 
d="M60 512h176v-512h-176v512zM-90 725l91 115l203 -176l-56 -77z" />
    <glyph glyph-name="iacute" unicode="&#xed;" horiz-adv-x="296" 
d="M60 512h176v-512h-176v512zM92 664l203 176l91 -115l-238 -138z" />
    <glyph glyph-name="icircumflex" unicode="&#xee;" horiz-adv-x="296" 
d="M60 512h176v-512h-176v512zM-73 678l221 162l221 -162l-68 -91l-153 112l-153 -112z" />
    <glyph glyph-name="idieresis" unicode="&#xef;" horiz-adv-x="296" 
d="M60 512h176v-512h-176v512zM29 791c51 0 92 -41 92 -92s-41 -92 -92 -92s-92 41 -92 92s41 92 92 92zM267 791c51 0 92 -41 92 -92s-41 -92 -92 -92s-92 41 -92 92s41 92 92 92z" />
    <glyph glyph-name="eth" unicode="&#xf0;" horiz-adv-x="684" 
d="M41 256c0 168 148 272 258 272c14 0 61 0 90 -16c-33 47 -75 85 -117 115l-83 -82l-77 77l62 62c-63 30 -111 41 -111 41l42 150s85 -19 188 -72l73 72l76 -78l-52 -52c134 -94 266 -247 266 -489c0 -158 -129 -272 -306 -272c-185 0 -309 114 -309 272zM229 256
c0 -70 48 -120 120 -120c69 0 119 50 119 120v5c-3 68 -55 116 -119 116c-67 0 -120 -50 -120 -121z" />
    <glyph glyph-name="ntilde" unicode="&#xf1;" horiz-adv-x="661" 
d="M60 512h177v-53c42 40 93 69 149 69c94 0 225 -47 225 -190v-338h-177v290c0 51 -35 100 -92 100c-53 0 -105 -49 -105 -100v-290h-177v512zM48 687c0 0 65 137 177 137c64 0 105 -26 149 -54c24 -16 49 -31 71 -31c58 0 84 78 84 78l93 -82s-65 -137 -177 -137
c-64 0 -106 26 -147 53c-24 16 -49 32 -73 32c-58 0 -84 -78 -84 -78z" />
    <glyph glyph-name="ograve" unicode="&#xf2;" horiz-adv-x="658" 
d="M162 725l91 115l203 -176l-56 -77zM23 256c0 160 133 272 306 272s306 -112 306 -272s-133 -272 -306 -272s-306 112 -306 272zM209 256c0 -71 53 -121 120 -121s120 50 120 121s-53 121 -120 121s-120 -50 -120 -121z" />
    <glyph glyph-name="oacute" unicode="&#xf3;" horiz-adv-x="658" 
d="M202 664l203 176l91 -115l-238 -138zM23 256c0 160 133 272 306 272s306 -112 306 -272s-133 -272 -306 -272s-306 112 -306 272zM209 256c0 -71 53 -121 120 -121s120 50 120 121s-53 121 -120 121s-120 -50 -120 -121z" />
    <glyph glyph-name="ocircumflex" unicode="&#xf4;" horiz-adv-x="658" 
d="M108 678l221 162l221 -162l-68 -91l-153 112l-153 -112zM23 256c0 160 133 272 306 272s306 -112 306 -272s-133 -272 -306 -272s-306 112 -306 272zM209 256c0 -71 53 -121 120 -121s120 50 120 121s-53 121 -120 121s-120 -50 -120 -121z" />
    <glyph glyph-name="otilde" unicode="&#xf5;" horiz-adv-x="661" 
d="M26 256c0 160 133 272 306 272c170 0 306 -112 306 -272c0 -158 -129 -272 -306 -272c-185 0 -306 114 -306 272zM212 256c0 -70 48 -121 120 -121c69 0 120 51 120 121c0 71 -54 121 -120 121c-67 0 -120 -50 -120 -121zM45 662c0 0 65 137 177 137
c64 0 105 -26 149 -54c24 -16 49 -31 71 -31c58 0 84 78 84 78l93 -82s-65 -137 -177 -137c-64 0 -106 26 -147 53c-24 16 -49 32 -73 32c-58 0 -84 -78 -84 -78z" />
    <glyph glyph-name="odieresis" unicode="&#xf6;" horiz-adv-x="661" 
d="M26 256c0 160 133 272 306 272c170 0 306 -112 306 -272c0 -158 -129 -272 -306 -272c-185 0 -306 114 -306 272zM212 256c0 -70 48 -121 120 -121c69 0 120 51 120 121c0 71 -54 121 -120 121c-67 0 -120 -50 -120 -121zM213 791c51 0 92 -41 92 -92s-41 -92 -92 -92
s-92 41 -92 92s41 92 92 92zM451 791c51 0 92 -41 92 -92s-41 -92 -92 -92s-92 41 -92 92s41 92 92 92z" />
    <glyph glyph-name="oslash" unicode="&#xf8;" horiz-adv-x="659" 
d="M24 256c0 160 133 272 306 272c78 0 148 -23 201 -63l90 73l45 -54l-84 -68c34 -44 54 -99 54 -160c0 -160 -133 -272 -306 -272c-79 0 -150 23 -203 63l-91 -73l-45 54l85 69c-33 44 -52 98 -52 159zM450 256c0 17 -3 32 -9 46l-181 -146c20 -14 44 -21 70 -21
c67 0 120 50 120 121zM210 256c0 -16 2 -31 7 -45l180 146c-19 13 -42 20 -67 20c-67 0 -120 -50 -120 -121z" />
    <glyph glyph-name="ugrave" unicode="&#xf9;" horiz-adv-x="656" 
d="M50 512h177v-245c0 -101 27 -139 101 -139s101 38 101 139v245h177v-288c0 -172 -86 -240 -278 -240s-278 68 -278 240v288zM161 725l91 115l203 -176l-56 -77z" />
    <glyph glyph-name="uacute" unicode="&#xfa;" horiz-adv-x="656" 
d="M50 512h177v-245c0 -101 27 -139 101 -139s101 38 101 139v245h177v-288c0 -172 -86 -240 -278 -240s-278 68 -278 240v288zM201 664l203 176l91 -115l-238 -138z" />
    <glyph glyph-name="ucircumflex" unicode="&#xfb;" horiz-adv-x="656" 
d="M50 512h177v-245c0 -101 27 -139 101 -139s101 38 101 139v245h177v-288c0 -172 -86 -240 -278 -240s-278 68 -278 240v288zM107 678l221 162l221 -162l-68 -91l-153 112l-153 -112z" />
    <glyph glyph-name="udieresis" unicode="&#xfc;" horiz-adv-x="656" 
d="M50 512h177v-245c0 -101 27 -139 101 -139s101 38 101 139v245h177v-288c0 -172 -86 -240 -278 -240s-278 68 -278 240v288zM209 791c51 0 92 -41 92 -92s-41 -92 -92 -92s-92 41 -92 92s41 92 92 92zM447 791c51 0 92 -41 92 -92s-41 -92 -92 -92s-92 41 -92 92
s41 92 92 92z" />
    <glyph glyph-name="yacute" unicode="&#xfd;" horiz-adv-x="633" 
d="M-20 512h204l143 -262l122 262h204l-403 -772h-204l177 340zM190 664l203 176l91 -115l-238 -138z" />
    <glyph glyph-name="ydieresis" unicode="&#xff;" horiz-adv-x="633" 
d="M-20 513h204l143 -263l122 263h204l-403 -773h-204l177 340zM208 791c51 0 92 -41 92 -92s-41 -92 -92 -92s-92 41 -92 92s41 92 92 92zM446 791c51 0 92 -41 92 -92s-41 -92 -92 -92s-92 41 -92 92s41 92 92 92z" />
    <glyph glyph-name="thorn" unicode="&#xfe;" 
d="M57 860h180v-397c42 41 99 65 168 65c150 0 254 -122 254 -272s-104 -272 -254 -272c-69 0 -128 30 -168 71v-315h-180v1120zM233 256c0 -70 50 -121 119 -121c72 0 119 51 119 121c0 71 -52 121 -119 121c-66 0 -119 -50 -119 -121z" />
    <glyph glyph-name="Amacron" unicode="&#x100;" horiz-adv-x="784" 
d="M305 825h174l333 -825h-202l-61 165h-314l-61 -165h-202zM392 570l-93 -240h186zM188 1066h408v-120h-408v120z" />
    <glyph glyph-name="amacron" unicode="&#x101;" 
d="M24 256c0 150 104 272 254 272c69 0 126 -24 168 -65v49h180v-512h-180v55c-40 -41 -99 -71 -168 -71c-150 0 -254 122 -254 272zM212 256c0 -70 47 -121 119 -121c69 0 119 51 119 121c0 71 -53 121 -119 121c-67 0 -119 -50 -119 -121zM121 754h408v-120h-408v120z" />
    <glyph glyph-name="Abreve" unicode="&#x102;" horiz-adv-x="784" 
d="M305 825h174l333 -825h-202l-61 165h-314l-61 -165h-202zM392 570l-93 -240h186zM161 1121l126 31s11 -103 105 -103s105 103 105 103l126 -31c-12 -107 -102 -181 -231 -181s-219 74 -231 181z" />
    <glyph glyph-name="abreve" unicode="&#x103;" 
d="M24 256c0 150 104 272 254 272c69 0 126 -24 168 -65v49h180v-512h-180v55c-40 -41 -99 -71 -168 -71c-150 0 -254 122 -254 272zM212 256c0 -70 47 -121 119 -121c69 0 119 51 119 121c0 71 -53 121 -119 121c-67 0 -119 -50 -119 -121zM94 809l126 31s11 -103 105 -103
s105 103 105 103l126 -31c-12 -107 -102 -181 -231 -181s-219 74 -231 181z" />
    <glyph glyph-name="Aogonek" unicode="&#x104;" horiz-adv-x="784" 
d="M549 -158c0 55 50 122 80 158h-19l-61 165h-314l-61 -165h-202l333 825h174l333 -825h-101s-59 -70 -59 -140c0 -25 20 -39 37 -39c31 0 51 30 51 30l72 -54s-45 -72 -137 -72c-52 0 -126 30 -126 117zM392 570l-93 -240h186z" />
    <glyph glyph-name="aogonek" unicode="&#x105;" 
d="M368 -158c0 55 50 122 80 158h-2v55c-40 -41 -99 -71 -168 -71c-150 0 -254 122 -254 272s104 272 254 272c69 0 126 -24 168 -65v49h180v-512h-96s-59 -70 -59 -140c0 -25 20 -39 37 -39c31 0 51 30 51 30l72 -54s-45 -72 -137 -72c-52 0 -126 30 -126 117zM212 256
c0 -70 47 -121 119 -121c69 0 119 51 119 121c0 71 -53 121 -119 121c-67 0 -119 -50 -119 -121z" />
    <glyph glyph-name="Cacute" unicode="&#x106;" horiz-adv-x="753" 
d="M23 412c0 237 213 428 447 428c179 0 271 -76 271 -76l-80 -160s-66 51 -162 51c-189 0 -272 -133 -272 -243c0 -111 83 -243 272 -243c96 0 162 51 162 51l80 -160s-92 -76 -271 -76c-233 0 -447 192 -447 428zM265 976l203 176l91 -115l-238 -138z" />
    <glyph glyph-name="cacute" unicode="&#x107;" horiz-adv-x="491" 
d="M23 256c0 151 135 272 284 272c114 0 172 -48 172 -48l-60 -121s-33 24 -86 24c-67 0 -122 -57 -122 -127c0 -71 55 -127 122 -127c53 0 86 24 86 24l60 -123s-58 -46 -172 -46c-148 0 -284 122 -284 272zM124 664l203 176l91 -115l-238 -138z" />
    <glyph glyph-name="Ccaron" unicode="&#x10c;" horiz-adv-x="753" 
d="M23 412c0 237 213 428 447 428c179 0 271 -76 271 -76l-80 -160s-66 51 -162 51c-189 0 -272 -133 -272 -243c0 -111 83 -243 272 -243c96 0 162 51 162 51l80 -160s-92 -76 -271 -76c-233 0 -447 192 -447 428zM219 1061l68 91l153 -112l153 112l68 -91l-221 -162z" />
    <glyph glyph-name="ccaron" unicode="&#x10d;" horiz-adv-x="491" 
d="M23 256c0 151 135 272 284 272c114 0 172 -48 172 -48l-60 -121s-33 24 -86 24c-67 0 -122 -57 -122 -127c0 -71 55 -127 122 -127c53 0 86 24 86 24l60 -123s-58 -46 -172 -46c-148 0 -284 122 -284 272zM56 749l68 91l153 -112l153 112l68 -91l-221 -162z" />
    <glyph glyph-name="Dcaron" unicode="&#x10e;" horiz-adv-x="738" 
d="M60 825h239c226 0 416 -173 416 -413c0 -241 -189 -412 -416 -412h-239v825zM248 657v-489h29c139 0 234 106 235 244c0 138 -95 245 -235 245h-29zM139 1061l68 91l153 -112l153 112l68 -91l-221 -162z" />
    <glyph glyph-name="dcaron" unicode="&#x10f;" 
d="M24 256c0 150 104 272 254 272c69 0 126 -24 168 -65v397h180v-860h-180v55c-40 -41 -99 -71 -168 -71c-150 0 -254 122 -254 272zM212 256c0 -70 47 -121 119 -121c69 0 119 51 119 121c0 71 -53 121 -119 121c-67 0 -119 -50 -119 -121zM756 824c50 0 90 -40 90 -90
c0 -93 -67 -169 -130 -221l-40 31s47 45 59 110c-38 9 -67 40 -67 80c0 50 40 90 88 90z" />
    <glyph glyph-name="Dcroat" unicode="&#x110;" horiz-adv-x="738" 
d="M-22 336v153h82v336h239c226 0 416 -173 416 -413c0 -241 -189 -412 -416 -412h-239v336h-82zM248 657v-168h109v-153h-109v-168h29c139 0 234 106 235 244c0 138 -95 245 -235 245h-29z" />
    <glyph glyph-name="dcroat" unicode="&#x111;" 
d="M24 256c0 150 104 272 254 272c69 0 126 -24 168 -65v165h-125v114h125v118h180v-118h57v-114h-57v-628h-180v55c-40 -41 -99 -71 -168 -71c-150 0 -254 122 -254 272zM212 256c0 -70 47 -121 119 -121c69 0 119 51 119 121c0 71 -53 121 -119 121
c-67 0 -119 -50 -119 -121z" />
    <glyph glyph-name="Emacron" unicode="&#x112;" horiz-adv-x="580" 
d="M60 825h472v-165h-284v-164h272v-165h-272v-166h284v-165h-472v825zM92 1066h408v-120h-408v120z" />
    <glyph glyph-name="emacron" unicode="&#x113;" horiz-adv-x="603" 
d="M23 257c0 150 127 271 282 271c156 0 275 -92 275 -272c0 -7 0 -18 -1 -24h-372c0 -79 66 -107 111 -107c57 0 82 11 125 57l128 -64c-58 -97 -152 -134 -266 -134c-155 0 -282 124 -282 273zM212 330h195c-8 54 -45 83 -97 83c-61 0 -95 -36 -98 -83zM101 754h408v-120
h-408v120z" />
    <glyph glyph-name="Edotaccent" unicode="&#x116;" horiz-adv-x="580" 
d="M60 825h472v-165h-284v-164h272v-165h-272v-166h284v-165h-472v825zM296 1103c51 0 92 -41 92 -92s-41 -92 -92 -92s-92 41 -92 92s41 92 92 92z" />
    <glyph glyph-name="edotaccent" unicode="&#x117;" horiz-adv-x="603" 
d="M23 257c0 150 127 271 282 271c156 0 275 -92 275 -272c0 -7 0 -18 -1 -24h-372c0 -79 66 -107 111 -107c57 0 82 11 125 57l128 -64c-58 -97 -152 -134 -266 -134c-155 0 -282 124 -282 273zM212 330h195c-8 54 -45 83 -97 83c-61 0 -95 -36 -98 -83zM305 791
c51 0 92 -41 92 -92s-41 -92 -92 -92s-92 41 -92 92s41 92 92 92z" />
    <glyph glyph-name="Eogonek" unicode="&#x118;" horiz-adv-x="580" 
d="M273 -158c0 55 50 122 80 158h-293v825h472v-165h-284v-164h272v-165h-272v-166h284v-165h-97s-59 -70 -59 -140c0 -25 20 -39 37 -39c31 0 51 30 51 30l72 -54s-45 -72 -137 -72c-52 0 -126 30 -126 117z" />
    <glyph glyph-name="eogonek" unicode="&#x119;" horiz-adv-x="603" 
d="M256 -158c0 48 37 105 67 143c0 0 -9 -1 -18 -1c-155 0 -282 124 -282 273c0 150 127 271 282 271c156 0 275 -92 275 -272c0 -7 0 -18 -1 -24h-372c0 -79 66 -107 111 -107c57 0 82 11 125 57l128 -64c-38 -63 -91 -101 -155 -119c-7 -9 -57 -73 -57 -139
c0 -25 20 -39 37 -39c31 0 51 30 51 30l72 -54s-45 -72 -137 -72c-52 0 -126 30 -126 117zM212 330h195c-8 54 -45 83 -97 83c-61 0 -95 -36 -98 -83z" />
    <glyph glyph-name="Ecaron" unicode="&#x11a;" horiz-adv-x="580" 
d="M60 825h472v-165h-284v-164h272v-165h-272v-166h284v-165h-472v825zM75 1061l68 91l153 -112l153 112l68 -91l-221 -162z" />
    <glyph glyph-name="ecaron" unicode="&#x11b;" horiz-adv-x="603" 
d="M23 257c0 150 127 271 282 271c156 0 275 -92 275 -272c0 -7 0 -18 -1 -24h-372c0 -79 66 -107 111 -107c57 0 82 11 125 57l128 -64c-58 -97 -152 -134 -266 -134c-155 0 -282 124 -282 273zM212 330h195c-8 54 -45 83 -97 83c-61 0 -95 -36 -98 -83zM84 749l68 91
l153 -112l153 112l68 -91l-221 -162z" />
    <glyph glyph-name="Gcommaaccent" unicode="&#x122;" horiz-adv-x="829" 
d="M23 412c0 237 170 428 402 428c145 0 246 -54 318 -141l-123 -135c-48 77 -111 106 -184 106c-116 0 -210 -115 -210 -258c0 -140 94 -255 210 -255c85 0 179 54 179 155v4h-190v145h381v-145c0 -151 -140 -332 -381 -332c-222 0 -402 192 -402 428zM425 -40
c50 0 90 -40 90 -90c0 -93 -67 -169 -130 -221l-40 31s47 45 59 110c-38 9 -67 40 -67 80c0 50 40 90 88 90z" />
    <glyph glyph-name="gcommaaccent" unicode="&#x123;" 
d="M212 256c0 -70 47 -121 119 -121c69 0 119 51 119 121c0 71 -53 121 -119 121c-67 0 -119 -50 -119 -121zM446 -1v56c-40 -41 -99 -71 -168 -71c-150 0 -254 122 -254 272s104 272 254 272c69 0 126 -24 168 -65v49h180v-526c0 -172 -128 -261 -303 -261
c-107 0 -230 24 -284 149l145 71c19 -31 62 -66 139 -66c48 0 123 29 123 120zM326 607c-50 0 -90 40 -90 90c0 93 67 169 130 221l40 -31s-47 -45 -59 -110c38 -9 67 -40 67 -80c0 -50 -40 -90 -88 -90z" />
    <glyph glyph-name="Imacron" unicode="&#x12a;" horiz-adv-x="308" 
d="M60 825h188v-825h-188v825zM-50 1066h408v-120h-408v120z" />
    <glyph glyph-name="imacron" unicode="&#x12b;" horiz-adv-x="296" 
d="M60 512h176v-512h-176v512zM-56 754h408v-120h-408v120z" />
    <glyph glyph-name="Iogonek" unicode="&#x12e;" horiz-adv-x="308" 
d="M33 -158c0 55 50 122 80 158h-53v825h188v-825h-53s-59 -70 -59 -140c0 -25 20 -39 37 -39c31 0 51 30 51 30l72 -54s-45 -72 -137 -72c-52 0 -126 30 -126 117z" />
    <glyph glyph-name="iogonek" unicode="&#x12f;" horiz-adv-x="296" 
d="M29 -158c0 55 50 122 80 158h-49v512h176v-512h-45s-59 -70 -59 -140c0 -25 20 -39 37 -39c31 0 51 30 51 30l72 -54s-45 -72 -137 -72c-52 0 -126 30 -126 117zM148 830c58 0 105 -47 105 -105s-47 -105 -105 -105s-105 47 -105 105s47 105 105 105z" />
    <glyph glyph-name="dotlessi" unicode="&#x131;" horiz-adv-x="296" 
d="M60 512h176v-512h-176v512z" />
    <glyph glyph-name="Kcommaaccent" unicode="&#x136;" horiz-adv-x="787" 
d="M60 825h188v-337l283 337h228l-332 -391l384 -434h-259l-304 350v-350h-188v825zM392 -40c50 0 90 -40 90 -90c0 -93 -67 -169 -130 -221l-40 31s47 45 59 110c-38 9 -67 40 -67 80c0 50 40 90 88 90z" />
    <glyph glyph-name="kcommaaccent" unicode="&#x137;" horiz-adv-x="646" 
d="M60 860h177v-527l179 179h230l-244 -245l268 -267h-228l-205 204v-204h-177v860zM322 -40c50 0 90 -40 90 -90c0 -93 -67 -169 -130 -221l-40 31s47 45 59 110c-38 9 -67 40 -67 80c0 50 40 90 88 90z" />
    <glyph glyph-name="Lacute" unicode="&#x139;" horiz-adv-x="565" 
d="M60 825h188v-660h284v-165h-472v825zM98 976l203 176l91 -115l-238 -138z" />
    <glyph glyph-name="lacute" unicode="&#x13a;" horiz-adv-x="298" 
d="M60 860h178v-860h-178v860zM93 1011l203 176l91 -115l-238 -138z" />
    <glyph glyph-name="Lcommaaccent" unicode="&#x13b;" horiz-adv-x="565" 
d="M60 825h188v-660h284v-165h-472v825zM281 -40c50 0 90 -40 90 -90c0 -93 -67 -169 -130 -221l-40 31s47 45 59 110c-38 9 -67 40 -67 80c0 50 40 90 88 90z" />
    <glyph glyph-name="lcommaaccent" unicode="&#x13c;" horiz-adv-x="298" 
d="M60 860h178v-860h-178v860zM148 -40c50 0 90 -40 90 -90c0 -93 -67 -169 -130 -221l-40 31s47 45 59 110c-38 9 -67 40 -67 80c0 50 40 90 88 90z" />
    <glyph glyph-name="Lcaron" unicode="&#x13d;" horiz-adv-x="565" 
d="M60 825h188v-660h284v-165h-472v825zM417 825c50 0 90 -40 90 -90c0 -93 -67 -169 -130 -221l-40 31s47 45 59 110c-38 9 -67 40 -67 80c0 50 40 90 88 90z" />
    <glyph glyph-name="lcaron" unicode="&#x13e;" horiz-adv-x="298" 
d="M60 860h178v-860h-178v860zM370 824c50 0 90 -40 90 -90c0 -93 -67 -169 -130 -221l-40 31s47 45 59 110c-38 9 -67 40 -67 80c0 50 40 90 88 90z" />
    <glyph glyph-name="Lslash" unicode="&#x141;" horiz-adv-x="565" 
d="M60 825h188v-215l105 83v-153l-105 -83v-292h284v-165h-472v309l-76 -59v153l76 59v363z" />
    <glyph glyph-name="lslash" unicode="&#x142;" horiz-adv-x="298" 
d="M60 860h178v-258l76 60v-153l-76 -60v-449h-178v309l-76 -59v153l76 59v398z" />
    <glyph glyph-name="Nacute" unicode="&#x143;" horiz-adv-x="826" 
d="M60 825h188l330 -512v512h188v-825h-188l-330 512v-512h-188v825zM266 976l203 176l91 -115l-238 -138z" />
    <glyph glyph-name="nacute" unicode="&#x144;" horiz-adv-x="661" 
d="M60 512h177v-53c42 40 93 69 149 69c94 0 225 -47 225 -190v-338h-177v290c0 51 -35 100 -92 100c-53 0 -105 -49 -105 -100v-290h-177v512zM239 664l203 176l91 -115l-238 -138z" />
    <glyph glyph-name="Ncommaaccent" unicode="&#x145;" horiz-adv-x="826" 
d="M412 -40c50 0 90 -40 90 -90c0 -93 -67 -169 -130 -221l-40 31s47 45 59 110c-38 9 -67 40 -67 80c0 50 40 90 88 90zM60 825h188l330 -512v512h188v-825h-188l-330 512v-512h-188v825z" />
    <glyph glyph-name="ncommaaccent" unicode="&#x146;" horiz-adv-x="661" 
d="M334 -40c50 0 90 -40 90 -90c0 -93 -67 -169 -130 -221l-40 31s47 45 59 110c-38 9 -67 40 -67 80c0 50 40 90 88 90zM60 512h177v-53c42 40 93 69 149 69c94 0 225 -47 225 -190v-338h-177v290c0 51 -35 100 -92 100c-53 0 -105 -49 -105 -100v-290h-177v512z" />
    <glyph glyph-name="Ncaron" unicode="&#x147;" horiz-adv-x="826" 
d="M60 825h188l330 -512v512h188v-825h-188l-330 512v-512h-188v825zM192 1061l68 91l153 -112l153 112l68 -91l-221 -162z" />
    <glyph glyph-name="ncaron" unicode="&#x148;" horiz-adv-x="661" 
d="M60 512h177v-53c42 40 93 69 149 69c94 0 225 -47 225 -190v-338h-177v290c0 51 -35 100 -92 100c-53 0 -105 -49 -105 -100v-290h-177v512zM114 749l68 91l153 -112l153 112l68 -91l-221 -162z" />
    <glyph glyph-name="Omacron" unicode="&#x14c;" horiz-adv-x="889" 
d="M30 412c0 241 189 428 416 428c229 0 416 -187 416 -428s-179 -428 -416 -428c-244 0 -416 187 -416 428zM233 412c0 -123 59 -246 213 -246c150 0 213 123 213 246s-67 247 -213 247c-145 0 -213 -124 -213 -247zM242 1066h408v-120h-408v120z" />
    <glyph glyph-name="omacron" unicode="&#x14d;" horiz-adv-x="661" 
d="M26 256c0 160 133 272 306 272c170 0 306 -112 306 -272c0 -158 -129 -272 -306 -272c-185 0 -306 114 -306 272zM212 256c0 -70 48 -121 120 -121c69 0 120 51 120 121c0 71 -54 121 -120 121c-67 0 -120 -50 -120 -121zM128 754h408v-120h-408v120z" />
    <glyph glyph-name="Ohungarumlaut" unicode="&#x150;" horiz-adv-x="889" 
d="M30 412c0 241 189 428 416 428c229 0 416 -187 416 -428s-179 -428 -416 -428c-244 0 -416 187 -416 428zM233 412c0 -123 59 -246 213 -246c150 0 213 123 213 246s-67 247 -213 247c-145 0 -213 -124 -213 -247zM192 996l203 176l91 -115l-238 -138zM466 996l203 176
l91 -115l-238 -138z" />
    <glyph glyph-name="ohungarumlaut" unicode="&#x151;" horiz-adv-x="661" 
d="M26 256c0 160 133 272 306 272c170 0 306 -112 306 -272c0 -158 -129 -272 -306 -272c-185 0 -306 114 -306 272zM212 256c0 -70 48 -121 120 -121c69 0 120 51 120 121c0 71 -54 121 -120 121c-67 0 -120 -50 -120 -121zM68 664l203 176l91 -115l-238 -138zM342 664
l203 176l91 -115l-238 -138z" />
    <glyph glyph-name="OE" unicode="&#x152;" horiz-adv-x="996" 
d="M9 412c0 241 189 413 416 413h523v-165h-284v-164h272v-165h-272v-166h284v-165h-523c-227 0 -416 171 -416 412zM212 412c0 -138 95 -244 235 -244h29v489h-29c-140 0 -235 -108 -235 -245z" />
    <glyph glyph-name="oe" unicode="&#x153;" horiz-adv-x="1025" 
d="M27 256c0 160 130 272 303 272c123 0 194 -82 194 -82s74 82 203 82c156 0 275 -92 275 -272c0 -7 0 -18 -1 -24h-372c0 -79 66 -107 111 -107c57 0 82 11 125 57l128 -64c-58 -97 -152 -134 -266 -134c-120 0 -202 82 -202 82s-68 -82 -195 -82
c-185 0 -303 114 -303 272zM634 330h195c-8 54 -45 83 -97 83c-61 0 -95 -36 -98 -83zM212 256c0 -70 48 -121 120 -121c69 0 119 51 119 121c0 71 -53 121 -119 121c-67 0 -120 -50 -120 -121z" />
    <glyph glyph-name="Racute" unicode="&#x154;" horiz-adv-x="716" 
d="M60 825h301c161 0 282 -83 282 -254c0 -129 -69 -215 -173 -249l269 -322h-239l-237 306h-15v-306h-188v825zM248 675v-219h53c74 0 144 25 144 109c0 85 -70 110 -144 110h-53zM211 976l203 176l91 -115l-238 -138z" />
    <glyph glyph-name="racute" unicode="&#x155;" horiz-adv-x="499" 
d="M61 512h177v-73s58 89 159 89c66 0 112 -32 112 -32l-74 -150s-33 28 -92 28c-92 0 -105 -91 -105 -104v-270h-177v512zM138 664l203 176l91 -115l-238 -138z" />
    <glyph glyph-name="Rcommaaccent" unicode="&#x156;" horiz-adv-x="716" 
d="M60 825h301c161 0 282 -83 282 -254c0 -129 -69 -215 -173 -249l269 -322h-239l-237 306h-15v-306h-188v825zM248 675v-219h53c74 0 144 25 144 109c0 85 -70 110 -144 110h-53zM357 -40c50 0 90 -40 90 -90c0 -93 -67 -169 -130 -221l-40 31s47 45 59 110
c-38 9 -67 40 -67 80c0 50 40 90 88 90z" />
    <glyph glyph-name="rcommaaccent" unicode="&#x157;" horiz-adv-x="498" 
d="M61 512h176v-73s58 89 159 89c66 0 112 -32 112 -32l-74 -150s-33 28 -92 28c-92 0 -105 -91 -105 -104v-270h-176v512zM148 -40c50 0 90 -40 90 -90c0 -93 -67 -169 -130 -221l-40 31s47 45 59 110c-38 9 -67 40 -67 80c0 50 40 90 88 90z" />
    <glyph glyph-name="Rcaron" unicode="&#x158;" horiz-adv-x="716" 
d="M60 825h301c161 0 282 -83 282 -254c0 -129 -69 -215 -173 -249l269 -322h-239l-237 306h-15v-306h-188v825zM248 675v-219h53c74 0 144 25 144 109c0 85 -70 110 -144 110h-53zM103 1061l68 91l153 -112l153 112l68 -91l-221 -162z" />
    <glyph glyph-name="rcaron" unicode="&#x159;" horiz-adv-x="499" 
d="M61 512h177v-73s58 89 159 89c66 0 112 -32 112 -32l-74 -150s-33 28 -92 28c-92 0 -105 -91 -105 -104v-270h-177v512zM64 749l68 91l153 -112l153 112l68 -91l-221 -162z" />
    <glyph glyph-name="Sacute" unicode="&#x15a;" horiz-adv-x="672" 
d="M95 587c0 154 136 253 269 253c150 0 256 -79 256 -79l-76 -150s-82 58 -167 58c-64 0 -98 -30 -98 -75c0 -46 78 -79 172 -119c92 -39 193 -117 193 -225c0 -197 -150 -266 -311 -266c-193 0 -310 109 -310 109l94 158s110 -93 202 -93c41 0 119 4 119 81
c0 60 -88 87 -186 136c-99 49 -157 126 -157 212zM237 976l203 176l91 -115l-238 -138z" />
    <glyph glyph-name="sacute" unicode="&#x15b;" horiz-adv-x="492" 
d="M283 528c99 0 172 -40 172 -40l-58 -116s-60 32 -114 32c-39 0 -55 -7 -55 -31c0 -25 31 -34 80 -49c68 -21 156 -60 156 -165c0 -151 -138 -175 -243 -175c-124 0 -198 69 -198 69l72 121s70 -59 127 -59c25 0 55 3 55 37c0 37 -56 41 -114 71c-52 27 -104 63 -104 140
c0 105 89 165 224 165zM146 664l203 176l91 -115l-238 -138z" />
    <glyph glyph-name="Scedilla" unicode="&#x15e;" horiz-adv-x="673" 
d="M95 587c0 154 136 253 269 253c150 0 256 -79 256 -79l-76 -150s-82 58 -167 58c-64 0 -98 -30 -98 -75c0 -46 78 -79 172 -119c92 -39 193 -117 193 -225c0 -180 -124 -253 -268 -264l-16 -49c55 0 129 -33 129 -102c0 -63 -41 -129 -152 -129c-90 0 -154 83 -154 83
l72 54s36 -47 82 -47c37 0 50 20 50 39c0 31 -34 45 -62 45c-36 0 -51 -9 -51 -9l-10 8l34 106c-172 12 -275 108 -275 108l94 158s110 -93 202 -93c41 0 119 4 119 81c0 60 -88 87 -186 136c-99 49 -157 126 -157 212z" />
    <glyph glyph-name="scedilla" unicode="&#x15f;" horiz-adv-x="491" 
d="M283 528c99 0 172 -40 172 -40l-58 -116s-60 32 -114 32c-39 0 -55 -7 -55 -31c0 -25 31 -34 80 -49c68 -21 156 -60 156 -165c0 -121 -89 -160 -178 -171l-16 -51c55 0 129 -33 129 -102c0 -63 -41 -129 -152 -129c-90 0 -154 83 -154 83l72 54s36 -47 82 -47
c37 0 50 20 50 39c0 31 -34 45 -62 45c-36 0 -51 -9 -51 -9l-10 8l34 105c-116 5 -185 69 -185 69l72 121s70 -59 127 -59c25 0 55 3 55 37c0 37 -56 41 -114 71c-52 27 -104 63 -104 140c0 105 89 165 224 165z" />
    <glyph glyph-name="Scaron" unicode="&#x160;" horiz-adv-x="672" 
d="M95 587c0 154 136 253 269 253c150 0 256 -79 256 -79l-76 -150s-82 58 -167 58c-64 0 -98 -30 -98 -75c0 -46 78 -79 172 -119c92 -39 193 -117 193 -225c0 -197 -150 -266 -311 -266c-193 0 -310 109 -310 109l94 158s110 -93 202 -93c41 0 119 4 119 81
c0 60 -88 87 -186 136c-99 49 -157 126 -157 212zM143 1061l68 91l153 -112l153 112l68 -91l-221 -162z" />
    <glyph glyph-name="scaron" unicode="&#x161;" horiz-adv-x="492" 
d="M283 528c99 0 172 -40 172 -40l-58 -116s-60 32 -114 32c-39 0 -55 -7 -55 -31c0 -25 31 -34 80 -49c68 -21 156 -60 156 -165c0 -151 -138 -175 -243 -175c-124 0 -198 69 -198 69l72 121s70 -59 127 -59c25 0 55 3 55 37c0 37 -56 41 -114 71c-52 27 -104 63 -104 140
c0 105 89 165 224 165zM62 749l68 91l153 -112l153 112l68 -91l-221 -162z" />
    <glyph glyph-name="Scommaaccent" unicode="&#x218;" horiz-adv-x="672" 
d="M95 587c0 154 136 253 269 253c150 0 256 -79 256 -79l-76 -150s-82 58 -167 58c-64 0 -98 -30 -98 -75c0 -46 78 -79 172 -119c92 -39 193 -117 193 -225c0 -197 -150 -266 -311 -266c-193 0 -310 109 -310 109l94 158s110 -93 202 -93c41 0 119 4 119 81
c0 60 -88 87 -186 136c-99 49 -157 126 -157 212zM333 -40c50 0 90 -40 90 -90c0 -93 -67 -169 -130 -221l-40 31s47 45 59 110c-38 9 -67 40 -67 80c0 50 40 90 88 90z" />
    <glyph glyph-name="scommaaccent" unicode="&#x219;" horiz-adv-x="492" 
d="M283 528c99 0 172 -40 172 -40l-58 -116s-60 32 -114 32c-39 0 -55 -7 -55 -31c0 -25 31 -34 80 -49c68 -21 156 -60 156 -165c0 -151 -138 -175 -243 -175c-124 0 -198 69 -198 69l72 121s70 -59 127 -59c25 0 55 3 55 37c0 37 -56 41 -114 71c-52 27 -104 63 -104 140
c0 105 89 165 224 165zM221 -40c50 0 90 -40 90 -90c0 -93 -67 -169 -130 -221l-40 31s47 45 59 110c-38 9 -67 40 -67 80c0 50 40 90 88 90z" />
    <glyph glyph-name="Tcommaaccent" unicode="&#x162;" horiz-adv-x="596" 
d="M8 825h580v-165h-196v-660h-188v660h-196v165zM297 -69c50 0 90 -40 90 -90c0 -93 -67 -169 -130 -221l-40 31s47 45 59 110c-38 9 -67 40 -67 80c0 50 40 90 88 90z" />
    <glyph glyph-name="tcommaaccent" unicode="&#x163;" horiz-adv-x="395" 
d="M16 512h74v192h177v-192h108v-135h-108v-163c0 -48 12 -71 40 -71c23 0 44 16 44 16l44 -143s-57 -32 -130 -32c-141 0 -175 105 -175 196v197h-74v135zM232 -40c50 0 90 -40 90 -90c0 -93 -67 -169 -130 -221l-40 31s47 45 59 110c-38 9 -67 40 -67 80c0 50 40 90 88 90
z" />
    <glyph glyph-name="Tcaron" unicode="&#x164;" horiz-adv-x="596" 
d="M8 825h580v-165h-196v-660h-188v660h-196v165zM77 1061l68 91l153 -112l153 112l68 -91l-221 -162z" />
    <glyph glyph-name="tcaron" unicode="&#x165;" horiz-adv-x="395" 
d="M16 512h74v192h177v-192h108v-135h-108v-163c0 -48 12 -71 40 -71c23 0 44 16 44 16l44 -143s-57 -32 -130 -32c-141 0 -175 105 -175 196v197h-74v135zM476 824c50 0 90 -40 90 -90c0 -93 -67 -169 -130 -221l-40 31s47 45 59 110c-38 9 -67 40 -67 80c0 50 40 90 88 90
z" />
    <glyph glyph-name="Umacron" unicode="&#x16a;" horiz-adv-x="744" 
d="M50 825h188v-478c0 -138 42 -178 134 -178s134 40 134 178v478h188v-533c0 -204 -112 -308 -322 -308s-322 104 -322 308v533zM168 1066h408v-120h-408v120z" />
    <glyph glyph-name="umacron" unicode="&#x16b;" horiz-adv-x="656" 
d="M50 512h177v-245c0 -101 27 -139 101 -139s101 38 101 139v245h177v-288c0 -172 -86 -240 -278 -240s-278 68 -278 240v288zM124 754h408v-120h-408v120z" />
    <glyph glyph-name="Uring" unicode="&#x16e;" horiz-adv-x="744" 
d="M50 825h188v-478c0 -138 42 -178 134 -178s134 40 134 178v478h188v-533c0 -204 -112 -308 -322 -308s-322 104 -322 308v533zM211 1045c0 83 71 142 161 142c91 0 161 -59 161 -142c0 -84 -67 -143 -161 -143c-96 0 -161 59 -161 143zM311 1045c0 -35 25 -64 61 -64
c35 0 61 29 61 64c0 34 -27 62 -61 62c-33 0 -61 -28 -61 -62z" />
    <glyph glyph-name="uring" unicode="&#x16f;" horiz-adv-x="656" 
d="M50 512h177v-245c0 -101 27 -139 101 -139s101 38 101 139v245h177v-288c0 -172 -86 -240 -278 -240s-278 68 -278 240v288zM167 733c0 83 71 142 161 142c91 0 161 -59 161 -142c0 -84 -67 -143 -161 -143c-96 0 -161 59 -161 143zM267 733c0 -35 25 -64 61 -64
c35 0 61 29 61 64c0 34 -27 62 -61 62c-33 0 -61 -28 -61 -62z" />
    <glyph glyph-name="Uhungarumlaut" unicode="&#x170;" horiz-adv-x="744" 
d="M50 825h188v-478c0 -138 42 -178 134 -178s134 40 134 178v478h188v-533c0 -204 -112 -308 -322 -308s-322 104 -322 308v533zM118 996l203 176l91 -115l-238 -138zM392 996l203 176l91 -115l-238 -138z" />
    <glyph glyph-name="uhungarumlaut" unicode="&#x171;" horiz-adv-x="656" 
d="M50 512h177v-245c0 -101 27 -139 101 -139s101 38 101 139v245h177v-288c0 -172 -86 -240 -278 -240s-278 68 -278 240v288zM64 664l203 176l91 -115l-238 -138zM338 664l203 176l91 -115l-238 -138z" />
    <glyph glyph-name="Uogonek" unicode="&#x172;" horiz-adv-x="744" 
d="M265 -158c0 48 38 106 68 144c-185 12 -283 115 -283 306v533h188v-478c0 -138 42 -178 134 -178s134 40 134 178v478h188v-533c0 -189 -97 -292 -278 -306c-16 -23 -48 -73 -48 -126c0 -25 20 -39 37 -39c31 0 51 30 51 30l72 -54s-45 -72 -137 -72
c-52 0 -126 30 -126 117z" />
    <glyph glyph-name="uogonek" unicode="&#x173;" horiz-adv-x="656" 
d="M221 -158c0 48 38 105 68 143c-165 9 -239 79 -239 239v288h177v-245c0 -101 27 -139 101 -139s101 38 101 139v245h177v-288c0 -159 -73 -229 -234 -239c-17 -23 -48 -73 -48 -125c0 -25 20 -39 37 -39c31 0 51 30 51 30l72 -54s-45 -72 -137 -72
c-52 0 -126 30 -126 117z" />
    <glyph glyph-name="Zacute" unicode="&#x179;" horiz-adv-x="769" 
d="M74 825h679l-409 -660h382v-165h-710l408 660h-350v165zM297 976l203 176l91 -115l-238 -138z" />
    <glyph glyph-name="zacute" unicode="&#x17a;" horiz-adv-x="561" 
d="M47 512h509l-254 -377h234v-135h-531l254 377h-212v135zM175 664l203 176l91 -115l-238 -138z" />
    <glyph glyph-name="Zdotaccent" unicode="&#x17b;" horiz-adv-x="769" 
d="M74 825h679l-409 -660h382v-165h-710l408 660h-350v165zM413 1103c51 0 92 -41 92 -92s-41 -92 -92 -92s-92 41 -92 92s41 92 92 92z" />
    <glyph glyph-name="zdotaccent" unicode="&#x17c;" horiz-adv-x="561" 
d="M47 512h509l-254 -377h234v-135h-531l254 377h-212v135zM301 791c51 0 92 -41 92 -92s-41 -92 -92 -92s-92 41 -92 92s41 92 92 92z" />
    <glyph glyph-name="Zcaron" unicode="&#x17d;" horiz-adv-x="769" 
d="M74 825h679l-409 -660h382v-165h-710l408 660h-350v165zM192 1061l68 91l153 -112l153 112l68 -91l-221 -162z" />
    <glyph glyph-name="zcaron" unicode="&#x17e;" horiz-adv-x="840" 
d="M165 512h509l-254 -377h234v-135h-531l254 377h-212v135zM198 749l68 91l153 -112l153 112l68 -91l-221 -162z" />
    <glyph glyph-name="circumflex" unicode="&#x2c6;" horiz-adv-x="582" 
d="M70 678l221 162l221 -162l-68 -91l-153 112l-153 -112z" />
    <glyph glyph-name="caron" unicode="&#x2c7;" horiz-adv-x="582" 
d="M70 749l68 91l153 -112l153 112l68 -91l-221 -162z" />
    <glyph glyph-name="breve" unicode="&#x2d8;" horiz-adv-x="602" 
d="M70 809l126 31s11 -103 105 -103s105 103 105 103l126 -31c-12 -107 -102 -181 -231 -181s-219 74 -231 181z" />
    <glyph glyph-name="dotaccent" unicode="&#x2d9;" horiz-adv-x="324" 
d="M162 791c51 0 92 -41 92 -92s-41 -92 -92 -92s-92 41 -92 92s41 92 92 92z" />
    <glyph glyph-name="ring" unicode="&#x2da;" horiz-adv-x="462" 
d="M70 733c0 83 71 142 161 142c91 0 161 -59 161 -142c0 -84 -67 -143 -161 -143c-96 0 -161 59 -161 143zM170 733c0 -35 25 -64 61 -64c35 0 61 29 61 64c0 34 -27 62 -61 62c-33 0 -61 -28 -61 -62z" />
    <glyph glyph-name="ogonek" unicode="&#x2db;" horiz-adv-x="403" 
d="M70 -158c0 79 104 184 104 184l58 -26s-59 -70 -59 -140c0 -25 20 -39 37 -39c31 0 51 30 51 30l72 -54s-45 -72 -137 -72c-52 0 -126 30 -126 117z" />
    <glyph glyph-name="tilde" unicode="&#x2dc;" horiz-adv-x="602" 
d="M14 688c0 0 65 137 177 137c64 0 105 -26 149 -54c24 -16 49 -31 71 -31c58 0 84 78 84 78l93 -82s-65 -137 -177 -137c-64 0 -106 26 -147 53c-24 16 -49 32 -73 32c-58 0 -84 -78 -84 -78z" />
    <glyph glyph-name="hungarumlaut" unicode="&#x2dd;" horiz-adv-x="767" 
d="M99 664l203 176l91 -115l-238 -138zM373 664l203 176l91 -115l-238 -138z" />
    <glyph glyph-name="endash" unicode="&#x2013;" horiz-adv-x="540" 
d="M0 366h540v-153h-540v153z" />
    <glyph glyph-name="emdash" unicode="&#x2014;" horiz-adv-x="1080" 
d="M0 366h1080v-153h-1080v153z" />
    <glyph glyph-name="quoteleft" unicode="&#x2018;" horiz-adv-x="291" 
d="M23 581c0 109 79 198 152 259l47 -37s-55 -52 -69 -128c44 -11 78 -47 78 -94c0 -58 -46 -105 -103 -105c-58 0 -105 47 -105 105z" />
    <glyph glyph-name="quoteright" unicode="&#x2019;" horiz-adv-x="291" 
d="M163 840c58 0 105 -47 105 -105c0 -109 -79 -198 -152 -259l-47 37s55 52 69 128c-44 11 -78 47 -78 94c0 58 46 105 103 105z" />
    <glyph glyph-name="quotesinglbase" unicode="&#x201a;" horiz-adv-x="291" 
d="M163 204c58 0 105 -47 105 -105c0 -109 -79 -198 -152 -259l-47 37s55 52 69 128c-44 11 -78 47 -78 94c0 58 46 105 103 105z" />
    <glyph glyph-name="quotedblleft" unicode="&#x201c;" horiz-adv-x="545" 
d="M23 581c0 109 79 198 152 259l47 -37s-55 -52 -69 -128c44 -11 78 -47 78 -94c0 -58 -46 -105 -103 -105c-58 0 -105 47 -105 105zM278 581c0 109 77 198 151 259l47 -37s-55 -52 -70 -128c45 -11 79 -47 79 -94c0 -58 -47 -105 -104 -105c-58 0 -103 47 -103 105z" />
    <glyph glyph-name="quotedblright" unicode="&#x201d;" horiz-adv-x="545" 
d="M164 840c58 0 103 -47 103 -105c0 -109 -77 -198 -151 -259l-47 37s55 52 70 128c-45 11 -79 47 -79 94c0 58 47 105 104 105zM417 840c58 0 105 -47 105 -105c0 -109 -79 -198 -152 -259l-47 37s55 52 69 128c-44 11 -78 47 -78 94c0 58 46 105 103 105z" />
    <glyph glyph-name="quotedblbase" unicode="&#x201e;" horiz-adv-x="545" 
d="M164 204c58 0 103 -47 103 -105c0 -109 -77 -198 -151 -259l-47 37s55 52 70 128c-45 11 -79 47 -79 94c0 58 47 105 104 105zM417 204c58 0 105 -47 105 -105c0 -109 -79 -198 -152 -259l-47 37s55 52 69 128c-44 11 -78 47 -78 94c0 58 46 105 103 105z" />
    <glyph glyph-name="dagger" unicode="&#x2020;" horiz-adv-x="542" 
d="M70 650h124v210h153v-210h125v-136h-125v-514h-153v514h-124v136z" />
    <glyph glyph-name="daggerdbl" unicode="&#x2021;" horiz-adv-x="542" 
d="M70 630h124v230h153v-230h125v-136h-125v-128h125v-136h-125v-230h-153v230h-124v136h124v128h-124v136z" />
    <glyph glyph-name="bullet" unicode="&#x2022;" horiz-adv-x="716" 
d="M357 553c109 0 197 -88 197 -197c0 -108 -88 -195 -197 -195c-108 0 -195 87 -195 195c0 109 87 197 195 197z" />
    <glyph glyph-name="ellipsis" unicode="&#x2026;" horiz-adv-x="1047" 
d="M174 213c64 0 115 -51 115 -115c0 -63 -51 -114 -115 -114c-63 0 -114 51 -114 114c0 64 51 115 114 115zM523 213c64 0 115 -51 115 -115c0 -63 -51 -114 -115 -114c-63 0 -114 51 -114 114c0 64 51 115 114 115zM872 213c64 0 115 -51 115 -115
c0 -63 -51 -114 -115 -114c-63 0 -114 51 -114 114c0 64 51 115 114 115z" />
    <glyph glyph-name="perthousand" unicode="&#x2030;" horiz-adv-x="1469" 
d="M23 643c0 116 97 197 223 197c122 0 219 -81 219 -197c0 -114 -91 -197 -219 -197c-135 0 -223 83 -223 197zM193 0l480 825h118l-480 -825h-118zM153 643c0 -54 39 -91 93 -91c51 0 89 37 89 91s-39 93 -89 93c-51 0 -93 -39 -93 -93zM516 181c0 114 88 197 223 197
c128 0 219 -83 219 -197c0 -116 -97 -197 -219 -197c-126 0 -223 81 -223 197zM1004 181c0 114 88 197 223 197c128 0 219 -83 219 -197c0 -116 -97 -197 -219 -197c-126 0 -223 81 -223 197zM646 181c0 -54 42 -93 93 -93c50 0 89 39 89 93s-38 91 -89 91
c-54 0 -93 -37 -93 -91zM1134 181c0 -54 42 -93 93 -93c50 0 89 39 89 93s-38 91 -89 91c-54 0 -93 -37 -93 -91z" />
    <glyph glyph-name="guilsinglleft" unicode="&#x2039;" horiz-adv-x="375" 
d="M33 279l195 250l93 -73l-138 -177l138 -177l-93 -73z" />
    <glyph glyph-name="guilsinglright" unicode="&#x203a;" horiz-adv-x="375" 
d="M54 456l93 73l195 -250l-195 -250l-93 73l138 177z" />
    <glyph glyph-name="Euro" unicode="&#x20ac;" horiz-adv-x="831" 
d="M23 550h96c63 169 235 290 422 290c179 0 271 -76 271 -76l-80 -160s-66 51 -162 51c-110 0 -185 -46 -227 -105h303v-108h-346c-2 -10 -3 -20 -3 -30s1 -21 3 -31h346v-108h-303c42 -59 117 -104 227 -104c96 0 162 51 162 51l80 -160s-92 -76 -271 -76
c-185 0 -358 121 -422 289h-96v108h72c-2 10 -3 20 -3 31c0 10 1 20 3 30h-72v108z" />
    <glyph glyph-name="trademark" unicode="&#x2122;" horiz-adv-x="514" 
d="M17 825h183v-52h-61v-206h-61v206h-61v52zM232 825h63l57 -148l57 148h63l24 -258h-60l-12 153l-54 -151h-35l-54 151l-13 -153h-59z" />
    </font>
</defs>
</svg>
