<?xml version="1.0" standalone="no"?>
<!DOCTYPE svg PUBLIC "-//W3C//DTD SVG 1.1//EN" "http://www.w3.org/Graphics/SVG/1.1/DTD/svg11.dtd" >
<svg xmlns="http://www.w3.org/2000/svg" xmlns:xlink="http://www.w3.org/1999/xlink" version="1.1">
<metadata>
Created by FontForge 20190801 at Fri Dec 21 19:45:41 2018
 By www-data
Copyright \(c\) 2017 by Matt Bailey. All rights reserved.
</metadata>
<defs>
<font id="SpartanMB-SemiBold" horiz-adv-x="690" >
  <font-face 
    font-family="Spartan MB SemiBold"
    font-weight="600"
    font-stretch="normal"
    units-per-em="1100"
    panose-1="0 11 5 3 8 0 0 2 0 3"
    ascent="880"
    descent="-220"
    x-height="512"
    cap-height="825"
    bbox="-148 -294 1441 1165"
    underline-thickness="50"
    underline-position="-100"
    stemh="101"
    stemv="118"
    unicode-range="U+000D-FB04"
  />
<missing-glyph horiz-adv-x="342" 
 />
    <glyph glyph-name="ff" unicode="ff" horiz-adv-x="638" 
d="M49 512h61v152c0 134 63 211 167 211c50 0 92 -18 113 -34l-42 -83c-11 7 -32 13 -51 13c-50 0 -69 -31 -69 -108v-151h173v152c0 134 63 211 167 211c70 0 112 -32 118 -37l-41 -83c-6 5 -28 16 -57 16c-50 0 -69 -31 -69 -108v-151h125v-89h-125v-423h-118v423h-173
v-423h-118v423h-61v89z" />
    <glyph glyph-name="fi" unicode="fi" horiz-adv-x="582" 
d="M37 512h61v152c0 134 63 211 167 211c70 0 137 -25 184 -75l-46 -78c-30 32 -69 49 -118 49c-50 0 -69 -31 -69 -108v-151h282v-512h-118v423h-164v-423h-118v423h-61v89z" />
    <glyph glyph-name="fl" unicode="fl" horiz-adv-x="589" 
d="M37 512h61v152c0 134 63 211 167 211c42 0 77 -12 100 -25l-29 -92c-11 7 -32 13 -51 13c-50 0 -69 -31 -69 -108v-151h125v-89h-125v-423h-118v423h-61v89zM390 860h118v-860h-118v860z" />
    <glyph glyph-name="ffi" unicode="ffi" horiz-adv-x="884" 
d="M49 512h61v152c0 134 63 211 167 211c50 0 92 -18 113 -34l-42 -83c-11 7 -32 13 -51 13c-50 0 -69 -31 -69 -108v-151h172v152c0 134 63 211 167 211c70 0 137 -25 184 -75l-46 -78c-30 32 -69 49 -118 49c-50 0 -69 -31 -69 -108v-151h282v-512h-118v423h-164v-423
h-118v423h-172v-423h-118v423h-61v89z" />
    <glyph glyph-name="ffl" unicode="ffl" horiz-adv-x="892" 
d="M49 512h61v152c0 134 63 211 167 211c50 0 92 -18 113 -34l-42 -83c-11 7 -32 13 -51 13c-50 0 -69 -31 -69 -108v-151h174v152c0 134 63 211 167 211c42 0 77 -12 100 -25l-29 -92c-11 7 -32 13 -51 13c-50 0 -69 -31 -69 -108v-151h125v-89h-125v-423h-118v423h-174
v-423h-118v423h-61v89zM694 860h118v-860h-118v860z" />
    <glyph glyph-name="ft" unicode="ft" horiz-adv-x="648" 
d="M37 512h61v152c0 134 63 211 167 211c58 0 97 -22 113 -34l-42 -83c-10 6 -30 13 -51 13c-50 0 -69 -31 -69 -108v-151h175v192h118v-192h119v-89h-119v-250c0 -56 15 -84 53 -84c28 0 49 16 49 16l29 -94s-42 -27 -104 -27c-120 0 -145 89 -145 168v271h-175v-423h-118
v423h-61v89z" />
    <glyph glyph-name="fj" unicode="fj" horiz-adv-x="582" 
d="M37 512h61v152c0 134 63 211 167 211c70 0 137 -25 184 -75l-46 -78c-30 32 -69 49 -118 49c-50 0 -69 -31 -69 -108v-151h282v-610c0 -99 -46 -177 -158 -177c-66 0 -94 17 -114 28l36 95c6 -5 28 -17 53 -17c41 0 65 28 65 89v503h-164v-423h-118v423h-61v89z" />
    <glyph glyph-name="fft" unicode="fft" horiz-adv-x="951" 
d="M49 512h61v152c0 134 63 211 167 211c50 0 92 -18 113 -34l-42 -83c-11 7 -32 13 -51 13c-50 0 -69 -31 -69 -108v-151h173v152c0 134 63 211 167 211c58 0 97 -22 113 -34l-42 -83c-10 6 -30 13 -51 13c-50 0 -69 -31 -69 -108v-151h175v192h118v-192h119v-89h-119v-250
c0 -56 15 -84 53 -84c28 0 49 16 49 16l29 -94s-42 -27 -104 -27c-120 0 -145 89 -145 168v271h-175v-423h-118v423h-173v-423h-118v423h-61v89z" />
    <glyph glyph-name="ffj" unicode="ffj" horiz-adv-x="884" 
d="M49 512h61v152c0 134 63 211 167 211c50 0 92 -18 113 -34l-42 -83c-11 7 -32 13 -51 13c-50 0 -69 -31 -69 -108v-151h172v152c0 134 63 211 167 211c70 0 137 -25 184 -75l-46 -78c-30 32 -69 49 -118 49c-50 0 -69 -31 -69 -108v-151h282v-610
c0 -99 -46 -177 -158 -177c-66 0 -94 17 -114 28l36 95c6 -5 28 -17 53 -17c41 0 65 28 65 89v503h-164v-423h-118v423h-172v-423h-118v423h-61v89z" />
    <glyph glyph-name=".notdef" horiz-adv-x="342" 
 />
    <glyph glyph-name="NULL" horiz-adv-x="0" 
 />
    <glyph glyph-name="NULL" horiz-adv-x="0" 
 />
    <glyph glyph-name="CR" unicode="&#xd;" horiz-adv-x="264" 
 />
    <glyph glyph-name="space" unicode=" " horiz-adv-x="264" 
 />
    <glyph glyph-name="numbersign" unicode="#" horiz-adv-x="742" 
d="M68 555h139l28 214h80l-27 -214h187l28 214h80l-27 -214h96v-82h-106l-24 -179h130v-80h-140l-27 -214h-80l27 214h-188l-27 -214h-80l27 214h-96v80h106l24 179h-130v82zM278 473l-24 -179h188l24 179h-188z" />
    <glyph glyph-name="dollar" unicode="$" horiz-adv-x="659" 
d="M103 604c0 128 98 218 212 233v126h74v-125c107 -10 174 -64 204 -115l-73 -66c-26 39 -78 70 -163 70c-87 0 -133 -57 -133 -119c0 -59 54 -93 126 -121c127 -51 266 -111 266 -255c0 -150 -100 -227 -227 -244v-126h-74v122c-159 5 -243 84 -276 153l83 75
c38 -62 101 -113 201 -113c73 0 159 29 159 126c0 80 -82 121 -205 170c-115 47 -174 119 -174 209z" />
    <glyph glyph-name="percent" unicode="%" horiz-adv-x="993" 
d="M37 643c0 116 91 197 211 197s211 -81 211 -197s-91 -197 -211 -197s-211 81 -211 197zM122 643c0 -75 54 -128 126 -128s126 53 126 128s-54 128 -126 128s-126 -53 -126 -128zM533 182c0 116 91 197 211 197s211 -81 211 -197s-91 -197 -211 -197s-211 81 -211 197z
M618 182c0 -75 54 -128 126 -128s126 53 126 128s-54 128 -126 128s-126 -53 -126 -128zM217 0l480 825h80l-480 -825h-80z" />
    <glyph glyph-name="ampersand" unicode="&#x26;" horiz-adv-x="793" 
d="M47 211c0 108 88 186 199 243c-53 58 -99 116 -99 190c0 109 79 196 226 196c144 0 216 -102 216 -196c0 -117 -131 -186 -169 -205l174 -186c37 37 74 77 108 118l78 -72c-33 -42 -74 -90 -108 -127l162 -172h-156l-97 104c-69 -61 -146 -120 -269 -120
c-128 0 -265 66 -265 227zM271 644c0 -63 64 -117 85 -136c72 35 124 71 124 136c0 54 -32 106 -107 106c-69 0 -102 -52 -102 -106zM184 220c0 -74 64 -119 139 -119c84 0 154 57 179 86l-190 198c-68 -33 -128 -92 -128 -165z" />
    <glyph glyph-name="quotesingle" unicode="'" horiz-adv-x="222" 
d="M53 834h116l-21 -275h-74z" />
    <glyph glyph-name="quotedbl" unicode="&#x22;" horiz-adv-x="384" 
d="M53 834h116l-21 -275h-74zM215 834h116l-21 -275h-74z" />
    <glyph glyph-name="parenleft" unicode="(" horiz-adv-x="363" 
d="M180 307c0 -336 147 -534 147 -534l-77 -33s-181 217 -181 567s181 568 181 568l77 -33s-147 -199 -147 -535z" />
    <glyph glyph-name="parenright" unicode=")" horiz-adv-x="363" 
d="M183 307c0 336 -147 535 -147 535l77 33s181 -218 181 -568s-181 -567 -181 -567l-77 33s147 198 147 534z" />
    <glyph glyph-name="asterisk" unicode="*" horiz-adv-x="371" 
d="M156 860h58v-102l99 31l17 -53l-98 -34l58 -85l-44 -30l-61 80l-60 -80l-44 30l58 85l-98 34l17 53l98 -31v102z" />
    <glyph glyph-name="plus" unicode="+" horiz-adv-x="630" 
d="M264 671h102v-205h205v-102h-205v-205h-102v205h-205v102h205v205z" />
    <glyph glyph-name="minus" unicode="&#x2212;" horiz-adv-x="622" 
d="M55 465h512v-102h-512v102z" />
    <glyph glyph-name="multiply" unicode="&#xd7;" horiz-adv-x="598" 
d="M56 585l71 72l172 -171l172 171l71 -72l-171 -171l171 -171l-71 -72l-172 171l-172 -171l-71 72l171 171z" />
    <glyph glyph-name="divide" unicode="&#xf7;" horiz-adv-x="646" 
d="M323 709c32 0 58 -26 58 -58s-26 -58 -58 -58s-58 26 -58 58s26 58 58 58zM67 466h512v-102h-512v102zM323 237c32 0 58 -26 58 -58s-26 -58 -58 -58s-58 26 -58 58s26 58 58 58z" />
    <glyph glyph-name="less" unicode="&#x3c;" horiz-adv-x="637" 
d="M38 455l547 242v-96l-422 -185l422 -185v-96l-547 242v78z" />
    <glyph glyph-name="equal" unicode="=" horiz-adv-x="622" 
d="M55 574h512v-102h-512v102zM55 357h512v-102h-512v102z" />
    <glyph glyph-name="greater" unicode="&#x3e;" horiz-adv-x="637" 
d="M52 697l547 -242v-78l-547 -242v96l422 185l-422 185v96z" />
    <glyph glyph-name="plusminus" unicode="&#xb1;" horiz-adv-x="648" 
d="M273 686h102v-206h205v-102h-205v-206h-102v206h-205v102h205v206zM68 101h512v-101h-512v101z" />
    <glyph glyph-name="notequal" unicode="&#x2260;" horiz-adv-x="622" 
d="M55 574h284l86 147h80l-86 -147h148v-102h-208l-67 -115h275v-102h-333l-88 -151h-81l88 151h-98v102h157l67 115h-224v102z" />
    <glyph glyph-name="lessequal" unicode="&#x2264;" horiz-adv-x="640" 
d="M38 140h547v-101h-547v101zM38 560l547 242v-96l-422 -185l422 -185v-96l-547 242v78z" />
    <glyph glyph-name="greaterequal" unicode="&#x2265;" horiz-adv-x="640" 
d="M55 140h547v-101h-547v101zM55 802l547 -242v-78l-547 -242v96l422 185l-422 185v96z" />
    <glyph glyph-name="fraction" unicode="&#x2044;" horiz-adv-x="264" 
d="M-148 0l480 825h80l-480 -825h-80z" />
    <glyph glyph-name="comma" unicode="," horiz-adv-x="273" 
d="M136 141c44 0 79 -35 79 -78c0 -92 -58 -165 -116 -213l-32 27c5 7 43 50 53 113c-35 7 -62 36 -62 73c0 43 35 78 78 78z" />
    <glyph glyph-name="hyphen" unicode="-" horiz-adv-x="450" 
d="M64 340h322v-101h-322v101z" />
    <glyph glyph-name="period" unicode="." horiz-adv-x="272" 
d="M136 140c44 0 78 -35 78 -78s-34 -78 -78 -78s-78 35 -78 78s34 78 78 78z" />
    <glyph glyph-name="slash" unicode="/" horiz-adv-x="540" 
d="M14 -120l412 980h100l-412 -980h-100z" />
    <glyph glyph-name="zero" unicode="0" horiz-adv-x="778" 
d="M725 412c0 -286 -159 -428 -336 -428s-336 142 -336 428s159 428 336 428s336 -142 336 -428zM601 412c0 207 -91 319 -212 319s-212 -112 -212 -319s91 -319 212 -319s212 112 212 319z" />
    <glyph glyph-name="one" unicode="1" horiz-adv-x="300" 
d="M-9 825h226v-825h-124v703h-102v122z" />
    <glyph glyph-name="two" unicode="2" horiz-adv-x="748" 
d="M77 589c20 108 108 251 289 251c228 0 298 -160 298 -281c0 -184 -246 -355 -365 -450h380v-109h-610v62c96 76 461 332 461 497c0 90 -55 173 -164 173c-86 0 -156 -72 -182 -172z" />
    <glyph glyph-name="three" unicode="3" horiz-adv-x="650" 
d="M76 646c10 68 74 194 249 194c142 0 248 -100 248 -230c0 -80 -42 -145 -105 -177c78 -32 127 -107 127 -199c0 -143 -109 -250 -278 -250c-214 0 -276 144 -284 209l116 31c7 -46 50 -131 168 -131c95 0 152 57 152 141c0 88 -69 154 -151 154c-18 0 -33 -5 -33 -5v85
h34c74 0 139 61 139 141c0 72 -62 129 -134 129c-104 0 -137 -70 -147 -116z" />
    <glyph glyph-name="four" unicode="4" horiz-adv-x="615" 
d="M-13 230v43l392 552h122v-486h96v-109h-96v-230h-116v230h-398zM154 339h231v319z" />
    <glyph glyph-name="five" unicode="5" horiz-adv-x="667" 
d="M150 825h421v-109h-316l-30 -188c22 10 61 18 97 18c158 0 302 -80 302 -290c0 -158 -118 -271 -301 -271c-168 0 -258 95 -289 179l99 48c20 -62 82 -124 191 -124c111 0 178 72 178 172c0 132 -113 193 -236 193c-87 0 -148 -34 -183 -65z" />
    <glyph glyph-name="six" unicode="6" horiz-adv-x="693" 
d="M44 263c0 99 46 203 122 294l225 268h153l-251 -296c14 11 54 16 85 16c131 0 271 -101 271 -282s-142 -279 -296 -279c-176 0 -309 120 -309 279zM171 263c0 -101 74 -176 176 -176c103 0 179 75 179 176c0 105 -79 181 -179 181c-96 0 -176 -80 -176 -181z" />
    <glyph glyph-name="seven" unicode="7" horiz-adv-x="623" 
d="M70 825h568v-38l-436 -787h-147l400 716h-385v109z" />
    <glyph glyph-name="eight" unicode="8" horiz-adv-x="661" 
d="M331 840c128 0 249 -90 249 -209c0 -91 -49 -156 -117 -190c86 -35 150 -110 150 -221c0 -138 -131 -236 -282 -236s-282 98 -282 236c0 111 64 186 150 221c-68 34 -117 99 -117 190c0 119 121 209 249 209zM182 238c0 -86 63 -148 149 -148s149 62 149 148
s-66 145 -149 145s-149 -59 -149 -145zM331 746c-74 0 -131 -54 -131 -130s57 -130 131 -130s131 54 131 130s-57 130 -131 130z" />
    <glyph glyph-name="nine" unicode="9" horiz-adv-x="693" 
d="M649 561c0 -99 -46 -203 -122 -294l-225 -267h-153l251 295c-14 -11 -54 -16 -85 -16c-131 0 -271 101 -271 282s142 279 296 279c176 0 309 -120 309 -279zM522 561c0 101 -74 176 -176 176c-103 0 -179 -75 -179 -176c0 -105 79 -181 179 -181c96 0 176 80 176 181z
" />
    <glyph glyph-name="colon" unicode=":" horiz-adv-x="272" 
d="M136 140c44 0 78 -35 78 -78s-34 -78 -78 -78s-78 35 -78 78s34 78 78 78zM136 553c44 0 78 -35 78 -78s-34 -78 -78 -78s-78 35 -78 78s34 78 78 78z" />
    <glyph glyph-name="semicolon" unicode=";" horiz-adv-x="273" 
d="M136 141c44 0 79 -35 79 -78c0 -92 -58 -165 -116 -213l-32 27c5 7 43 50 53 113c-35 7 -62 36 -62 73c0 43 35 78 78 78zM136 553c44 0 78 -35 78 -78s-34 -78 -78 -78s-78 35 -78 78s34 78 78 78z" />
    <glyph glyph-name="exclam" unicode="!" horiz-adv-x="322" 
d="M102 860h118l-15 -631h-88zM161 140c44 0 78 -35 78 -78s-34 -78 -78 -78s-78 35 -78 78s34 78 78 78z" />
    <glyph glyph-name="question" unicode="?" horiz-adv-x="588" 
d="M28 616c11 116 96 224 260 224c178 0 263 -136 263 -248c0 -102 -68 -224 -220 -244v-112h-108v216c17 -4 32 -5 60 -5c111 0 157 75 157 145c0 72 -48 143 -152 143c-105 0 -149 -60 -161 -138zM277 140c44 0 78 -35 78 -78s-34 -78 -78 -78s-78 35 -78 78s34 78 78 78z
" />
    <glyph glyph-name="at" unicode="@" horiz-adv-x="945" 
d="M43 413c0 249 200 427 437 427c232 0 422 -172 422 -410c0 -140 -72 -214 -163 -214c-59 0 -101 27 -125 57c-34 -60 -94 -99 -172 -99c-124 0 -217 98 -217 229c0 132 93 231 217 231c72 0 132 -34 167 -88v75h82v-259c0 -26 14 -63 61 -63c44 0 66 31 66 131
c0 185 -149 321 -338 321c-186 0 -337 -150 -337 -338c0 -189 146 -332 337 -332c132 0 210 66 238 106l80 -52c-30 -43 -131 -150 -318 -150c-244 0 -437 179 -437 428zM329 404c0 -85 59 -146 141 -146c81 0 140 61 140 146c0 86 -60 148 -140 148s-141 -62 -141 -148z
" />
    <glyph glyph-name="A" unicode="A" horiz-adv-x="738" 
d="M311 825h116l328 -825h-133l-84 221h-338l-84 -221h-133zM242 330h254l-127 328z" />
    <glyph glyph-name="B" unicode="B" horiz-adv-x="656" 
d="M82 825h210c150 0 254 -62 254 -210c0 -82 -38 -147 -112 -181c112 -18 185 -83 185 -210c0 -135 -97 -224 -264 -224h-273v825zM206 728v-254h54c106 1 166 41 166 130c0 83 -59 124 -166 124h-54zM206 367v-270h110c111 0 174 45 174 131c0 94 -63 139 -174 139h-110z
" />
    <glyph glyph-name="C" unicode="C" horiz-adv-x="782" 
d="M43 412c0 239 199 428 440 428c148 0 240 -59 269 -81l-55 -105c-26 22 -101 64 -197 64c-206 0 -322 -150 -322 -306c0 -157 116 -306 322 -306c96 0 171 42 197 64l55 -105c-29 -22 -121 -81 -269 -81c-240 0 -440 190 -440 428z" />
    <glyph glyph-name="D" unicode="D" horiz-adv-x="750" 
d="M82 825h209c226 0 416 -173 416 -413c0 -241 -189 -412 -416 -412h-209v825zM206 714v-603h72c167 0 296 128 296 301s-129 302 -296 302h-72z" />
    <glyph glyph-name="E" unicode="E" horiz-adv-x="575" 
d="M82 825h440v-109h-316v-248h304v-109h-304v-250h316v-109h-440v825z" />
    <glyph glyph-name="F" unicode="F" horiz-adv-x="575" 
d="M82 825h443v-109h-319v-248h297v-109h-297v-359h-124v825z" />
    <glyph glyph-name="G" unicode="G" horiz-adv-x="868" 
d="M43 412c0 237 170 428 402 428c146 0 247 -54 319 -141l-82 -89c-55 79 -133 118 -230 118c-156 0 -275 -141 -275 -316c0 -173 123 -314 275 -314c124 0 249 82 249 218v18h-256v97h382v-115c0 -170 -158 -332 -382 -332c-222 0 -402 192 -402 428z" />
    <glyph glyph-name="H" unicode="H" horiz-adv-x="784" 
d="M82 825h124v-357h372v357h124v-825h-124v359h-372v-359h-124v825z" />
    <glyph glyph-name="I" unicode="I" horiz-adv-x="288" 
d="M82 825h124v-825h-124v825z" />
    <glyph glyph-name="J" unicode="J" horiz-adv-x="498" 
d="M301 825h124v-593c0 -162 -92 -248 -258 -248c-118 0 -193 79 -193 79l41 107s67 -68 137 -68c92 0 149 50 149 163v560z" />
    <glyph glyph-name="K" unicode="K" horiz-adv-x="723" 
d="M82 825h124v-369l335 369h151l-358 -395l403 -430h-171l-315 339l-45 -50v-289h-124v825z" />
    <glyph glyph-name="L" unicode="L" horiz-adv-x="559" 
d="M82 825h124v-716h320v-109h-444v825z" />
    <glyph glyph-name="M" unicode="M" horiz-adv-x="948" 
d="M691 825h132l93 -825h-124l-69 600l-209 -570h-80l-209 570l-69 -600h-124l93 825h132l217 -573z" />
    <glyph glyph-name="M.1" horiz-adv-x="928" 
d="M705 825h141v-825h-124v557l-219 -527h-78l-219 527v-557h-124v825h141l241 -573z" />
    <glyph glyph-name="N" unicode="N" horiz-adv-x="808" 
d="M82 825h124l396 -617v617h124v-825h-124l-396 616v-616h-124v825z" />
    <glyph glyph-name="O" unicode="O" horiz-adv-x="918" 
d="M43 412c0 241 189 428 416 428s416 -187 416 -428s-189 -428 -416 -428s-416 187 -416 428zM177 412c0 -164 111 -309 282 -309s282 145 282 309s-111 309 -282 309s-282 -145 -282 -309z" />
    <glyph glyph-name="P" unicode="P" horiz-adv-x="648" 
d="M82 825h252c161 0 271 -85 271 -242c0 -156 -110 -252 -271 -252h-128v-331h-124v825zM206 725v-293h92c102 0 178 49 178 148s-76 145 -178 145h-92z" />
    <glyph glyph-name="Q" unicode="Q" horiz-adv-x="918" 
d="M906 84l-55 -111c-57 24 -110 51 -160 83c-66 -46 -147 -72 -232 -72c-227 0 -416 187 -416 428s189 428 416 428s416 -187 416 -428c0 -106 -37 -202 -97 -275c45 -22 88 -40 128 -53zM177 412c0 -164 111 -309 282 -309c48 0 91 11 128 31c-46 40 -91 84 -134 132
l53 65c47 -49 103 -93 161 -131c47 56 74 132 74 212c0 164 -111 309 -282 309s-282 -145 -282 -309z" />
    <glyph glyph-name="Q.1" horiz-adv-x="917" 
d="M874 412c0 -200 -131 -363 -305 -412c40 -3 92 -20 136 -20c85 0 124 54 124 54l39 -84s-46 -92 -164 -92c-116 0 -153 59 -288 59c-96 0 -150 -67 -150 -67l-30 45s61 87 140 97c-189 38 -334 208 -334 420c0 241 189 428 416 428s416 -187 416 -428zM740 412
c0 164 -111 309 -282 309s-282 -145 -282 -309s111 -309 282 -309s282 145 282 309z" />
    <glyph glyph-name="R" unicode="R" horiz-adv-x="678" 
d="M676 0h-158l-253 331h-59v-331h-124v825h252c161 0 271 -85 271 -242c0 -132 -78 -221 -200 -245zM206 725v-293h92c102 0 178 49 178 148s-76 145 -178 145h-92z" />
    <glyph glyph-name="R.1" horiz-adv-x="706" 
d="M82 825h252c161 0 271 -85 271 -242c0 -132 -78 -221 -200 -245l162 -206c16 -20 36 -35 56 -35c23 0 41 12 45 14l36 -91s-35 -36 -102 -36c-79 0 -122 66 -122 66l-215 281h-59v-331h-124v825zM206 725v-293h92c102 0 178 49 178 148s-76 145 -178 145h-92z" />
    <glyph glyph-name="S" unicode="S" horiz-adv-x="660" 
d="M103 604c0 141 119 236 247 236c136 0 208 -63 243 -117l-77 -71c-26 39 -74 75 -159 75c-87 0 -133 -57 -133 -119c0 -59 54 -93 126 -121c127 -51 266 -111 266 -255c0 -172 -131 -248 -285 -248c-169 0 -258 82 -292 153l83 75c38 -62 101 -113 201 -113
c73 0 159 29 159 126c0 80 -82 121 -205 170c-115 47 -174 119 -174 209z" />
    <glyph glyph-name="T" unicode="T" horiz-adv-x="590" 
d="M5 825h580v-109h-229v-716h-124v716h-227v109z" />
    <glyph glyph-name="U" unicode="U" horiz-adv-x="748" 
d="M73 825h124v-498c0 -157 59 -221 177 -221s177 64 177 221v498h124v-531c0 -204 -106 -310 -301 -310s-301 106 -301 310v531z" />
    <glyph glyph-name="V" unicode="V" horiz-adv-x="756" 
d="M633 825h140l-346 -825h-98l-346 825h140l255 -638z" />
    <glyph glyph-name="W" unicode="W" horiz-adv-x="1102" 
d="M-17 825h138l178 -658l205 658h94l205 -658l178 658h138l-241 -825h-138l-189 585l-189 -585h-138z" />
    <glyph glyph-name="X" unicode="X" horiz-adv-x="748" 
d="M33 825h149l192 -277l192 277h149l-264 -380l314 -445h-154l-237 337l-237 -337h-154l314 445z" />
    <glyph glyph-name="Y" unicode="Y" horiz-adv-x="676" 
d="M544 825h149l-293 -462v-363h-124v363l-293 462h149l206 -334z" />
    <glyph glyph-name="Z" unicode="Z" horiz-adv-x="762" 
d="M87 825h645l-483 -715h456v-110h-675l482 715h-425v110z" />
    <glyph glyph-name="bracketleft" unicode="[" horiz-adv-x="369" 
d="M82 860h258v-81h-155v-958h155v-81h-258v1120z" />
    <glyph glyph-name="backslash" unicode="\" horiz-adv-x="539" 
d="M14 860h100l412 -860h-100z" />
    <glyph glyph-name="bracketright" unicode="]" horiz-adv-x="369" 
d="M29 860h258v-1120h-258v81h155v958h-155v81z" />
    <glyph glyph-name="asciicircum" unicode="^" horiz-adv-x="469" 
d="M-3 605l207 236h62l207 -236h-106l-132 153l-132 -153h-106z" />
    <glyph glyph-name="underscore" unicode="_" horiz-adv-x="513" 
d="M0 -42h513v-59h-513v59z" />
    <glyph glyph-name="grave" unicode="`" horiz-adv-x="332" 
d="M51 759l63 81l167 -140l-40 -54z" />
    <glyph glyph-name="a" unicode="a" 
d="M44 256c0 154 108 272 256 272c82 0 150 -37 192 -98v82h118v-512h-118v85c-40 -60 -110 -101 -192 -101c-148 0 -256 118 -256 272zM167 256c0 -100 68 -171 165 -171c95 0 164 71 164 171c0 101 -71 171 -164 171c-94 0 -165 -70 -165 -171z" />
    <glyph glyph-name="a.1" horiz-adv-x="624" 
d="M71 142c0 94 75 165 191 165c81 0 136 -25 164 -54v51c0 82 -62 129 -139 129c-81 0 -129 -32 -143 -47l-41 79c17 22 82 63 184 63c135 0 257 -70 257 -224v-304h-118v37c-34 -30 -89 -53 -160 -53c-110 0 -195 63 -195 158zM187 151c0 -56 54 -92 122 -92
c67 0 122 40 122 92s-55 90 -122 90c-68 0 -122 -34 -122 -90z" />
    <glyph glyph-name="b" unicode="b" 
d="M646 256c0 -154 -108 -272 -256 -272c-82 0 -152 41 -192 101v-85h-118v860h118v-430c42 61 110 98 192 98c148 0 256 -118 256 -272zM523 256c0 101 -71 171 -165 171c-93 0 -164 -70 -164 -171c0 -100 69 -171 164 -171c97 0 165 71 165 171z" />
    <glyph glyph-name="c" unicode="c" horiz-adv-x="533" 
d="M452 117l43 -80c-19 -15 -78 -53 -174 -53c-151 0 -280 117 -280 272s129 272 280 272c96 0 155 -38 174 -53l-43 -80c-17 14 -59 36 -115 36c-98 0 -172 -76 -172 -175s74 -175 172 -175c56 0 98 22 115 36z" />
    <glyph glyph-name="d" unicode="d" 
d="M44 256c0 154 108 272 256 272c82 0 150 -37 192 -98v430h118v-860h-118v85c-40 -60 -110 -101 -192 -101c-148 0 -256 118 -256 272zM167 256c0 -100 68 -171 165 -171c95 0 164 71 164 171c0 101 -71 171 -164 171c-94 0 -165 -70 -165 -171z" />
    <glyph glyph-name="e" unicode="e" horiz-adv-x="626" 
d="M41 257c0 150 124 271 275 271s269 -105 269 -268v-18h-423c0 -105 81 -163 166 -163c71 0 116 23 159 78l85 -44c-54 -88 -144 -129 -252 -129c-155 0 -279 119 -279 273zM166 310h305c-10 83 -72 129 -152 129c-86 0 -147 -50 -153 -129z" />
    <glyph glyph-name="f" unicode="f" horiz-adv-x="336" 
d="M37 512h61v152c0 134 63 211 167 211c70 0 112 -32 118 -37l-41 -83c-6 5 -28 16 -57 16c-50 0 -69 -31 -69 -108v-151h125v-89h-125v-423h-118v423h-61v89z" />
    <glyph glyph-name="g" unicode="g" 
d="M167 256c0 -100 68 -171 165 -171c95 0 164 71 164 171c0 101 -71 171 -164 171c-94 0 -165 -70 -165 -171zM44 256c0 154 108 272 256 272c82 0 150 -37 192 -98v82h118v-526c0 -168 -113 -261 -289 -261c-119 0 -224 40 -272 149l98 47c24 -50 84 -94 174 -94
c92 0 171 56 171 163v95c-40 -60 -110 -101 -192 -101c-148 0 -256 118 -256 272z" />
    <glyph glyph-name="h" unicode="h" horiz-adv-x="637" 
d="M80 860h118v-411c36 51 98 79 155 79c114 0 213 -63 213 -197v-331h-117v298c0 80 -42 137 -123 137c-73 0 -128 -61 -128 -121v-314h-118v860z" />
    <glyph glyph-name="i" unicode="i" horiz-adv-x="278" 
d="M139 767c44 0 78 -35 78 -78s-34 -78 -78 -78s-78 35 -78 78s34 78 78 78zM80 512h118v-512h-118v512z" />
    <glyph glyph-name="j" unicode="j" horiz-adv-x="278" 
d="M80 512h118v-610c0 -99 -46 -177 -158 -177c-66 0 -94 17 -114 28l36 95c6 -5 28 -17 53 -17c41 0 65 28 65 89v592zM139 767c44 0 78 -35 78 -78s-34 -78 -78 -78s-78 35 -78 78s34 78 78 78z" />
    <glyph glyph-name="j.1" horiz-adv-x="278" 
d="M139 767c44 0 78 -35 78 -78s-34 -78 -78 -78s-78 35 -78 78s34 78 78 78zM80 512h118v-772h-118v772z" />
    <glyph glyph-name="k" unicode="k" horiz-adv-x="556" 
d="M80 860h118v-541l178 193h151l-206 -219l258 -293h-150l-185 211l-46 -48v-163h-118v860z" />
    <glyph glyph-name="l" unicode="l" horiz-adv-x="278" 
d="M80 860h118v-860h-118v860z" />
    <glyph glyph-name="m" unicode="m" horiz-adv-x="976" 
d="M80 512h118v-63c39 50 99 79 155 79c83 0 150 -33 180 -102c44 63 107 102 174 102c114 0 198 -63 198 -197v-331h-117v298c0 79 -38 135 -121 135c-72 0 -115 -60 -115 -103v-330h-118v298c0 79 -38 135 -121 135c-73 0 -115 -63 -115 -106v-327h-118v512z" />
    <glyph glyph-name="n" unicode="n" horiz-adv-x="637" 
d="M80 512h118v-63c36 51 98 79 155 79c114 0 213 -63 213 -197v-331h-117v298c0 80 -42 137 -123 137c-73 0 -128 -61 -128 -121v-314h-118v512z" />
    <glyph glyph-name="o" unicode="o" horiz-adv-x="670" 
d="M41 256c0 160 128 272 294 272s294 -112 294 -272s-128 -272 -294 -272s-294 112 -294 272zM163 256c0 -100 74 -171 172 -171s172 71 172 171s-74 171 -172 171s-172 -71 -172 -171z" />
    <glyph glyph-name="p" unicode="p" 
d="M646 256c0 -154 -108 -272 -256 -272c-82 0 -152 41 -192 101v-345h-118v772h118v-82c42 61 110 98 192 98c148 0 256 -118 256 -272zM523 256c0 101 -71 171 -165 171c-93 0 -164 -70 -164 -171c0 -100 69 -171 164 -171c97 0 165 71 165 171z" />
    <glyph glyph-name="q" unicode="q" 
d="M44 256c0 154 108 272 256 272c82 0 150 -37 192 -98v82h118v-772h-118v345c-40 -60 -110 -101 -192 -101c-148 0 -256 118 -256 272zM167 256c0 -100 68 -171 165 -171c95 0 164 71 164 171c0 101 -71 171 -164 171c-94 0 -165 -70 -165 -171z" />
    <glyph glyph-name="r" unicode="r" horiz-adv-x="444" 
d="M80 512h118v-75c13 28 70 91 153 91c43 0 81 -12 99 -24l-48 -100c-15 12 -44 22 -83 22c-93 0 -121 -91 -121 -117v-309h-118v512z" />
    <glyph glyph-name="s" unicode="s" horiz-adv-x="483" 
d="M77 379c0 89 73 149 192 149c69 0 121 -28 144 -47l-48 -69c-22 20 -52 32 -96 32c-56 0 -80 -23 -80 -59c0 -35 34 -53 96 -73c69 -21 157 -55 157 -157c0 -134 -116 -171 -213 -171c-82 0 -149 38 -185 89l60 63c27 -34 75 -63 138 -63c45 0 90 21 90 77
c0 55 -63 66 -131 93c-57 23 -124 57 -124 136z" />
    <glyph glyph-name="t" unicode="t" horiz-adv-x="355" 
d="M37 512h61v192h118v-192h119v-89h-119v-250c0 -56 15 -84 53 -84c28 0 49 16 49 16l29 -94s-42 -27 -104 -27c-120 0 -145 89 -145 168v271h-61v89z" />
    <glyph glyph-name="t.1" horiz-adv-x="296" 
d="M80 704h118v-192h111v-89h-111v-423h-118v423h-69v89h69v192z" />
    <glyph glyph-name="u" unicode="u" horiz-adv-x="628" 
d="M439 512h118v-295c0 -170 -78 -233 -243 -233s-243 63 -243 233v295h118v-269c0 -126 41 -162 125 -162s125 36 125 162v269z" />
    <glyph glyph-name="u.1" horiz-adv-x="637" 
d="M71 512h117v-298c0 -80 42 -137 123 -137c73 0 128 61 128 121v314h118v-512h-118v63c-36 -51 -98 -79 -155 -79c-114 0 -213 63 -213 197v331z" />
    <glyph glyph-name="v" unicode="v" horiz-adv-x="578" 
d="M-10 512h139l160 -353l160 353h139l-260 -512h-78z" />
    <glyph glyph-name="w" unicode="w" horiz-adv-x="942" 
d="M-10 512h135l161 -351l145 351h80l145 -351l161 351h135l-260 -512h-79l-142 341l-142 -341h-79z" />
    <glyph glyph-name="x" unicode="x" horiz-adv-x="582" 
d="M30 512h136l125 -164l125 164h136l-187 -246l217 -266h-141l-150 187l-150 -187h-141l217 266z" />
    <glyph glyph-name="y" unicode="y" horiz-adv-x="583" 
d="M-10 512h134l177 -355l158 355h134l-373 -772h-135l148 302z" />
    <glyph glyph-name="z" unicode="z" horiz-adv-x="563" 
d="M57 512h489l-326 -420h310v-92h-513l325 420h-285v92z" />
    <glyph glyph-name="braceleft" unicode="{" horiz-adv-x="372" 
d="M69 333c35 0 55 16 55 56v290c0 83 31 181 159 181h65v-88h-30c-58 0 -91 -39 -91 -102v-291c0 -42 -17 -66 -42 -79c25 -13 42 -38 42 -79v-291c0 -63 33 -102 91 -102h30v-88h-65c-128 0 -159 98 -159 181v290c0 40 -20 56 -55 56v66z" />
    <glyph glyph-name="bar" unicode="|" horiz-adv-x="268" 
d="M82 860h103v-860h-103v860z" />
    <glyph glyph-name="braceright" unicode="}" horiz-adv-x="372" 
d="M303 333v-66c-35 0 -55 -16 -55 -56v-290c0 -83 -31 -181 -159 -181h-65v88h30c58 0 91 39 91 102v291c0 41 17 66 42 79c-25 13 -42 37 -42 79v291c0 63 -33 102 -91 102h-30v88h65c128 0 159 -98 159 -181v-290c0 -40 20 -56 55 -56z" />
    <glyph glyph-name="asciitilde" unicode="~" horiz-adv-x="670" 
d="M541 496l63 -56c-13 -20 -70 -117 -159 -117c-51 0 -92 20 -136 52c-31 23 -59 36 -84 36c-54 0 -85 -61 -96 -78l-63 56c13 20 70 117 159 117c51 0 92 -20 136 -52c31 -23 59 -36 84 -36c54 0 85 61 96 78z" />
    <glyph glyph-name="exclamdown" unicode="&#xa1;" horiz-adv-x="321" 
d="M220 -260h-118l15 631h88zM161 460c-44 0 -78 35 -78 78s34 78 78 78s78 -35 78 -78s-34 -78 -78 -78z" />
    <glyph glyph-name="cent" unicode="&#xa2;" horiz-adv-x="532" 
d="M41 256c0 131 93 235 213 264v116h73v-108c92 -2 149 -39 168 -53l-43 -80c-17 14 -59 36 -115 36c-98 0 -172 -76 -172 -175s74 -175 172 -175c56 0 98 22 115 36l43 -80c-17 -13 -65 -44 -141 -51v-115h-74v116c-133 19 -239 128 -239 269z" />
    <glyph glyph-name="sterling" unicode="&#xa3;" horiz-adv-x="754" 
d="M63 370h122c-34 53 -64 107 -64 196c0 153 102 275 273 275c208 0 266 -159 274 -200l-105 -48c-7 37 -46 148 -169 148c-94 0 -151 -76 -151 -175c0 -97 34 -143 62 -196h215v-68h-188c7 -19 11 -40 11 -66c0 -48 -21 -85 -26 -98c49 0 115 -56 206 -56
c69 0 96 74 98 99l93 -46c-5 -31 -48 -150 -179 -150c-127 0 -203 73 -299 73c-55 0 -78 -42 -83 -58h-76c4 51 58 145 143 147c13 25 19 51 19 85c0 27 -8 49 -19 70h-157v68z" />
    <glyph glyph-name="yen" unicode="&#xa5;" horiz-adv-x="696" 
d="M-7 825h149l206 -334l206 334h149l-263 -415h174v-89h-204v-94h204v-89h-204v-138h-124v138h-204v89h204v94h-204v89h174z" />
    <glyph glyph-name="brokenbar" unicode="&#xa6;" horiz-adv-x="268" 
d="M82 860h103v-332h-103v332zM82 332h103v-332h-103v332z" />
    <glyph glyph-name="section" unicode="&#xa7;" horiz-adv-x="640" 
d="M61 302c3 72 49 133 115 161c-60 42 -89 92 -89 167c0 114 84 210 239 210c120 0 186 -68 213 -131l-94 -50c-13 41 -56 82 -119 82c-73 0 -112 -53 -112 -107c0 -64 72 -101 166 -138c139 -55 215 -118 215 -223c0 -69 -51 -131 -117 -159c61 -44 91 -97 91 -175
c0 -105 -76 -214 -265 -214c-144 0 -218 79 -252 156l93 55c16 -39 61 -112 159 -112c85 0 137 43 137 111s-67 110 -183 155c-128 50 -197 114 -197 212zM169 319c1 -55 58 -87 128 -114c38 -15 74 -30 102 -46c44 12 87 47 89 96c-3 61 -73 102 -173 137
c-21 8 -42 17 -60 26c-42 -12 -85 -47 -86 -99z" />
    <glyph glyph-name="dieresis" unicode="&#xa8;" horiz-adv-x="510" 
d="M72 699c0 36 29 65 64 65s64 -29 64 -65s-29 -65 -64 -65s-64 29 -64 65zM310 699c0 36 29 65 64 65s64 -29 64 -65s-29 -65 -64 -65s-64 29 -64 65z" />
    <glyph glyph-name="copyright" unicode="&#xa9;" horiz-adv-x="933" 
d="M43 412c0 238 191 428 423 428c234 0 423 -190 423 -428c0 -237 -186 -427 -423 -427c-239 0 -423 190 -423 427zM124 412c0 -194 148 -348 342 -348c192 0 342 154 342 348s-153 349 -342 349c-187 0 -342 -155 -342 -349zM237 412c0 134 110 236 240 236
c78 0 128 -28 149 -45l-33 -61c-17 14 -60 31 -103 31c-90 0 -158 -69 -158 -160c0 -92 68 -160 158 -160c46 0 82 15 103 31l33 -61c-19 -16 -76 -44 -149 -44c-130 0 -240 100 -240 233z" />
    <glyph glyph-name="ordfeminine" unicode="&#xaa;" horiz-adv-x="484" 
d="M64 672c0 95 67 168 159 168c50 0 92 -23 118 -60v50h73v-316h-73v52c-24 -37 -68 -62 -118 -62c-92 0 -159 73 -159 168zM140 672c0 -62 42 -106 102 -106c59 0 102 44 102 106s-44 106 -102 106s-102 -44 -102 -106z" />
    <glyph glyph-name="guillemotleft" unicode="&#xab;" horiz-adv-x="575" 
d="M219 528l65 -51l-155 -199l155 -199l-65 -51l-195 250zM469 528l65 -51l-155 -199l155 -199l-65 -51l-195 250z" />
    <glyph glyph-name="registered" unicode="&#xae;" horiz-adv-x="504" 
d="M28 615c0 124 101 225 223 225c125 0 225 -101 225 -225c0 -123 -100 -223 -225 -223c-122 0 -223 100 -223 223zM70 615c0 -100 82 -181 181 -181c102 0 184 81 184 181c0 101 -82 183 -184 183c-99 0 -181 -82 -181 -183zM184 742h65c49 0 82 -26 82 -73
c0 -39 -25 -67 -64 -73l83 -105h-42l-78 103h-13v-103h-33v251zM217 715v-95h23c33 0 56 17 56 48s-23 47 -56 47h-23z" />
    <glyph glyph-name="macron" unicode="&#xaf;" horiz-adv-x="548" 
d="M70 735h408v-81h-408v81z" />
    <glyph glyph-name="degree" unicode="&#xb0;" horiz-adv-x="328" 
d="M164 875c61 0 110 -42 110 -103s-49 -103 -110 -103s-110 42 -110 103s49 103 110 103zM164 713c32 0 56 25 56 59s-24 59 -56 59s-56 -25 -56 -59s24 -59 56 -59z" />
    <glyph glyph-name="onesuperior" unicode="&#xb9;" horiz-adv-x="128" 
d="M19 825h86v-312h-47v266h-39v46z" />
    <glyph glyph-name="twosuperior" unicode="&#xb2;" horiz-adv-x="271" 
d="M35 743c8 42 42 98 113 98c89 0 116 -62 116 -110c0 -71 -96 -138 -142 -175h148v-43h-238v24c37 30 180 130 180 194c0 36 -22 68 -64 68c-34 0 -61 -28 -71 -67z" />
    <glyph glyph-name="threesuperior" unicode="&#xb3;" horiz-adv-x="249" 
d="M34 767c4 26 28 74 95 74c55 0 95 -38 95 -88c0 -31 -16 -55 -40 -68c30 -12 49 -41 49 -76c0 -55 -42 -96 -107 -96c-82 0 -105 55 -108 80l44 12c3 -17 19 -50 64 -50c37 0 58 22 58 54c0 34 -26 59 -57 59c-7 0 -13 -2 -13 -2v33h13c28 0 53 23 53 54
c0 27 -24 49 -51 49c-40 0 -52 -27 -56 -44z" />
    <glyph glyph-name="acute" unicode="&#xb4;" horiz-adv-x="439" 
d="M105 700l167 140l63 -81l-190 -113z" />
    <glyph glyph-name="mu" unicode="&#xb5;" horiz-adv-x="661" 
d="M96 512h117v-298c0 -80 41 -137 122 -137c73 0 129 61 129 121v314h118v-512h-118v63c-36 -51 -99 -79 -155 -79c-44 0 -75 14 -96 35v-179h-142c0 139 25 217 25 375v297z" />
    <glyph glyph-name="paragraph" unicode="&#xb6;" horiz-adv-x="674" 
d="M69 583c0 157 110 242 271 242h251v-825h-73v753h-46v-753h-73v331h-59c-161 0 -271 96 -271 252z" />
    <glyph glyph-name="periodcentered" unicode="&#xb7;" horiz-adv-x="273" 
d="M136 347c44 0 78 -35 78 -78s-34 -78 -78 -78s-78 35 -78 78s34 78 78 78z" />
    <glyph glyph-name="cedilla" unicode="&#xb8;" horiz-adv-x="423" 
d="M149 -124l48 148l52 -16l-26 -81s10 2 27 2c53 0 108 -40 108 -104c0 -62 -45 -119 -139 -119c-60 0 -119 37 -144 79l52 37c17 -27 55 -52 92 -52c40 0 68 22 68 55c0 38 -33 60 -69 60c-30 0 -53 -8 -63 -14z" />
    <glyph glyph-name="ordmasculine" unicode="&#xba;" horiz-adv-x="492" 
d="M56 671c0 99 83 169 190 169s190 -70 190 -169s-83 -169 -190 -169s-190 70 -190 169zM137 671c0 -59 47 -102 109 -102s109 43 109 102s-47 102 -109 102s-109 -43 -109 -102z" />
    <glyph glyph-name="guillemotright" unicode="&#xbb;" horiz-adv-x="575" 
d="M291 477l65 51l195 -250l-195 -250l-65 51l155 199zM41 477l65 51l195 -250l-195 -250l-65 51l155 199z" />
    <glyph glyph-name="onequarter" unicode="&#xbc;" horiz-adv-x="796" 
d="M63 825h132v-480h-72v409h-60v71zM403 134v25l229 321h71v-283h55v-63h-55v-134h-68v134h-232zM501 197h134v186zM74 0l480 825h80l-480 -825h-80z" />
    <glyph glyph-name="onehalf" unicode="&#xbd;" horiz-adv-x="924" 
d="M63 825h132v-480h-72v409h-60v71zM506 338c11 62 62 144 165 144c131 0 171 -92 171 -161c0 -106 -141 -204 -209 -259h217v-62h-349v36c55 43 264 190 264 285c0 52 -31 99 -94 99c-49 0 -89 -41 -104 -98zM75 0l480 825h80l-480 -825h-80z" />
    <glyph glyph-name="threequarters" unicode="&#xbe;" horiz-adv-x="933" 
d="M540 134v25l229 320h71v-282h55v-63h-55v-134h-68v134h-232zM638 197h134v185zM60 718c6 39 42 110 141 110c81 0 141 -56 141 -130c0 -46 -24 -82 -59 -101c44 -18 72 -60 72 -113c0 -81 -62 -142 -158 -142c-122 0 -157 82 -161 119l66 18c4 -26 28 -75 95 -75
c54 0 86 33 86 80c0 50 -39 88 -85 88c-11 0 -19 -3 -19 -3v48h19c42 0 79 35 79 80c0 41 -35 74 -76 74c-59 0 -78 -40 -84 -66zM211 0l480 825h80l-480 -825h-80z" />
    <glyph glyph-name="questiondown" unicode="&#xbf;" horiz-adv-x="588" 
d="M558 -50c-11 -116 -96 -224 -260 -224c-178 0 -263 136 -263 248c0 102 68 224 220 244v112h108v-216c-17 4 -32 5 -60 5c-111 0 -157 -75 -157 -145c0 -72 48 -143 152 -143c105 0 149 60 161 138zM309 426c-44 0 -78 35 -78 78s34 78 78 78s78 -35 78 -78
s-34 -78 -78 -78z" />
    <glyph glyph-name="Agrave" unicode="&#xc0;" horiz-adv-x="738" 
d="M179 1012l63 81l167 -140l-40 -54zM311 825h116l328 -825h-133l-84 221h-338l-84 -221h-133zM242 330h254l-127 328z" />
    <glyph glyph-name="Aacute" unicode="&#xc1;" horiz-adv-x="738" 
d="M329 953l167 140l63 -81l-190 -113zM311 825h116l328 -825h-133l-84 221h-338l-84 -221h-133zM242 330h254l-127 328z" />
    <glyph glyph-name="Acircumflex" unicode="&#xc2;" horiz-adv-x="738" 
d="M169 962l200 146l200 -146l-47 -63l-153 112l-153 -112zM311 825h116l328 -825h-133l-84 221h-338l-84 -221h-133zM242 330h254l-127 328z" />
    <glyph glyph-name="Atilde" unicode="&#xc3;" horiz-adv-x="738" 
d="M311 825h116l328 -825h-133l-84 221h-338l-84 -221h-133zM242 330h254l-127 328zM100 1006c13 20 70 117 159 117c51 0 92 -20 136 -52c31 -23 59 -36 84 -36c54 0 85 61 96 78l63 -56c-13 -20 -70 -117 -159 -117c-51 0 -92 20 -136 52c-31 23 -59 36 -84 36
c-54 0 -85 -61 -96 -78z" />
    <glyph glyph-name="Adieresis" unicode="&#xc4;" horiz-adv-x="738" 
d="M186 1011c0 36 29 65 64 65s64 -29 64 -65s-29 -65 -64 -65s-64 29 -64 65zM424 1011c0 36 29 65 64 65s64 -29 64 -65s-29 -65 -64 -65s-64 29 -64 65zM311 825h116l328 -825h-133l-84 221h-338l-84 -221h-133zM242 330h254l-127 328z" />
    <glyph glyph-name="Aring" unicode="&#xc5;" horiz-adv-x="738" 
d="M234 1045c0 70 59 120 135 120s135 -50 135 -120c0 -71 -55 -121 -135 -121c-81 0 -135 50 -135 121zM304 1045c0 -36 26 -63 65 -63c38 0 65 27 65 63c0 34 -28 61 -65 61c-36 0 -65 -27 -65 -61zM311 825h116l328 -825h-133l-84 221h-338l-84 -221h-133zM242 330h254
l-127 328z" />
    <glyph glyph-name="AE" unicode="&#xc6;" horiz-adv-x="862" 
d="M-17 0l328 825h498v-109h-316v-248h304v-109h-304v-250h316v-109h-440v221h-169l-84 -221h-133zM242 330h127v328z" />
    <glyph glyph-name="Ccedilla" unicode="&#xc7;" horiz-adv-x="783" 
d="M355 -124l38 117c-198 40 -349 212 -349 419c0 239 199 428 440 428c148 0 240 -59 269 -81l-55 -105c-26 22 -101 64 -197 64c-206 0 -322 -150 -322 -306c0 -157 116 -306 322 -306c96 0 171 42 197 64l55 -105c-29 -22 -121 -81 -269 -81c-12 0 -24 1 -36 2l-19 -59
s10 2 27 2c53 0 108 -40 108 -104c0 -62 -45 -119 -139 -119c-60 0 -119 37 -144 79l52 37c17 -27 55 -52 92 -52c40 0 68 22 68 55c0 38 -33 60 -69 60c-30 0 -53 -8 -63 -14z" />
    <glyph glyph-name="Egrave" unicode="&#xc8;" horiz-adv-x="575" 
d="M82 825h440v-109h-316v-248h304v-109h-304v-250h316v-109h-440v825zM157 1012l63 81l167 -140l-40 -54z" />
    <glyph glyph-name="Eacute" unicode="&#xc9;" horiz-adv-x="575" 
d="M82 825h440v-109h-316v-248h304v-109h-304v-250h316v-109h-440v825zM217 953l167 140l63 -81l-190 -113z" />
    <glyph glyph-name="Ecircumflex" unicode="&#xca;" horiz-adv-x="575" 
d="M82 825h440v-109h-316v-248h304v-109h-304v-250h316v-109h-440v825zM102 962l200 146l200 -146l-47 -63l-153 112l-153 -112z" />
    <glyph glyph-name="Edieresis" unicode="&#xcb;" horiz-adv-x="575" 
d="M82 825h440v-109h-316v-248h304v-109h-304v-250h316v-109h-440v825zM119 1011c0 36 29 65 64 65s64 -29 64 -65s-29 -65 -64 -65s-64 29 -64 65zM357 1011c0 36 29 65 64 65s64 -29 64 -65s-29 -65 -64 -65s-64 29 -64 65z" />
    <glyph glyph-name="Igrave" unicode="&#xcc;" horiz-adv-x="288" 
d="M82 825h124v-825h-124v825zM-46 1012l63 81l167 -140l-40 -54z" />
    <glyph glyph-name="Iacute" unicode="&#xcd;" horiz-adv-x="288" 
d="M82 825h124v-825h-124v825zM104 953l167 140l63 -81l-190 -113z" />
    <glyph glyph-name="Icircumflex" unicode="&#xce;" horiz-adv-x="288" 
d="M82 825h124v-825h-124v825zM-56 962l200 146l200 -146l-47 -63l-153 112l-153 -112z" />
    <glyph glyph-name="Idieresis" unicode="&#xcf;" horiz-adv-x="288" 
d="M82 825h124v-825h-124v825zM-39 1011c0 36 29 65 64 65s64 -29 64 -65s-29 -65 -64 -65s-64 29 -64 65zM199 1011c0 36 29 65 64 65s64 -29 64 -65s-29 -65 -64 -65s-64 29 -64 65z" />
    <glyph glyph-name="Eth" unicode="&#xd0;" horiz-adv-x="749" 
d="M82 825h209c226 0 416 -172 416 -413c-1 -241 -190 -412 -416 -412h-209v362h-82v101h82v362zM206 714v-251h173v-101h-173v-251h72c168 0 296 128 296 301s-129 302 -296 302h-72z" />
    <glyph glyph-name="Ntilde" unicode="&#xd1;" horiz-adv-x="808" 
d="M137 1008c13 20 70 117 159 117c51 0 92 -20 136 -52c31 -23 59 -36 84 -36c54 0 85 61 96 78l63 -56c-13 -20 -70 -117 -159 -117c-51 0 -92 20 -136 52c-31 23 -59 36 -84 36c-54 0 -85 -61 -96 -78zM82 825h124l396 -617v617h124v-825h-124l-396 616v-616h-124v825z
" />
    <glyph glyph-name="Ograve" unicode="&#xd2;" horiz-adv-x="918" 
d="M43 412c0 241 189 428 416 428s416 -187 416 -428s-189 -428 -416 -428s-416 187 -416 428zM177 412c0 -164 111 -309 282 -309s282 145 282 309s-111 309 -282 309s-282 -145 -282 -309zM314 1012l63 81l167 -140l-40 -54z" />
    <glyph glyph-name="Oacute" unicode="&#xd3;" horiz-adv-x="918" 
d="M43 412c0 241 189 428 416 428s416 -187 416 -428s-189 -428 -416 -428s-416 187 -416 428zM177 412c0 -164 111 -309 282 -309s282 145 282 309s-111 309 -282 309s-282 -145 -282 -309zM374 953l167 140l63 -81l-190 -113z" />
    <glyph glyph-name="Ocircumflex" unicode="&#xd4;" horiz-adv-x="918" 
d="M43 412c0 241 189 428 416 428s416 -187 416 -428s-189 -428 -416 -428s-416 187 -416 428zM177 412c0 -164 111 -309 282 -309s282 145 282 309s-111 309 -282 309s-282 -145 -282 -309zM259 962l200 146l200 -146l-47 -63l-153 112l-153 -112z" />
    <glyph glyph-name="Otilde" unicode="&#xd5;" horiz-adv-x="918" 
d="M43 412c0 241 189 428 416 428s416 -187 416 -428s-189 -428 -416 -428s-416 187 -416 428zM177 412c0 -164 111 -309 282 -309s282 145 282 309s-111 309 -282 309s-282 -145 -282 -309zM190 999c13 20 70 117 159 117c51 0 92 -20 136 -52c31 -23 59 -36 84 -36
c54 0 85 61 96 78l63 -56c-13 -20 -70 -117 -159 -117c-51 0 -92 20 -136 52c-31 23 -59 36 -84 36c-54 0 -85 -61 -96 -78z" />
    <glyph glyph-name="Odieresis" unicode="&#xd6;" horiz-adv-x="918" 
d="M43 412c0 241 189 428 416 428s416 -187 416 -428s-189 -428 -416 -428s-416 187 -416 428zM177 412c0 -164 111 -309 282 -309s282 145 282 309s-111 309 -282 309s-282 -145 -282 -309zM276 1011c0 36 29 65 64 65s64 -29 64 -65s-29 -65 -64 -65s-64 29 -64 65z
M514 1011c0 36 29 65 64 65s64 -29 64 -65s-29 -65 -64 -65s-64 29 -64 65z" />
    <glyph glyph-name="Oslash" unicode="&#xd8;" horiz-adv-x="918" 
d="M43 412c0 241 189 428 416 428c81 0 158 -24 223 -67l54 68l76 -59l-56 -71c73 -76 119 -181 119 -299c0 -241 -189 -428 -416 -428c-82 0 -159 24 -224 66l-51 -65l-76 59l53 68c-73 76 -118 182 -118 300zM177 412c0 -75 22 -145 63 -200l367 466
c-41 27 -92 43 -148 43c-171 0 -282 -145 -282 -309zM311 146c41 -27 91 -43 148 -43c171 0 282 145 282 309c0 74 -23 144 -64 199z" />
    <glyph glyph-name="Ugrave" unicode="&#xd9;" horiz-adv-x="748" 
d="M73 825h124v-498c0 -157 59 -221 177 -221s177 64 177 221v498h124v-531c0 -204 -106 -310 -301 -310s-301 106 -301 310v531zM229 1012l63 81l167 -140l-40 -54z" />
    <glyph glyph-name="Uacute" unicode="&#xda;" horiz-adv-x="748" 
d="M73 825h124v-498c0 -157 59 -221 177 -221s177 64 177 221v498h124v-531c0 -204 -106 -310 -301 -310s-301 106 -301 310v531zM289 950l167 140l63 -81l-190 -113z" />
    <glyph glyph-name="Ucircumflex" unicode="&#xdb;" horiz-adv-x="748" 
d="M73 825h124v-498c0 -157 59 -221 177 -221s177 64 177 221v498h124v-531c0 -204 -106 -310 -301 -310s-301 106 -301 310v531zM174 962l200 146l200 -146l-47 -63l-153 112l-153 -112z" />
    <glyph glyph-name="Udieresis" unicode="&#xdc;" horiz-adv-x="748" 
d="M73 825h124v-498c0 -157 59 -221 177 -221s177 64 177 221v498h124v-531c0 -204 -106 -310 -301 -310s-301 106 -301 310v531zM191 1011c0 36 29 65 64 65s64 -29 64 -65s-29 -65 -64 -65s-64 29 -64 65zM429 1011c0 36 29 65 64 65s64 -29 64 -65s-29 -65 -64 -65
s-64 29 -64 65z" />
    <glyph glyph-name="Yacute" unicode="&#xdd;" horiz-adv-x="676" 
d="M544 825h149l-293 -462v-363h-124v363l-293 462h149l206 -334zM243 953l167 140l63 -81l-190 -113z" />
    <glyph glyph-name="Ydieresis" unicode="&#x178;" horiz-adv-x="676" 
d="M544 825h149l-293 -462v-363h-124v363l-293 462h149l206 -334zM155 1011c0 36 29 65 64 65s64 -29 64 -65s-29 -65 -64 -65s-64 29 -64 65zM393 1011c0 36 29 65 64 65s64 -29 64 -65s-29 -65 -64 -65s-64 29 -64 65z" />
    <glyph glyph-name="Thorn" unicode="&#xde;" horiz-adv-x="790" 
d="M82 825h124v-167h128c161 0 271 -86 271 -242s-110 -253 -271 -253h-128v-163h-124v825zM206 558v-294h92c102 0 175 51 175 148c0 98 -73 146 -175 146h-92z" />
    <glyph glyph-name="germandbls" unicode="&#xdf;" horiz-adv-x="648" 
d="M100 637c0 138 110 238 238 238c140 0 241 -103 241 -233c0 -84 -46 -149 -114 -182c86 -35 145 -112 145 -216c0 -148 -120 -260 -285 -260h-41v108h19c129 0 183 79 183 158c0 102 -77 161 -167 161h-35v93h20c115 0 164 69 164 138c0 77 -54 132 -130 132
c-77 0 -120 -64 -120 -163v-611h-118v346h-66v93h66v198z" />
    <glyph glyph-name="agrave" unicode="&#xe0;" 
d="M44 256c0 154 108 272 256 272c82 0 150 -37 192 -98v82h118v-512h-118v85c-40 -60 -110 -101 -192 -101c-148 0 -256 118 -256 272zM167 256c0 -100 68 -171 165 -171c95 0 164 71 164 171c0 101 -71 171 -164 171c-94 0 -165 -70 -165 -171zM192 700l63 81l167 -140
l-40 -54z" />
    <glyph glyph-name="aacute" unicode="&#xe1;" 
d="M44 256c0 154 108 272 256 272c82 0 150 -37 192 -98v82h118v-512h-118v85c-40 -60 -110 -101 -192 -101c-148 0 -256 118 -256 272zM167 256c0 -100 68 -171 165 -171c95 0 164 71 164 171c0 101 -71 171 -164 171c-94 0 -165 -70 -165 -171zM192 641l167 140l63 -81
l-190 -113z" />
    <glyph glyph-name="acircumflex" unicode="&#xe2;" 
d="M44 256c0 154 108 272 256 272c82 0 150 -37 192 -98v82h118v-512h-118v85c-40 -60 -110 -101 -192 -101c-148 0 -256 118 -256 272zM167 256c0 -100 68 -171 165 -171c95 0 164 71 164 171c0 101 -71 171 -164 171c-94 0 -165 -70 -165 -171zM127 650l200 146l200 -146
l-47 -63l-153 112l-153 -112z" />
    <glyph glyph-name="atilde" unicode="&#xe3;" 
d="M44 256c0 154 108 272 256 272c82 0 150 -37 192 -98v82h118v-512h-118v85c-40 -60 -110 -101 -192 -101c-148 0 -256 118 -256 272zM167 256c0 -100 68 -171 165 -171c95 0 164 71 164 171c0 101 -71 171 -164 171c-94 0 -165 -70 -165 -171zM58 662
c13 20 70 117 159 117c51 0 92 -20 136 -52c31 -23 59 -36 84 -36c54 0 85 61 96 78l63 -56c-13 -20 -70 -117 -159 -117c-51 0 -92 20 -136 52c-31 23 -59 36 -84 36c-54 0 -85 -61 -96 -78z" />
    <glyph glyph-name="adieresis" unicode="&#xe4;" 
d="M144 699c0 36 29 65 64 65s64 -29 64 -65s-29 -65 -64 -65s-64 29 -64 65zM382 699c0 36 29 65 64 65s64 -29 64 -65s-29 -65 -64 -65s-64 29 -64 65zM44 256c0 154 108 272 256 272c82 0 150 -37 192 -98v82h118v-512h-118v85c-40 -60 -110 -101 -192 -101
c-148 0 -256 118 -256 272zM167 256c0 -100 68 -171 165 -171c95 0 164 71 164 171c0 101 -71 171 -164 171c-94 0 -165 -70 -165 -171z" />
    <glyph glyph-name="aring" unicode="&#xe5;" 
d="M44 256c0 154 108 272 256 272c82 0 150 -37 192 -98v82h118v-512h-118v85c-40 -60 -110 -101 -192 -101c-148 0 -256 118 -256 272zM167 256c0 -100 68 -171 165 -171c95 0 164 71 164 171c0 101 -71 171 -164 171c-94 0 -165 -70 -165 -171zM192 733
c0 70 59 120 135 120s135 -50 135 -120c0 -71 -55 -121 -135 -121c-81 0 -135 50 -135 121zM262 733c0 -36 26 -63 65 -63c38 0 65 27 65 63c0 34 -28 61 -65 61c-36 0 -65 -27 -65 -61z" />
    <glyph glyph-name="ae" unicode="&#xe6;" horiz-adv-x="1009" 
d="M287 528c84 0 164 -27 211 -85c51 52 122 85 201 85c151 0 269 -105 269 -268v-18h-423c0 -105 81 -163 166 -163c71 0 116 23 159 78l85 -44c-54 -88 -144 -129 -252 -129c-89 0 -168 39 -218 100c-22 -34 -105 -100 -219 -100c-110 0 -195 63 -195 158
c0 94 75 165 191 165c81 0 136 -25 164 -54v51c0 82 -62 129 -139 129c-81 0 -129 -32 -143 -47l-41 79c17 22 82 63 184 63zM187 151c0 -56 54 -92 122 -92c67 0 122 40 122 92s-55 90 -122 90c-68 0 -122 -34 -122 -90zM549 310h305c-10 83 -72 129 -152 129
c-86 0 -147 -50 -153 -129z" />
    <glyph glyph-name="ccedilla" unicode="&#xe7;" horiz-adv-x="533" 
d="M210 -124l38 118c-117 30 -207 133 -207 262c0 155 129 272 280 272c96 0 155 -38 174 -53l-43 -80c-17 14 -59 36 -115 36c-98 0 -172 -76 -172 -175s74 -175 172 -175c56 0 98 22 115 36l43 -80c-19 -15 -78 -53 -174 -53c-6 0 -13 0 -19 1l-18 -58s10 2 27 2
c53 0 108 -40 108 -104c0 -62 -45 -119 -139 -119c-60 0 -119 37 -144 79l52 37c17 -27 55 -52 92 -52c40 0 68 22 68 55c0 38 -33 60 -69 60c-30 0 -53 -8 -63 -14z" />
    <glyph glyph-name="egrave" unicode="&#xe8;" horiz-adv-x="626" 
d="M41 257c0 150 124 271 275 271s269 -105 269 -268v-18h-423c0 -105 81 -163 166 -163c71 0 116 23 159 78l85 -44c-54 -88 -144 -129 -252 -129c-155 0 -279 119 -279 273zM166 310h305c-10 83 -72 129 -152 129c-86 0 -147 -50 -153 -129zM178 700l63 81l167 -140
l-40 -54z" />
    <glyph glyph-name="eacute" unicode="&#xe9;" horiz-adv-x="626" 
d="M41 257c0 150 124 271 275 271s269 -105 269 -268v-18h-423c0 -105 81 -163 166 -163c71 0 116 23 159 78l85 -44c-54 -88 -144 -129 -252 -129c-155 0 -279 119 -279 273zM166 310h305c-10 83 -72 129 -152 129c-86 0 -147 -50 -153 -129zM218 641l167 140l63 -81
l-190 -113z" />
    <glyph glyph-name="ecircumflex" unicode="&#xea;" horiz-adv-x="626" 
d="M41 257c0 150 124 271 275 271s269 -105 269 -268v-18h-423c0 -105 81 -163 166 -163c71 0 116 23 159 78l85 -44c-54 -88 -144 -129 -252 -129c-155 0 -279 119 -279 273zM166 310h305c-10 83 -72 129 -152 129c-86 0 -147 -50 -153 -129zM113 650l200 146l200 -146
l-47 -63l-153 112l-153 -112z" />
    <glyph glyph-name="edieresis" unicode="&#xeb;" horiz-adv-x="626" 
d="M41 257c0 150 124 271 275 271s269 -105 269 -268v-18h-423c0 -105 81 -163 166 -163c71 0 116 23 159 78l85 -44c-54 -88 -144 -129 -252 -129c-155 0 -279 119 -279 273zM166 310h305c-10 83 -72 129 -152 129c-86 0 -147 -50 -153 -129zM130 672c0 36 29 65 64 65
s64 -29 64 -65s-29 -65 -64 -65s-64 29 -64 65zM368 672c0 36 29 65 64 65s64 -29 64 -65s-29 -65 -64 -65s-64 29 -64 65z" />
    <glyph glyph-name="igrave" unicode="&#xec;" horiz-adv-x="278" 
d="M80 512h118v-512h-118v512zM-51 700l63 81l167 -140l-40 -54z" />
    <glyph glyph-name="iacute" unicode="&#xed;" horiz-adv-x="278" 
d="M80 512h118v-512h-118v512zM99 641l167 140l63 -81l-190 -113z" />
    <glyph glyph-name="icircumflex" unicode="&#xee;" horiz-adv-x="278" 
d="M80 512h118v-512h-118v512zM-61 650l200 146l200 -146l-47 -63l-153 112l-153 -112z" />
    <glyph glyph-name="idieresis" unicode="&#xef;" horiz-adv-x="278" 
d="M80 512h118v-512h-118v512zM-44 673c0 36 29 65 64 65s64 -29 64 -65s-29 -65 -64 -65s-64 29 -64 65zM194 673c0 36 29 65 64 65s64 -29 64 -65s-29 -65 -64 -65s-64 29 -64 65z" />
    <glyph glyph-name="eth" unicode="&#xf0;" 
d="M52 256c0 165 137 272 265 272c49 0 112 -20 148 -61c-29 93 -82 164 -147 214l-81 -80l-54 54l67 67c-54 30 -98 46 -121 53l30 100c23 -7 91 -29 170 -74l75 74l54 -55l-62 -61c137 -102 244 -267 244 -503c0 -159 -125 -272 -293 -272c-173 0 -295 113 -295 272z
M175 256c0 -99 71 -170 172 -170c98 0 170 71 170 170c0 100 -74 171 -170 171c-98 0 -172 -71 -172 -171z" />
    <glyph glyph-name="ntilde" unicode="&#xf1;" horiz-adv-x="637" 
d="M80 512h118v-63c36 51 98 79 155 79c114 0 213 -63 213 -197v-331h-117v298c0 80 -42 137 -123 137c-73 0 -128 -61 -128 -121v-314h-118v512zM54 667c13 20 70 117 159 117c51 0 92 -20 136 -52c31 -23 59 -36 84 -36c54 0 85 61 96 78l63 -56
c-13 -20 -70 -117 -159 -117c-51 0 -92 20 -136 52c-31 23 -59 36 -84 36c-54 0 -85 -61 -96 -78z" />
    <glyph glyph-name="ograve" unicode="&#xf2;" horiz-adv-x="670" 
d="M41 256c0 160 128 272 294 272s294 -112 294 -272s-128 -272 -294 -272s-294 112 -294 272zM163 256c0 -100 74 -171 172 -171s172 71 172 171s-74 171 -172 171s-172 -71 -172 -171zM200 700l63 81l167 -140l-40 -54z" />
    <glyph glyph-name="oacute" unicode="&#xf3;" horiz-adv-x="670" 
d="M41 256c0 160 128 272 294 272s294 -112 294 -272s-128 -272 -294 -272s-294 112 -294 272zM163 256c0 -100 74 -171 172 -171s172 71 172 171s-74 171 -172 171s-172 -71 -172 -171zM240 641l167 140l63 -81l-190 -113z" />
    <glyph glyph-name="ocircumflex" unicode="&#xf4;" horiz-adv-x="670" 
d="M41 256c0 160 128 272 294 272s294 -112 294 -272s-128 -272 -294 -272s-294 112 -294 272zM163 256c0 -100 74 -171 172 -171s172 71 172 171s-74 171 -172 171s-172 -71 -172 -171zM135 650l200 146l200 -146l-47 -63l-153 112l-153 -112z" />
    <glyph glyph-name="otilde" unicode="&#xf5;" horiz-adv-x="670" 
d="M41 256c0 160 128 272 294 272s294 -112 294 -272s-128 -272 -294 -272s-294 112 -294 272zM163 256c0 -100 74 -171 172 -171s172 71 172 171s-74 171 -172 171s-172 -71 -172 -171zM66 662c13 20 70 117 159 117c51 0 92 -20 136 -52c31 -23 59 -36 84 -36
c54 0 85 61 96 78l63 -56c-13 -20 -70 -117 -159 -117c-51 0 -92 20 -136 52c-31 23 -59 36 -84 36c-54 0 -85 -61 -96 -78z" />
    <glyph glyph-name="odieresis" unicode="&#xf6;" horiz-adv-x="670" 
d="M41 256c0 160 128 272 294 272s294 -112 294 -272s-128 -272 -294 -272s-294 112 -294 272zM163 256c0 -100 74 -171 172 -171s172 71 172 171s-74 171 -172 171s-172 -71 -172 -171zM152 699c0 36 29 65 64 65s64 -29 64 -65s-29 -65 -64 -65s-64 29 -64 65zM390 699
c0 36 29 65 64 65s64 -29 64 -65s-29 -65 -64 -65s-64 29 -64 65z" />
    <glyph glyph-name="oslash" unicode="&#xf8;" horiz-adv-x="671" 
d="M41 256c0 160 128 272 294 272c80 0 151 -27 204 -72l93 76l34 -41l-91 -73c34 -44 54 -100 54 -162c0 -160 -128 -272 -294 -272c-81 0 -153 26 -206 72l-94 -76l-34 41l92 74c-33 44 -52 99 -52 161zM217 128c31 -28 71 -43 118 -43c98 0 172 71 172 171
c0 33 -8 63 -23 88zM163 256c0 -33 7 -62 21 -87l267 216c-30 27 -71 42 -116 42c-98 0 -172 -71 -172 -171z" />
    <glyph glyph-name="ugrave" unicode="&#xf9;" horiz-adv-x="628" 
d="M439 512h118v-295c0 -170 -78 -233 -243 -233s-243 63 -243 233v295h118v-269c0 -126 41 -162 125 -162s125 36 125 162v269zM179 759l63 81l167 -140l-40 -54z" />
    <glyph glyph-name="uacute" unicode="&#xfa;" horiz-adv-x="628" 
d="M439 512h118v-295c0 -170 -78 -233 -243 -233s-243 63 -243 233v295h118v-269c0 -126 41 -162 125 -162s125 36 125 162v269zM219 641l167 140l63 -81l-190 -113z" />
    <glyph glyph-name="ucircumflex" unicode="&#xfb;" horiz-adv-x="628" 
d="M439 512h118v-295c0 -170 -78 -233 -243 -233s-243 63 -243 233v295h118v-269c0 -126 41 -162 125 -162s125 36 125 162v269zM114 650l200 146l200 -146l-47 -63l-153 112l-153 -112z" />
    <glyph glyph-name="udieresis" unicode="&#xfc;" horiz-adv-x="628" 
d="M439 512h118v-295c0 -170 -78 -233 -243 -233s-243 63 -243 233v295h118v-269c0 -126 41 -162 125 -162s125 36 125 162v269zM131 672c0 36 29 65 64 65s64 -29 64 -65s-29 -65 -64 -65s-64 29 -64 65zM369 672c0 36 29 65 64 65s64 -29 64 -65s-29 -65 -64 -65
s-64 29 -64 65z" />
    <glyph glyph-name="yacute" unicode="&#xfd;" horiz-adv-x="583" 
d="M-10 512h134l177 -355l158 355h134l-373 -772h-135l148 302zM196 641l167 140l63 -81l-190 -113z" />
    <glyph glyph-name="ydieresis" unicode="&#xff;" horiz-adv-x="583" 
d="M-10 512h134l177 -355l158 355h134l-373 -772h-135l148 302zM118 672c0 36 29 65 64 65s64 -29 64 -65s-29 -65 -64 -65s-64 29 -64 65zM356 672c0 36 29 65 64 65s64 -29 64 -65s-29 -65 -64 -65s-64 29 -64 65z" />
    <glyph glyph-name="thorn" unicode="&#xfe;" horiz-adv-x="687" 
d="M645 256c0 -154 -108 -272 -256 -272c-82 0 -152 41 -192 101v-345h-118v1120h118v-430c42 61 110 98 192 98c148 0 256 -118 256 -272zM522 256c0 101 -71 171 -165 171c-93 0 -164 -70 -164 -171c0 -100 69 -171 164 -171c97 0 165 71 165 171z" />
    <glyph glyph-name="Amacron" unicode="&#x100;" horiz-adv-x="738" 
d="M165 1027h408v-81h-408v81zM311 825h116l328 -825h-133l-84 221h-338l-84 -221h-133zM242 330h254l-127 328z" />
    <glyph glyph-name="amacron" unicode="&#x101;" 
d="M44 256c0 154 108 272 256 272c82 0 150 -37 192 -98v82h118v-512h-118v85c-40 -60 -110 -101 -192 -101c-148 0 -256 118 -256 272zM167 256c0 -100 68 -171 165 -171c95 0 164 71 164 171c0 101 -71 171 -164 171c-94 0 -165 -70 -165 -171zM123 715h408v-81h-408v81z
" />
    <glyph glyph-name="Abreve" unicode="&#x102;" horiz-adv-x="738" 
d="M311 825h116l328 -825h-133l-84 221h-338l-84 -221h-133zM242 330h254l-127 328zM500 1130l85 -21c-15 -101 -100 -169 -216 -169s-201 68 -216 169l85 21c7 -32 40 -115 131 -115s124 83 131 115z" />
    <glyph glyph-name="abreve" unicode="&#x103;" 
d="M44 256c0 154 108 272 256 272c82 0 150 -37 192 -98v82h118v-512h-118v85c-40 -60 -110 -101 -192 -101c-148 0 -256 118 -256 272zM167 256c0 -100 68 -171 165 -171c95 0 164 71 164 171c0 101 -71 171 -164 171c-94 0 -165 -70 -165 -171zM458 802l85 -21
c-15 -101 -100 -169 -216 -169s-201 68 -216 169l85 21c7 -32 40 -115 131 -115s124 83 131 115z" />
    <glyph glyph-name="Aogonek" unicode="&#x104;" horiz-adv-x="738" 
d="M311 825h116l328 -825h-61c-19 -24 -67 -89 -67 -147c0 -38 28 -60 62 -60c40 0 66 28 78 41l50 -37s-45 -72 -137 -72c-64 0 -126 40 -126 117c0 55 50 122 80 158h-12l-84 221h-338l-84 -221h-133zM242 330h254l-127 328z" />
    <glyph glyph-name="aogonek" unicode="&#x105;" 
d="M413 -158c0 55 50 122 80 158h-1v85c-40 -60 -110 -101 -192 -101c-148 0 -256 118 -256 272s108 272 256 272c82 0 150 -37 192 -98v82h118v-512h-57c-19 -24 -67 -89 -67 -147c0 -38 28 -60 62 -60c40 0 66 28 78 41l50 -37s-45 -72 -137 -72c-64 0 -126 40 -126 117z
M167 256c0 -100 68 -171 165 -171c95 0 164 71 164 171c0 101 -71 171 -164 171c-94 0 -165 -70 -165 -171z" />
    <glyph glyph-name="Cacute" unicode="&#x106;" horiz-adv-x="782" 
d="M43 412c0 239 199 428 440 428c148 0 240 -59 269 -81l-55 -105c-26 22 -101 64 -197 64c-206 0 -322 -150 -322 -306c0 -157 116 -306 322 -306c96 0 171 42 197 64l55 -105c-29 -22 -121 -81 -269 -81c-240 0 -440 190 -440 428zM313 953l167 140l63 -81l-190 -113z
" />
    <glyph glyph-name="cacute" unicode="&#x107;" horiz-adv-x="533" 
d="M452 117l43 -80c-19 -15 -78 -53 -174 -53c-151 0 -280 117 -280 272s129 272 280 272c96 0 155 -38 174 -53l-43 -80c-17 14 -59 36 -115 36c-98 0 -172 -76 -172 -175s74 -175 172 -175c56 0 98 22 115 36zM173 641l167 140l63 -81l-190 -113z" />
    <glyph glyph-name="Ccaron" unicode="&#x10c;" horiz-adv-x="782" 
d="M43 412c0 239 199 428 440 428c148 0 240 -59 269 -81l-55 -105c-26 22 -101 64 -197 64c-206 0 -322 -150 -322 -306c0 -157 116 -306 322 -306c96 0 171 42 197 64l55 -105c-29 -22 -121 -81 -269 -81c-240 0 -440 190 -440 428zM253 1045l47 63l153 -112l153 112
l47 -63l-200 -146z" />
    <glyph glyph-name="ccaron" unicode="&#x10d;" horiz-adv-x="533" 
d="M452 117l43 -80c-19 -15 -78 -53 -174 -53c-151 0 -280 117 -280 272s129 272 280 272c96 0 155 -38 174 -53l-43 -80c-17 14 -59 36 -115 36c-98 0 -172 -76 -172 -175s74 -175 172 -175c56 0 98 22 115 36zM91 733l47 63l153 -112l153 112l47 -63l-200 -146z" />
    <glyph glyph-name="Dcaron" unicode="&#x10e;" horiz-adv-x="750" 
d="M82 825h209c226 0 416 -173 416 -413c0 -241 -189 -412 -416 -412h-209v825zM206 714v-603h72c167 0 296 128 296 301s-129 302 -296 302h-72zM158 1045l47 63l153 -112l153 112l47 -63l-200 -146z" />
    <glyph glyph-name="dcaron" unicode="&#x10f;" 
d="M44 256c0 154 108 272 256 272c82 0 150 -37 192 -98v430h118v-860h-118v85c-40 -60 -110 -101 -192 -101c-148 0 -256 118 -256 272zM167 256c0 -100 68 -171 165 -171c95 0 164 71 164 171c0 101 -71 171 -164 171c-94 0 -165 -70 -165 -171zM733 824
c35 0 63 -28 63 -64c0 -75 -46 -134 -93 -173l-26 21c5 7 36 43 43 95c-28 5 -50 28 -50 57c0 36 29 64 63 64z" />
    <glyph glyph-name="Dcroat" unicode="&#x110;" horiz-adv-x="750" 
d="M82 825h209c226 0 416 -172 416 -412c0 -241 -189 -413 -416 -413h-209v362h-82v101h82v362zM206 714v-251h173v-101h-173v-251h72c167 0 296 128 296 301s-129 302 -296 302h-72z" />
    <glyph glyph-name="dcroat" unicode="&#x111;" 
d="M44 256c0 154 108 272 256 272c82 0 150 -37 192 -98v216h-169v78h169v136h118v-136h75v-78h-75v-646h-118v85c-40 -60 -110 -101 -192 -101c-148 0 -256 118 -256 272zM167 256c0 -100 68 -171 165 -171c95 0 164 71 164 171c0 101 -71 171 -164 171
c-94 0 -165 -70 -165 -171z" />
    <glyph glyph-name="Emacron" unicode="&#x112;" horiz-adv-x="575" 
d="M82 825h440v-109h-316v-248h304v-109h-304v-250h316v-109h-440v825zM98 1027h408v-81h-408v81z" />
    <glyph glyph-name="emacron" unicode="&#x113;" horiz-adv-x="626" 
d="M41 257c0 150 124 271 275 271s269 -105 269 -268v-18h-423c0 -105 81 -163 166 -163c71 0 116 23 159 78l85 -44c-54 -88 -144 -129 -252 -129c-155 0 -279 119 -279 273zM166 310h305c-10 83 -72 129 -152 129c-86 0 -147 -50 -153 -129zM109 715h408v-81h-408v81z" />
    <glyph glyph-name="Edotaccent" unicode="&#x116;" horiz-adv-x="575" 
d="M82 825h440v-109h-316v-248h304v-109h-304v-250h316v-109h-440v825zM302 1049c36 0 65 -29 65 -65s-29 -65 -65 -65s-65 29 -65 65s29 65 65 65z" />
    <glyph glyph-name="edotaccent" unicode="&#x117;" horiz-adv-x="626" 
d="M41 257c0 150 124 271 275 271s269 -105 269 -268v-18h-423c0 -105 81 -163 166 -163c71 0 116 23 159 78l85 -44c-54 -88 -144 -129 -252 -129c-155 0 -279 119 -279 273zM166 310h305c-10 83 -72 129 -152 129c-86 0 -147 -50 -153 -129zM313 737c36 0 65 -29 65 -65
s-29 -65 -65 -65s-65 29 -65 65s29 65 65 65z" />
    <glyph glyph-name="Eogonek" unicode="&#x118;" horiz-adv-x="575" 
d="M275 -158c0 55 50 122 80 158h-273v825h440v-109h-316v-248h304v-109h-304v-250h316v-109h-107c-19 -24 -67 -89 -67 -147c0 -38 28 -60 62 -60c40 0 66 28 78 41l50 -37s-45 -72 -137 -72c-64 0 -126 40 -126 117z" />
    <glyph glyph-name="eogonek" unicode="&#x119;" horiz-adv-x="626" 
d="M267 -158c0 48 37 104 67 142h-14c-155 0 -279 119 -279 273c0 150 124 271 275 271s269 -105 269 -268v-18h-423c0 -105 81 -163 166 -163c71 0 116 23 159 78l85 -44c-40 -65 -99 -104 -171 -120c-21 -28 -61 -87 -61 -140c0 -38 28 -60 62 -60c40 0 66 28 78 41
l50 -37s-45 -72 -137 -72c-64 0 -126 40 -126 117zM166 310h305c-10 83 -72 129 -152 129c-86 0 -147 -50 -153 -129z" />
    <glyph glyph-name="Ecaron" unicode="&#x11a;" horiz-adv-x="575" 
d="M82 825h440v-109h-316v-248h304v-109h-304v-250h316v-109h-440v825zM102 1045l47 63l153 -112l153 112l47 -63l-200 -146z" />
    <glyph glyph-name="ecaron" unicode="&#x11b;" horiz-adv-x="626" 
d="M41 257c0 150 124 271 275 271s269 -105 269 -268v-18h-423c0 -105 81 -163 166 -163c71 0 116 23 159 78l85 -44c-54 -88 -144 -129 -252 -129c-155 0 -279 119 -279 273zM166 310h305c-10 83 -72 129 -152 129c-86 0 -147 -50 -153 -129zM113 733l47 63l153 -112
l153 112l47 -63l-200 -146z" />
    <glyph glyph-name="Gcommaaccent" unicode="&#x122;" horiz-adv-x="868" 
d="M43 412c0 237 170 428 402 428c146 0 247 -54 319 -141l-82 -89c-55 79 -133 118 -230 118c-156 0 -275 -141 -275 -316c0 -173 123 -314 275 -314c124 0 249 82 249 218v18h-256v97h382v-115c0 -170 -158 -332 -382 -332c-222 0 -402 192 -402 428zM445 -40
c35 0 63 -28 63 -64c0 -75 -46 -134 -93 -173l-26 21c5 7 36 43 43 95c-28 5 -50 28 -50 57c0 36 29 64 63 64z" />
    <glyph glyph-name="gcommaaccent" unicode="&#x123;" 
d="M167 256c0 -100 68 -171 165 -171c95 0 164 71 164 171c0 101 -71 171 -164 171c-94 0 -165 -70 -165 -171zM44 256c0 154 108 272 256 272c82 0 150 -37 192 -98v82h118v-526c0 -168 -113 -261 -289 -261c-119 0 -224 40 -272 149l98 47c24 -50 84 -94 174 -94
c92 0 171 56 171 163v95c-40 -60 -110 -101 -192 -101c-148 0 -256 118 -256 272zM264 671c0 75 46 134 93 173l26 -21c-5 -7 -36 -43 -43 -95c28 -5 50 -28 50 -57c0 -36 -29 -64 -63 -64c-35 0 -63 28 -63 64z" />
    <glyph glyph-name="Imacron" unicode="&#x12a;" horiz-adv-x="288" 
d="M82 825h124v-825h-124v825zM-60 1027h408v-81h-408v81z" />
    <glyph glyph-name="imacron" unicode="&#x12b;" horiz-adv-x="278" 
d="M80 512h118v-512h-118v512zM-65 715h408v-81h-408v81z" />
    <glyph glyph-name="Iogonek" unicode="&#x12e;" horiz-adv-x="288" 
d="M34 -158c0 55 50 122 80 158h-32v825h124v-825h-32c-19 -24 -67 -89 -67 -147c0 -38 28 -60 62 -60c40 0 66 28 78 41l50 -37s-45 -72 -137 -72c-64 0 -126 40 -126 117z" />
    <glyph glyph-name="iogonek" unicode="&#x12f;" horiz-adv-x="278" 
d="M30 -158c0 55 50 122 80 158h-30v512h118v-512h-28c-19 -24 -67 -89 -67 -147c0 -38 28 -60 62 -60c40 0 66 28 78 41l50 -37s-45 -72 -137 -72c-64 0 -126 40 -126 117zM139 767c44 0 78 -35 78 -78s-34 -78 -78 -78s-78 35 -78 78s34 78 78 78z" />
    <glyph glyph-name="dotlessi" unicode="&#x131;" horiz-adv-x="278" 
d="M80 512h118v-512h-118v512z" />
    <glyph glyph-name="Kcommaaccent" unicode="&#x136;" horiz-adv-x="723" 
d="M82 825h124v-369l335 369h151l-358 -395l403 -430h-171l-315 339l-45 -50v-289h-124v825zM366 -40c35 0 63 -28 63 -64c0 -75 -46 -134 -93 -173l-26 21c5 7 36 43 43 95c-28 5 -50 28 -50 57c0 36 29 64 63 64z" />
    <glyph glyph-name="kcommaaccent" unicode="&#x137;" horiz-adv-x="556" 
d="M80 860h118v-541l178 193h151l-206 -219l258 -293h-150l-185 211l-46 -48v-163h-118v860zM303 -40c35 0 63 -28 63 -64c0 -75 -46 -134 -93 -173l-26 21c5 7 36 43 43 95c-28 5 -50 28 -50 57c0 36 29 64 63 64z" />
    <glyph glyph-name="Lacute" unicode="&#x139;" horiz-adv-x="559" 
d="M82 825h124v-716h320v-109h-444v825zM104 953l167 140l63 -81l-190 -113z" />
    <glyph glyph-name="lacute" unicode="&#x13a;" horiz-adv-x="278" 
d="M80 860h118v-860h-118v860zM99 988l167 140l63 -81l-190 -113z" />
    <glyph glyph-name="Lcommaaccent" unicode="&#x13b;" horiz-adv-x="559" 
d="M82 825h124v-716h320v-109h-444v825zM295 -40c35 0 63 -28 63 -64c0 -75 -46 -134 -93 -173l-26 21c5 7 36 43 43 95c-28 5 -50 28 -50 57c0 36 29 64 63 64z" />
    <glyph glyph-name="lcommaaccent" unicode="&#x13c;" horiz-adv-x="278" 
d="M80 860h118v-860h-118v860zM139 -40c35 0 63 -28 63 -64c0 -75 -46 -134 -93 -173l-26 21c5 7 36 43 43 95c-28 5 -50 28 -50 57c0 36 29 64 63 64z" />
    <glyph glyph-name="Lcaron" unicode="&#x13d;" horiz-adv-x="559" 
d="M82 825h124v-716h320v-109h-444v825zM425 825c35 0 63 -28 63 -64c0 -75 -46 -134 -93 -173l-26 21c5 7 36 43 43 95c-28 5 -50 28 -50 57c0 36 29 64 63 64z" />
    <glyph glyph-name="lcaron" unicode="&#x13e;" horiz-adv-x="278" 
d="M80 860h118v-860h-118v860zM318 824c35 0 63 -28 63 -64c0 -75 -46 -134 -93 -173l-26 21c5 7 36 43 43 95c-28 5 -50 28 -50 57c0 36 29 64 63 64z" />
    <glyph glyph-name="Lslash" unicode="&#x141;" horiz-adv-x="638" 
d="M82 373l79 62v390h124v-293l106 84v-101l-106 -84v-322h320v-109h-444v334l-79 -62v101z" />
    <glyph glyph-name="lslash" unicode="&#x142;" horiz-adv-x="362" 
d="M80 397l84 66v397h118v-304l84 66v-101l-84 -66v-455h-118v362l-84 -66v101z" />
    <glyph glyph-name="Nacute" unicode="&#x143;" horiz-adv-x="808" 
d="M289 953l167 140l63 -81l-190 -113zM82 825h124l396 -617v617h124v-825h-124l-396 616v-616h-124v825z" />
    <glyph glyph-name="nacute" unicode="&#x144;" horiz-adv-x="637" 
d="M80 512h118v-63c36 51 98 79 155 79c114 0 213 -63 213 -197v-331h-117v298c0 80 -42 137 -123 137c-73 0 -128 -61 -128 -121v-314h-118v512zM239 641l167 140l63 -81l-190 -113z" />
    <glyph glyph-name="Ncommaaccent" unicode="&#x145;" horiz-adv-x="808" 
d="M404 -40c35 0 63 -28 63 -64c0 -75 -46 -134 -93 -173l-26 21c5 7 36 43 43 95c-28 5 -50 28 -50 57c0 36 29 64 63 64zM82 825h124l396 -617v617h124v-825h-124l-396 616v-616h-124v825z" />
    <glyph glyph-name="ncommaaccent" unicode="&#x146;" horiz-adv-x="637" 
d="M80 512h118v-63c36 51 98 79 155 79c114 0 213 -63 213 -197v-331h-117v298c0 80 -42 137 -123 137c-73 0 -128 -61 -128 -121v-314h-118v512zM324 -40c35 0 63 -28 63 -64c0 -75 -46 -134 -93 -173l-26 21c5 7 36 43 43 95c-28 5 -50 28 -50 57c0 36 29 64 63 64z" />
    <glyph glyph-name="Ncaron" unicode="&#x147;" horiz-adv-x="808" 
d="M204 1045l47 63l153 -112l153 112l47 -63l-200 -146zM82 825h124l396 -617v617h124v-825h-124l-396 616v-616h-124v825z" />
    <glyph glyph-name="ncaron" unicode="&#x148;" horiz-adv-x="637" 
d="M80 512h118v-63c36 51 98 79 155 79c114 0 213 -63 213 -197v-331h-117v298c0 80 -42 137 -123 137c-73 0 -128 -61 -128 -121v-314h-118v512zM123 733l47 63l153 -112l153 112l47 -63l-200 -146z" />
    <glyph glyph-name="Omacron" unicode="&#x14c;" horiz-adv-x="918" 
d="M43 412c0 241 189 428 416 428s416 -187 416 -428s-189 -428 -416 -428s-416 187 -416 428zM177 412c0 -164 111 -309 282 -309s282 145 282 309s-111 309 -282 309s-282 -145 -282 -309zM255 1027h408v-81h-408v81z" />
    <glyph glyph-name="omacron" unicode="&#x14d;" horiz-adv-x="670" 
d="M41 256c0 160 128 272 294 272s294 -112 294 -272s-128 -272 -294 -272s-294 112 -294 272zM163 256c0 -100 74 -171 172 -171s172 71 172 171s-74 171 -172 171s-172 -71 -172 -171zM131 715h408v-81h-408v81z" />
    <glyph glyph-name="Ohungarumlaut" unicode="&#x150;" horiz-adv-x="918" 
d="M43 412c0 241 189 428 416 428s416 -187 416 -428s-189 -428 -416 -428s-416 187 -416 428zM177 412c0 -164 111 -309 282 -309s282 145 282 309s-111 309 -282 309s-282 -145 -282 -309zM265 965l166 140l63 -81l-190 -113zM483 965l166 140l64 -81l-191 -113z" />
    <glyph glyph-name="ohungarumlaut" unicode="&#x151;" horiz-adv-x="670" 
d="M41 256c0 160 128 272 294 272s294 -112 294 -272s-128 -272 -294 -272s-294 112 -294 272zM163 256c0 -100 74 -171 172 -171s172 71 172 171s-74 171 -172 171s-172 -71 -172 -171zM131 641l166 140l63 -81l-190 -113zM349 641l166 140l64 -81l-191 -113z" />
    <glyph glyph-name="OE" unicode="&#x152;" horiz-adv-x="951" 
d="M42 412c0 232 189 413 416 413h440v-109h-316v-248h304v-109h-304v-250h316v-109h-440c-227 0 -416 180 -416 412zM176 412c0 -158 111 -298 282 -298v596c-171 0 -282 -140 -282 -298z" />
    <glyph glyph-name="oe" unicode="&#x153;" horiz-adv-x="1084" 
d="M41 256c0 160 128 272 294 272c94 0 176 -36 229 -96c51 58 126 96 210 96c151 0 269 -105 269 -268v-18h-423c0 -105 81 -163 166 -163c71 0 116 23 159 78l85 -44c-54 -88 -144 -129 -252 -129c-86 0 -163 37 -214 96c-54 -60 -136 -96 -229 -96
c-166 0 -294 112 -294 272zM163 256c0 -100 74 -171 172 -171s172 71 172 171s-74 171 -172 171s-172 -71 -172 -171zM624 310h305c-10 83 -72 129 -152 129c-86 0 -147 -50 -153 -129z" />
    <glyph glyph-name="Racute" unicode="&#x154;" horiz-adv-x="678" 
d="M676 0h-158l-253 331h-59v-331h-124v825h252c161 0 271 -85 271 -242c0 -132 -78 -221 -200 -245zM206 725v-293h92c102 0 178 49 178 148s-76 145 -178 145h-92zM219 948l167 140l63 -81l-190 -113z" />
    <glyph glyph-name="racute" unicode="&#x155;" horiz-adv-x="444" 
d="M80 512h118v-75c13 28 70 91 153 91c43 0 81 -12 99 -24l-48 -100c-15 12 -44 22 -83 22c-93 0 -121 -91 -121 -117v-309h-118v512zM150 641l167 140l63 -81l-190 -113z" />
    <glyph glyph-name="Rcommaaccent" unicode="&#x156;" horiz-adv-x="678" 
d="M676 0h-158l-253 331h-59v-331h-124v825h252c161 0 271 -85 271 -242c0 -132 -78 -221 -200 -245zM206 725v-293h92c102 0 178 49 178 148s-76 145 -178 145h-92zM352 -40c35 0 63 -28 63 -64c0 -75 -46 -134 -93 -173l-26 21c5 7 36 43 43 95c-28 5 -50 28 -50 57
c0 36 29 64 63 64z" />
    <glyph glyph-name="rcommaaccent" unicode="&#x157;" horiz-adv-x="444" 
d="M80 512h118v-75c13 28 70 91 153 91c43 0 81 -12 99 -24l-48 -100c-15 12 -44 22 -83 22c-93 0 -121 -91 -121 -117v-309h-118v512zM139 -40c35 0 63 -28 63 -64c0 -75 -46 -134 -93 -173l-26 21c5 7 36 43 43 95c-28 5 -50 28 -50 57c0 36 29 64 63 64z" />
    <glyph glyph-name="Rcaron" unicode="&#x158;" horiz-adv-x="678" 
d="M676 0h-158l-253 331h-59v-331h-124v825h252c161 0 271 -85 271 -242c0 -132 -78 -221 -200 -245zM206 725v-293h92c102 0 178 49 178 148s-76 145 -178 145h-92zM112 1045l47 63l153 -112l153 112l47 -63l-200 -146z" />
    <glyph glyph-name="rcaron" unicode="&#x159;" horiz-adv-x="444" 
d="M80 512h118v-75c13 28 70 91 153 91c43 0 81 -12 99 -24l-48 -100c-15 12 -44 22 -83 22c-93 0 -121 -91 -121 -117v-309h-118v512zM65 733l47 63l153 -112l153 112l47 -63l-200 -146z" />
    <glyph glyph-name="Sacute" unicode="&#x15a;" horiz-adv-x="660" 
d="M103 604c0 141 119 236 247 236c131 0 210 -60 243 -117l-77 -71c-26 39 -74 75 -159 75c-87 0 -133 -57 -133 -119c0 -59 54 -93 126 -121c127 -51 266 -111 266 -255c0 -172 -131 -248 -285 -248c-169 0 -258 82 -292 153l83 75c38 -62 101 -113 201 -113
c73 0 159 29 159 126c0 80 -82 121 -205 170c-115 47 -174 119 -174 209zM258 953l167 140l63 -81l-190 -113z" />
    <glyph glyph-name="sacute" unicode="&#x15b;" horiz-adv-x="483" 
d="M164 641l167 140l63 -81l-190 -113zM77 379c0 89 73 149 192 149c69 0 121 -28 144 -47l-48 -69c-22 20 -52 32 -96 32c-56 0 -80 -23 -80 -59c0 -35 34 -53 96 -73c69 -21 157 -55 157 -157c0 -134 -116 -171 -213 -171c-82 0 -149 38 -185 89l60 63
c27 -34 75 -63 138 -63c45 0 90 21 90 77c0 55 -63 66 -131 93c-57 23 -124 57 -124 136z" />
    <glyph glyph-name="Scedilla" unicode="&#x15e;" horiz-adv-x="660" 
d="M262 -124l35 109c-147 10 -227 86 -258 152l83 75c38 -62 101 -113 201 -113c73 0 159 29 159 126c0 80 -82 121 -205 170c-115 47 -174 119 -174 209c0 141 119 236 247 236c131 0 210 -60 243 -117l-77 -71c-26 39 -74 75 -159 75c-87 0 -133 -57 -133 -119
c0 -59 54 -93 126 -121c127 -51 266 -111 266 -255c0 -163 -118 -240 -262 -247l-18 -58s10 2 27 2c53 0 108 -40 108 -104c0 -62 -45 -119 -139 -119c-60 0 -119 37 -144 79l52 37c17 -27 55 -52 92 -52c40 0 68 22 68 55c0 38 -33 60 -69 60c-30 0 -53 -8 -63 -14z" />
    <glyph glyph-name="scedilla" unicode="&#x15f;" horiz-adv-x="483" 
d="M77 379c0 89 73 149 192 149c69 0 121 -28 144 -47l-48 -69c-22 20 -52 32 -96 32c-56 0 -80 -23 -80 -59c0 -35 34 -53 96 -73c69 -21 157 -55 157 -157c0 -117 -88 -160 -175 -169l-19 -59s10 2 27 2c53 0 108 -40 108 -104c0 -62 -45 -119 -139 -119
c-60 0 -119 37 -144 79l52 37c17 -27 55 -52 92 -52c40 0 68 22 68 55c0 38 -33 60 -69 60c-30 0 -53 -8 -63 -14l-6 5l35 109c-73 5 -132 41 -165 88l60 63c27 -34 75 -63 138 -63c45 0 90 21 90 77c0 55 -63 66 -131 93c-57 23 -124 57 -124 136z" />
    <glyph glyph-name="Scaron" unicode="&#x160;" horiz-adv-x="660" 
d="M103 604c0 141 119 236 247 236c131 0 210 -60 243 -117l-77 -71c-26 39 -74 75 -159 75c-87 0 -133 -57 -133 -119c0 -59 54 -93 126 -121c127 -51 266 -111 266 -255c0 -172 -131 -248 -285 -248c-169 0 -258 82 -292 153l83 75c38 -62 101 -113 201 -113
c73 0 159 29 159 126c0 80 -82 121 -205 170c-115 47 -174 119 -174 209zM150 1045l47 63l153 -112l153 112l47 -63l-200 -146z" />
    <glyph glyph-name="scaron" unicode="&#x161;" horiz-adv-x="483" 
d="M69 733l47 63l153 -112l153 112l47 -63l-200 -146zM77 379c0 89 73 149 192 149c69 0 121 -28 144 -47l-48 -69c-22 20 -52 32 -96 32c-56 0 -80 -23 -80 -59c0 -35 34 -53 96 -73c69 -21 157 -55 157 -157c0 -134 -116 -171 -213 -171c-82 0 -149 38 -185 89l60 63
c27 -34 75 -63 138 -63c45 0 90 21 90 77c0 55 -63 66 -131 93c-57 23 -124 57 -124 136z" />
    <glyph glyph-name="Scommaaccent" unicode="&#x218;" horiz-adv-x="660" 
d="M103 604c0 141 119 236 247 236c131 0 210 -60 243 -117l-77 -71c-26 39 -74 75 -159 75c-87 0 -133 -57 -133 -119c0 -59 54 -93 126 -121c127 -51 266 -111 266 -255c0 -172 -131 -248 -285 -248c-169 0 -258 82 -292 153l83 75c38 -62 101 -113 201 -113
c73 0 159 29 159 126c0 80 -82 121 -205 170c-115 47 -174 119 -174 209zM331 -40c35 0 63 -28 63 -64c0 -75 -46 -134 -93 -173l-26 21c5 7 36 43 43 95c-28 5 -50 28 -50 57c0 36 29 64 63 64z" />
    <glyph glyph-name="scommaaccent" unicode="&#x219;" horiz-adv-x="483" 
d="M229 -40c35 0 63 -28 63 -64c0 -75 -46 -134 -93 -173l-26 21c5 7 36 43 43 95c-28 5 -50 28 -50 57c0 36 29 64 63 64zM77 379c0 89 73 149 192 149c69 0 121 -28 144 -47l-48 -69c-22 20 -52 32 -96 32c-56 0 -80 -23 -80 -59c0 -35 34 -53 96 -73
c69 -21 157 -55 157 -157c0 -134 -116 -171 -213 -171c-82 0 -149 38 -185 89l60 63c27 -34 75 -63 138 -63c45 0 90 21 90 77c0 55 -63 66 -131 93c-57 23 -124 57 -124 136z" />
    <glyph glyph-name="Tcommaaccent" unicode="&#x162;" horiz-adv-x="590" 
d="M5 825h580v-109h-229v-716h-124v716h-227v109zM294 -57c35 0 63 -28 63 -64c0 -75 -46 -134 -93 -173l-26 21c5 7 36 43 43 95c-28 5 -50 28 -50 57c0 36 29 64 63 64z" />
    <glyph glyph-name="tcommaaccent" unicode="&#x163;" horiz-adv-x="355" 
d="M37 512h61v192h118v-192h119v-89h-119v-250c0 -56 15 -84 53 -84c28 0 49 16 49 16l29 -94s-42 -27 -104 -27c-120 0 -145 89 -145 168v271h-61v89zM217 -40c35 0 63 -28 63 -64c0 -75 -46 -134 -93 -173l-26 21c5 7 36 43 43 95c-28 5 -50 28 -50 57c0 36 29 64 63 64z
" />
    <glyph glyph-name="Tcaron" unicode="&#x164;" horiz-adv-x="590" 
d="M5 825h580v-109h-229v-716h-124v716h-227v109zM94 1045l47 63l153 -112l153 112l47 -63l-200 -146z" />
    <glyph glyph-name="tcaron" unicode="&#x165;" horiz-adv-x="355" 
d="M37 512h61v192h118v-192h119v-89h-119v-250c0 -56 15 -84 53 -84c28 0 49 16 49 16l29 -94s-42 -27 -104 -27c-120 0 -145 89 -145 168v271h-61v89zM385 824c35 0 63 -28 63 -64c0 -75 -46 -134 -93 -173l-26 21c5 7 36 43 43 95c-28 5 -50 28 -50 57c0 36 29 64 63 64z
" />
    <glyph glyph-name="Umacron" unicode="&#x16a;" horiz-adv-x="748" 
d="M73 825h124v-498c0 -157 59 -221 177 -221s177 64 177 221v498h124v-531c0 -204 -106 -310 -301 -310s-301 106 -301 310v531zM170 1027h408v-81h-408v81z" />
    <glyph glyph-name="umacron" unicode="&#x16b;" horiz-adv-x="628" 
d="M439 512h118v-295c0 -170 -78 -233 -243 -233s-243 63 -243 233v295h118v-269c0 -126 41 -162 125 -162s125 36 125 162v269zM110 715h408v-81h-408v81z" />
    <glyph glyph-name="Uring" unicode="&#x16e;" horiz-adv-x="748" 
d="M73 825h124v-498c0 -157 59 -221 177 -221s177 64 177 221v498h124v-531c0 -204 -106 -310 -301 -310s-301 106 -301 310v531zM239 1023c0 70 59 120 135 120s135 -50 135 -120c0 -71 -55 -121 -135 -121c-81 0 -135 50 -135 121zM309 1023c0 -36 26 -63 65 -63
c38 0 65 27 65 63c0 34 -28 61 -65 61c-36 0 -65 -27 -65 -61z" />
    <glyph glyph-name="uring" unicode="&#x16f;" horiz-adv-x="628" 
d="M439 512h118v-295c0 -170 -78 -233 -243 -233s-243 63 -243 233v295h118v-269c0 -126 41 -162 125 -162s125 36 125 162v269zM179 732c0 70 59 120 135 120s135 -50 135 -120c0 -71 -55 -121 -135 -121c-81 0 -135 50 -135 121zM249 732c0 -36 26 -63 65 -63
c38 0 65 27 65 63c0 34 -28 61 -65 61c-36 0 -65 -27 -65 -61z" />
    <glyph glyph-name="Uhungarumlaut" unicode="&#x170;" horiz-adv-x="748" 
d="M73 825h124v-498c0 -157 59 -221 177 -221s177 64 177 221v498h124v-531c0 -204 -106 -310 -301 -310s-301 106 -301 310v531zM180 965l166 140l63 -81l-190 -113zM398 965l166 140l64 -81l-191 -113z" />
    <glyph glyph-name="uhungarumlaut" unicode="&#x171;" horiz-adv-x="628" 
d="M439 512h118v-295c0 -170 -78 -233 -243 -233s-243 63 -243 233v295h118v-269c0 -126 41 -162 125 -162s125 36 125 162v269zM110 641l166 140l63 -81l-190 -113zM328 641l166 140l64 -81l-191 -113z" />
    <glyph glyph-name="Uogonek" unicode="&#x172;" horiz-adv-x="748" 
d="M267 -158c0 49 39 106 69 144c-171 13 -263 117 -263 308v531h124v-498c0 -157 59 -221 177 -221s177 64 177 221v498h124v-531c0 -197 -99 -302 -280 -309c-22 -31 -55 -84 -55 -132c0 -38 28 -60 62 -60c40 0 66 28 78 41l50 -37s-45 -72 -137 -72
c-64 0 -126 40 -126 117z" />
    <glyph glyph-name="uogonek" unicode="&#x173;" horiz-adv-x="628" 
d="M207 -158c0 48 38 106 68 144c-138 9 -204 75 -204 231v295h118v-269c0 -126 41 -162 125 -162s125 36 125 162v269h118v-295c0 -163 -72 -227 -222 -232c-22 -31 -55 -84 -55 -132c0 -38 28 -60 62 -60c40 0 66 28 78 41l50 -37s-45 -72 -137 -72
c-64 0 -126 40 -126 117z" />
    <glyph glyph-name="Zacute" unicode="&#x179;" horiz-adv-x="762" 
d="M87 825h645l-483 -715h456v-110h-675l482 715h-425v110zM324 952l167 140l63 -81l-190 -113z" />
    <glyph glyph-name="zacute" unicode="&#x17a;" horiz-adv-x="563" 
d="M57 512h489l-326 -420h310v-92h-513l325 420h-285v92zM206 641l167 140l63 -81l-190 -113z" />
    <glyph glyph-name="Zdotaccent" unicode="&#x17b;" horiz-adv-x="762" 
d="M87 825h645l-483 -715h456v-110h-675l482 715h-425v110zM409 1049c36 0 65 -29 65 -65s-29 -65 -65 -65s-65 29 -65 65s29 65 65 65z" />
    <glyph glyph-name="zdotaccent" unicode="&#x17c;" horiz-adv-x="563" 
d="M57 512h489l-326 -420h310v-92h-513l325 420h-285v92zM301 764c36 0 65 -29 65 -65s-29 -65 -65 -65s-65 29 -65 65s29 65 65 65z" />
    <glyph glyph-name="Zcaron" unicode="&#x17d;" horiz-adv-x="762" 
d="M87 825h645l-483 -715h456v-110h-675l482 715h-425v110zM209 1045l47 63l153 -112l153 112l47 -63l-200 -146z" />
    <glyph glyph-name="zcaron" unicode="&#x17e;" horiz-adv-x="324" 
d="M-92 512h489l-326 -420h310v-92h-513l325 420h-285v92zM-48 733l47 63l153 -112l153 112l47 -63l-200 -146z" />
    <glyph glyph-name="circumflex" unicode="&#x2c6;" horiz-adv-x="548" 
d="M74 694l200 146l200 -146l-47 -63l-153 112l-153 -112z" />
    <glyph glyph-name="caron" unicode="&#x2c7;" horiz-adv-x="512" 
d="M56 777l47 63l153 -112l153 112l47 -63l-200 -146z" />
    <glyph glyph-name="breve" unicode="&#x2d8;" horiz-adv-x="576" 
d="M419 840l85 -21c-15 -101 -100 -169 -216 -169s-201 68 -216 169l85 21c7 -32 40 -115 131 -115s124 83 131 115z" />
    <glyph glyph-name="dotaccent" unicode="&#x2d9;" horiz-adv-x="258" 
d="M129 764c36 0 65 -29 65 -65s-29 -65 -65 -65s-65 29 -65 65s29 65 65 65z" />
    <glyph glyph-name="ring" unicode="&#x2da;" horiz-adv-x="414" 
d="M72 733c0 70 59 120 135 120s135 -50 135 -120c0 -71 -55 -121 -135 -121c-81 0 -135 50 -135 121zM142 733c0 -36 26 -63 65 -63c38 0 65 27 65 63c0 34 -28 61 -65 61c-36 0 -65 -27 -65 -61z" />
    <glyph glyph-name="ogonek" unicode="&#x2db;" horiz-adv-x="383" 
d="M78 -158c0 79 104 184 104 184l42 -19c-12 -14 -73 -89 -73 -154c0 -38 28 -60 62 -60c40 0 66 28 78 41l50 -37s-45 -72 -137 -72c-64 0 -126 40 -126 117z" />
    <glyph glyph-name="tilde" unicode="&#x2dc;" horiz-adv-x="586" 
d="M24 662c13 20 70 117 159 117c51 0 92 -20 136 -52c31 -23 59 -36 84 -36c54 0 85 61 96 78l63 -56c-13 -20 -70 -117 -159 -117c-51 0 -92 20 -136 52c-31 23 -59 36 -84 36c-54 0 -85 -61 -96 -78z" />
    <glyph glyph-name="hungarumlaut" unicode="&#x2dd;" horiz-adv-x="614" 
d="M83 700l166 140l63 -81l-190 -113zM301 700l166 140l64 -81l-191 -113z" />
    <glyph glyph-name="endash" unicode="&#x2013;" horiz-adv-x="565" 
d="M44 340h480v-101h-480v101z" />
    <glyph glyph-name="emdash" unicode="&#x2014;" horiz-adv-x="1034" 
d="M44 340h949v-101h-949v101z" />
    <glyph glyph-name="quoteleft" unicode="&#x2018;" horiz-adv-x="233" 
d="M110 549c-44 0 -79 35 -79 78c0 92 58 165 116 213l32 -27c-5 -7 -43 -50 -53 -113c35 -7 62 -36 62 -73c0 -43 -35 -78 -78 -78z" />
    <glyph glyph-name="quoteright" unicode="&#x2019;" horiz-adv-x="233" 
d="M124 840c44 0 79 -35 79 -78c0 -92 -58 -165 -116 -213l-32 27c5 7 43 50 53 113c-35 7 -62 36 -62 73c0 43 35 78 78 78z" />
    <glyph glyph-name="quotesinglbase" unicode="&#x201a;" horiz-adv-x="239" 
d="M130 135c44 0 79 -35 79 -78c0 -92 -58 -165 -116 -213l-32 27c5 7 43 50 53 113c-35 7 -62 36 -62 73c0 43 35 78 78 78z" />
    <glyph glyph-name="quotedblleft" unicode="&#x201c;" horiz-adv-x="419" 
d="M295 549c-44 0 -79 35 -79 78c0 92 58 165 116 213l32 -27c-5 -7 -43 -50 -53 -113c35 -7 62 -36 62 -73c0 -43 -35 -78 -78 -78zM110 549c-44 0 -79 35 -79 78c0 92 58 165 116 213l32 -27c-5 -7 -43 -50 -53 -113c35 -7 62 -36 62 -73c0 -43 -35 -78 -78 -78z" />
    <glyph glyph-name="quotedblright" unicode="&#x201d;" horiz-adv-x="419" 
d="M310 840c44 0 79 -35 79 -78c0 -92 -58 -165 -116 -213l-32 27c5 7 43 50 53 113c-35 7 -62 36 -62 73c0 43 35 78 78 78zM125 840c44 0 79 -35 79 -78c0 -92 -58 -165 -116 -213l-32 27c5 7 43 50 53 113c-35 7 -62 36 -62 73c0 43 35 78 78 78z" />
    <glyph glyph-name="quotedblbase" unicode="&#x201e;" horiz-adv-x="417" 
d="M311 135c44 0 79 -35 79 -78c0 -92 -58 -165 -116 -213l-32 27c5 7 43 50 53 113c-35 7 -62 36 -62 73c0 43 35 78 78 78zM126 135c44 0 79 -35 79 -78c0 -92 -58 -165 -116 -213l-32 27c5 7 43 50 53 113c-35 7 -62 36 -62 73c0 43 35 78 78 78z" />
    <glyph glyph-name="dagger" unicode="&#x2020;" horiz-adv-x="467" 
d="M32 628h149v232h104v-232h149v-92h-149v-536h-104v536h-149v92z" />
    <glyph glyph-name="daggerdbl" unicode="&#x2021;" horiz-adv-x="467" 
d="M32 616h149v244h104v-244h149v-92h-149v-180h149v-92h-149v-252h-104v252h-149v92h149v180h-149v92z" />
    <glyph glyph-name="bullet" unicode="&#x2022;" horiz-adv-x="498" 
d="M249 486c72 0 129 -57 129 -129s-57 -129 -129 -129s-129 57 -129 129s57 129 129 129z" />
    <glyph glyph-name="ellipsis" unicode="&#x2026;" horiz-adv-x="775" 
d="M386 140c44 0 78 -35 78 -78s-34 -78 -78 -78s-78 35 -78 78s34 78 78 78zM636 140c44 0 78 -35 78 -78s-34 -78 -78 -78s-78 35 -78 78s34 78 78 78zM136 140c44 0 78 -35 78 -78s-34 -78 -78 -78s-78 35 -78 78s34 78 78 78z" />
    <glyph glyph-name="perthousand" unicode="&#x2030;" horiz-adv-x="1478" 
d="M37 643c0 116 91 197 211 197s211 -81 211 -197s-91 -197 -211 -197s-211 81 -211 197zM122 643c0 -75 54 -128 126 -128s126 53 126 128s-54 128 -126 128s-126 -53 -126 -128zM533 182c0 116 91 197 211 197s211 -81 211 -197s-91 -197 -211 -197s-211 81 -211 197z
M618 182c0 -75 54 -128 126 -128s126 53 126 128s-54 128 -126 128s-126 -53 -126 -128zM217 0l480 825h80l-480 -825h-80zM1019 182c0 116 91 197 211 197s211 -81 211 -197s-91 -197 -211 -197s-211 81 -211 197zM1104 182c0 -75 54 -128 126 -128s126 53 126 128
s-54 128 -126 128s-126 -53 -126 -128z" />
    <glyph glyph-name="guilsinglleft" unicode="&#x2039;" horiz-adv-x="325" 
d="M24 279l195 250l65 -51l-155 -199l155 -199l-65 -51z" />
    <glyph glyph-name="guilsinglright" unicode="&#x203a;" horiz-adv-x="325" 
d="M41 478l65 51l195 -250l-195 -250l-65 51l155 199z" />
    <glyph glyph-name="Euro" unicode="&#x20ac;" horiz-adv-x="829" 
d="M15 533h90c55 179 227 307 420 307c147 0 239 -59 268 -82l-55 -105c-27 22 -101 65 -196 65c-140 0 -248 -79 -290 -185h386v-74h-414c-3 -15 -5 -31 -5 -47s2 -32 5 -48h414v-74h-387c42 -106 146 -183 291 -183c96 0 170 43 196 63l56 -104c-29 -23 -121 -82 -269 -82
c-197 0 -366 129 -420 306h-90v74h74c-3 16 -5 32 -5 48s2 32 5 47h-74v74z" />
    <glyph glyph-name="trademark" unicode="&#x2122;" horiz-adv-x="508" 
d="M19 825h181v-34h-72v-224h-39v224h-70v34zM235 825h41l68 -179l68 179h41l29 -258h-39l-21 188l-66 -179h-24l-66 179l-21 -188h-39z" />
    </font>
</defs>
</svg>
